solid Onshape
  facet normal 0 0 -1
    outer loop
      vertex 3.98478 0.348623 0
      vertex 3.99619 0.174478 0
      vertex 0 2.44929e-16 0
    endloop
  endfacet
  facet normal 0 0 -1
    outer loop
      vertex 3.99619 0.174478 0
      vertex 4 7.34788e-16 0
      vertex 0 2.44929e-16 0
    endloop
  endfacet
  facet normal 0 0 -1
    outer loop
      vertex 0 2.44929e-16 0
      vertex 4 7.34788e-16 0
      vertex 3.99619 -0.174478 0
    endloop
  endfacet
  facet normal 0 0 -1
    outer loop
      vertex 3.90518 0.865758 0
      vertex 3.93923 0.694593 0
      vertex 0 2.44929e-16 0
    endloop
  endfacet
  facet normal 0 0 -1
    outer loop
      vertex 3.93923 0.694593 0
      vertex 3.96578 0.522105 0
      vertex 0 2.44929e-16 0
    endloop
  endfacet
  facet normal 0 0 -1
    outer loop
      vertex 0 2.44929e-16 0
      vertex 3.96578 0.522105 0
      vertex 3.98478 0.348623 0
    endloop
  endfacet
  facet normal 0 0 -1
    outer loop
      vertex 3.75877 1.36808 0
      vertex 3.81487 1.20282 0
      vertex 0 2.44929e-16 0
    endloop
  endfacet
  facet normal 0 0 -1
    outer loop
      vertex 3.81487 1.20282 0
      vertex 3.8637 1.03528 0
      vertex 0 2.44929e-16 0
    endloop
  endfacet
  facet normal 0 0 -1
    outer loop
      vertex 0 2.44929e-16 0
      vertex 3.8637 1.03528 0
      vertex 3.90518 0.865758 0
    endloop
  endfacet
  facet normal 0 0 -1
    outer loop
      vertex 3.54804 1.84699 0
      vertex 3.62523 1.69047 0
      vertex 0 2.44929e-16 0
    endloop
  endfacet
  facet normal 0 0 -1
    outer loop
      vertex 3.62523 1.69047 0
      vertex 3.69552 1.53073 0
      vertex 0 2.44929e-16 0
    endloop
  endfacet
  facet normal 0 0 -1
    outer loop
      vertex 0 2.44929e-16 0
      vertex 3.69552 1.53073 0
      vertex 3.75877 1.36808 0
    endloop
  endfacet
  facet normal 0 0 -1
    outer loop
      vertex 3.27661 2.29431 0
      vertex 3.37357 2.1492 0
      vertex 0 2.44929e-16 0
    endloop
  endfacet
  facet normal 0 0 -1
    outer loop
      vertex 3.37357 2.1492 0
      vertex 3.4641 2 0
      vertex 0 2.44929e-16 0
    endloop
  endfacet
  facet normal 0 0 -1
    outer loop
      vertex 0 2.44929e-16 0
      vertex 3.4641 2 0
      vertex 3.54804 1.84699 0
    endloop
  endfacet
  facet normal 0 0 -1
    outer loop
      vertex 2.94911 2.70236 0
      vertex 3.06418 2.57115 0
      vertex 0 2.44929e-16 0
    endloop
  endfacet
  facet normal 0 0 -1
    outer loop
      vertex 3.06418 2.57115 0
      vertex 3.17341 2.43505 0
      vertex 0 2.44929e-16 0
    endloop
  endfacet
  facet normal 0 0 -1
    outer loop
      vertex 0 2.44929e-16 0
      vertex 3.17341 2.43505 0
      vertex 3.27661 2.29431 0
    endloop
  endfacet
  facet normal 0 0 -1
    outer loop
      vertex 2.57115 3.06418 0
      vertex 2.70236 2.94911 0
      vertex 0 2.44929e-16 0
    endloop
  endfacet
  facet normal 0 0 -1
    outer loop
      vertex 2.70236 2.94911 0
      vertex 2.82843 2.82843 0
      vertex 0 2.44929e-16 0
    endloop
  endfacet
  facet normal 0 0 -1
    outer loop
      vertex 0 2.44929e-16 0
      vertex 2.82843 2.82843 0
      vertex 2.94911 2.70236 0
    endloop
  endfacet
  facet normal 0 0 -1
    outer loop
      vertex 2.1492 3.37357 0
      vertex 2.29431 3.27661 0
      vertex 0 2.44929e-16 0
    endloop
  endfacet
  facet normal 0 0 -1
    outer loop
      vertex 2.29431 3.27661 0
      vertex 2.43505 3.17341 0
      vertex 0 2.44929e-16 0
    endloop
  endfacet
  facet normal 0 0 -1
    outer loop
      vertex 0 2.44929e-16 0
      vertex 2.43505 3.17341 0
      vertex 2.57115 3.06418 0
    endloop
  endfacet
  facet normal 0 0 -1
    outer loop
      vertex 1.69047 3.62523 0
      vertex 1.84699 3.54804 0
      vertex 0 2.44929e-16 0
    endloop
  endfacet
  facet normal 0 0 -1
    outer loop
      vertex 1.84699 3.54804 0
      vertex 2 3.4641 0
      vertex 0 2.44929e-16 0
    endloop
  endfacet
  facet normal 0 0 -1
    outer loop
      vertex 0 2.44929e-16 0
      vertex 2 3.4641 0
      vertex 2.1492 3.37357 0
    endloop
  endfacet
  facet normal 0 0 -1
    outer loop
      vertex 1.20282 3.81487 0
      vertex 1.36808 3.75877 0
      vertex 0 2.44929e-16 0
    endloop
  endfacet
  facet normal 0 0 -1
    outer loop
      vertex 1.36808 3.75877 0
      vertex 1.53073 3.69552 0
      vertex 0 2.44929e-16 0
    endloop
  endfacet
  facet normal 0 0 -1
    outer loop
      vertex 0 2.44929e-16 0
      vertex 1.53073 3.69552 0
      vertex 1.69047 3.62523 0
    endloop
  endfacet
  facet normal 0 0 -1
    outer loop
      vertex 0.694593 3.93923 0
      vertex 0.865758 3.90518 0
      vertex 0 2.44929e-16 0
    endloop
  endfacet
  facet normal 0 0 -1
    outer loop
      vertex 0.865758 3.90518 0
      vertex 1.03528 3.8637 0
      vertex 0 2.44929e-16 0
    endloop
  endfacet
  facet normal 0 0 -1
    outer loop
      vertex 0 2.44929e-16 0
      vertex 1.03528 3.8637 0
      vertex 1.20282 3.81487 0
    endloop
  endfacet
  facet normal 0 0 -1
    outer loop
      vertex 0.174478 3.99619 0
      vertex 0.348623 3.98478 0
      vertex 0 2.44929e-16 0
    endloop
  endfacet
  facet normal 0 0 -1
    outer loop
      vertex 0.348623 3.98478 0
      vertex 0.522105 3.96578 0
      vertex 0 2.44929e-16 0
    endloop
  endfacet
  facet normal 0 0 -1
    outer loop
      vertex 0 2.44929e-16 0
      vertex 0.522105 3.96578 0
      vertex 0.694593 3.93923 0
    endloop
  endfacet
  facet normal 0 0 -1
    outer loop
      vertex -0.348623 3.98478 0
      vertex -0.174478 3.99619 0
      vertex 0 2.44929e-16 0
    endloop
  endfacet
  facet normal 0 0 -1
    outer loop
      vertex -0.174478 3.99619 0
      vertex -2.44929e-16 4 0
      vertex 0 2.44929e-16 0
    endloop
  endfacet
  facet normal 0 0 -1
    outer loop
      vertex 0 2.44929e-16 0
      vertex -2.44929e-16 4 0
      vertex 0.174478 3.99619 0
    endloop
  endfacet
  facet normal 0 0 -1
    outer loop
      vertex -0.865758 3.90518 0
      vertex -0.694593 3.93923 0
      vertex 0 2.44929e-16 0
    endloop
  endfacet
  facet normal 0 0 -1
    outer loop
      vertex -0.694593 3.93923 0
      vertex -0.522105 3.96578 0
      vertex 0 2.44929e-16 0
    endloop
  endfacet
  facet normal 0 0 -1
    outer loop
      vertex 0 2.44929e-16 0
      vertex -0.522105 3.96578 0
      vertex -0.348623 3.98478 0
    endloop
  endfacet
  facet normal 0 0 -1
    outer loop
      vertex -1.36808 3.75877 0
      vertex -1.20282 3.81487 0
      vertex 0 2.44929e-16 0
    endloop
  endfacet
  facet normal 0 0 -1
    outer loop
      vertex -1.20282 3.81487 0
      vertex -1.03528 3.8637 0
      vertex 0 2.44929e-16 0
    endloop
  endfacet
  facet normal 0 0 -1
    outer loop
      vertex 0 2.44929e-16 0
      vertex -1.03528 3.8637 0
      vertex -0.865758 3.90518 0
    endloop
  endfacet
  facet normal 0 0 -1
    outer loop
      vertex -1.84699 3.54804 0
      vertex -1.69047 3.62523 0
      vertex 0 2.44929e-16 0
    endloop
  endfacet
  facet normal 0 0 -1
    outer loop
      vertex -1.69047 3.62523 0
      vertex -1.53073 3.69552 0
      vertex 0 2.44929e-16 0
    endloop
  endfacet
  facet normal 0 0 -1
    outer loop
      vertex 0 2.44929e-16 0
      vertex -1.53073 3.69552 0
      vertex -1.36808 3.75877 0
    endloop
  endfacet
  facet normal 0 0 -1
    outer loop
      vertex -2.29431 3.27661 0
      vertex -2.1492 3.37357 0
      vertex 0 2.44929e-16 0
    endloop
  endfacet
  facet normal 0 0 -1
    outer loop
      vertex -2.1492 3.37357 0
      vertex -2 3.4641 0
      vertex 0 2.44929e-16 0
    endloop
  endfacet
  facet normal 0 0 -1
    outer loop
      vertex 0 2.44929e-16 0
      vertex -2 3.4641 0
      vertex -1.84699 3.54804 0
    endloop
  endfacet
  facet normal 0 0 -1
    outer loop
      vertex -2.70236 2.94911 0
      vertex -2.57115 3.06418 0
      vertex 0 2.44929e-16 0
    endloop
  endfacet
  facet normal 0 0 -1
    outer loop
      vertex -2.57115 3.06418 0
      vertex -2.43505 3.17341 0
      vertex 0 2.44929e-16 0
    endloop
  endfacet
  facet normal 0 0 -1
    outer loop
      vertex 0 2.44929e-16 0
      vertex -2.43505 3.17341 0
      vertex -2.29431 3.27661 0
    endloop
  endfacet
  facet normal 0 0 -1
    outer loop
      vertex -3.06418 2.57115 0
      vertex -2.94911 2.70236 0
      vertex 0 2.44929e-16 0
    endloop
  endfacet
  facet normal 0 0 -1
    outer loop
      vertex -2.94911 2.70236 0
      vertex -2.82843 2.82843 0
      vertex 0 2.44929e-16 0
    endloop
  endfacet
  facet normal 0 0 -1
    outer loop
      vertex 0 2.44929e-16 0
      vertex -2.82843 2.82843 0
      vertex -2.70236 2.94911 0
    endloop
  endfacet
  facet normal 0 0 -1
    outer loop
      vertex -3.37357 2.1492 0
      vertex -3.27661 2.29431 0
      vertex 0 2.44929e-16 0
    endloop
  endfacet
  facet normal 0 0 -1
    outer loop
      vertex -3.27661 2.29431 0
      vertex -3.17341 2.43505 0
      vertex 0 2.44929e-16 0
    endloop
  endfacet
  facet normal 0 0 -1
    outer loop
      vertex 0 2.44929e-16 0
      vertex -3.17341 2.43505 0
      vertex -3.06418 2.57115 0
    endloop
  endfacet
  facet normal 0 0 -1
    outer loop
      vertex -3.62523 1.69047 0
      vertex -3.54804 1.84699 0
      vertex 0 2.44929e-16 0
    endloop
  endfacet
  facet normal 0 0 -1
    outer loop
      vertex -3.54804 1.84699 0
      vertex -3.4641 2 0
      vertex 0 2.44929e-16 0
    endloop
  endfacet
  facet normal 0 0 -1
    outer loop
      vertex 0 2.44929e-16 0
      vertex -3.4641 2 0
      vertex -3.37357 2.1492 0
    endloop
  endfacet
  facet normal 0 0 -1
    outer loop
      vertex -3.81487 1.20282 0
      vertex -3.75877 1.36808 0
      vertex 0 2.44929e-16 0
    endloop
  endfacet
  facet normal 0 0 -1
    outer loop
      vertex -3.75877 1.36808 0
      vertex -3.69552 1.53073 0
      vertex 0 2.44929e-16 0
    endloop
  endfacet
  facet normal 0 0 -1
    outer loop
      vertex 0 2.44929e-16 0
      vertex -3.69552 1.53073 0
      vertex -3.62523 1.69047 0
    endloop
  endfacet
  facet normal 0 0 -1
    outer loop
      vertex -3.93923 0.694593 0
      vertex -3.90518 0.865758 0
      vertex 0 2.44929e-16 0
    endloop
  endfacet
  facet normal 0 0 -1
    outer loop
      vertex -3.90518 0.865758 0
      vertex -3.8637 1.03528 0
      vertex 0 2.44929e-16 0
    endloop
  endfacet
  facet normal 0 0 -1
    outer loop
      vertex 0 2.44929e-16 0
      vertex -3.8637 1.03528 0
      vertex -3.81487 1.20282 0
    endloop
  endfacet
  facet normal 0 0 -1
    outer loop
      vertex -3.99619 0.174478 0
      vertex -3.98478 0.348623 0
      vertex 0 2.44929e-16 0
    endloop
  endfacet
  facet normal 0 0 -1
    outer loop
      vertex -3.98478 0.348623 0
      vertex -3.96578 0.522105 0
      vertex 0 2.44929e-16 0
    endloop
  endfacet
  facet normal 0 0 -1
    outer loop
      vertex 0 2.44929e-16 0
      vertex -3.96578 0.522105 0
      vertex -3.93923 0.694593 0
    endloop
  endfacet
  facet normal 0 0 -1
    outer loop
      vertex -3.98478 -0.348623 0
      vertex -3.99619 -0.174478 0
      vertex 0 2.44929e-16 0
    endloop
  endfacet
  facet normal 0 0 -1
    outer loop
      vertex -3.99619 -0.174478 0
      vertex -4 2.44929e-16 0
      vertex 0 2.44929e-16 0
    endloop
  endfacet
  facet normal 0 0 -1
    outer loop
      vertex 0 2.44929e-16 0
      vertex -4 2.44929e-16 0
      vertex -3.99619 0.174478 0
    endloop
  endfacet
  facet normal 0 0 -1
    outer loop
      vertex -3.90518 -0.865758 0
      vertex -3.93923 -0.694593 0
      vertex 0 2.44929e-16 0
    endloop
  endfacet
  facet normal 0 0 -1
    outer loop
      vertex -3.93923 -0.694593 0
      vertex -3.96578 -0.522105 0
      vertex 0 2.44929e-16 0
    endloop
  endfacet
  facet normal 0 0 -1
    outer loop
      vertex 0 2.44929e-16 0
      vertex -3.96578 -0.522105 0
      vertex -3.98478 -0.348623 0
    endloop
  endfacet
  facet normal 0 0 -1
    outer loop
      vertex -3.75877 -1.36808 0
      vertex -3.81487 -1.20282 0
      vertex 0 2.44929e-16 0
    endloop
  endfacet
  facet normal 0 0 -1
    outer loop
      vertex -3.81487 -1.20282 0
      vertex -3.8637 -1.03528 0
      vertex 0 2.44929e-16 0
    endloop
  endfacet
  facet normal 0 0 -1
    outer loop
      vertex 0 2.44929e-16 0
      vertex -3.8637 -1.03528 0
      vertex -3.90518 -0.865758 0
    endloop
  endfacet
  facet normal 0 0 -1
    outer loop
      vertex -3.54804 -1.84699 0
      vertex -3.62523 -1.69047 0
      vertex 0 2.44929e-16 0
    endloop
  endfacet
  facet normal 0 0 -1
    outer loop
      vertex -3.62523 -1.69047 0
      vertex -3.69552 -1.53073 0
      vertex 0 2.44929e-16 0
    endloop
  endfacet
  facet normal 0 0 -1
    outer loop
      vertex 0 2.44929e-16 0
      vertex -3.69552 -1.53073 0
      vertex -3.75877 -1.36808 0
    endloop
  endfacet
  facet normal 0 0 -1
    outer loop
      vertex -3.27661 -2.29431 0
      vertex -3.37357 -2.1492 0
      vertex 0 2.44929e-16 0
    endloop
  endfacet
  facet normal 0 0 -1
    outer loop
      vertex -3.37357 -2.1492 0
      vertex -3.4641 -2 0
      vertex 0 2.44929e-16 0
    endloop
  endfacet
  facet normal 0 0 -1
    outer loop
      vertex 0 2.44929e-16 0
      vertex -3.4641 -2 0
      vertex -3.54804 -1.84699 0
    endloop
  endfacet
  facet normal 0 0 -1
    outer loop
      vertex -2.94911 -2.70236 0
      vertex -3.06418 -2.57115 0
      vertex 0 2.44929e-16 0
    endloop
  endfacet
  facet normal 0 0 -1
    outer loop
      vertex -3.06418 -2.57115 0
      vertex -3.17341 -2.43505 0
      vertex 0 2.44929e-16 0
    endloop
  endfacet
  facet normal 0 0 -1
    outer loop
      vertex 0 2.44929e-16 0
      vertex -3.17341 -2.43505 0
      vertex -3.27661 -2.29431 0
    endloop
  endfacet
  facet normal 0 0 -1
    outer loop
      vertex -2.57115 -3.06418 0
      vertex -2.70236 -2.94911 0
      vertex 0 2.44929e-16 0
    endloop
  endfacet
  facet normal 0 0 -1
    outer loop
      vertex -2.70236 -2.94911 0
      vertex -2.82843 -2.82843 0
      vertex 0 2.44929e-16 0
    endloop
  endfacet
  facet normal 0 0 -1
    outer loop
      vertex 0 2.44929e-16 0
      vertex -2.82843 -2.82843 0
      vertex -2.94911 -2.70236 0
    endloop
  endfacet
  facet normal 0 0 -1
    outer loop
      vertex -2.1492 -3.37357 0
      vertex -2.29431 -3.27661 0
      vertex 0 2.44929e-16 0
    endloop
  endfacet
  facet normal 0 0 -1
    outer loop
      vertex -2.29431 -3.27661 0
      vertex -2.43505 -3.17341 0
      vertex 0 2.44929e-16 0
    endloop
  endfacet
  facet normal 0 0 -1
    outer loop
      vertex 0 2.44929e-16 0
      vertex -2.43505 -3.17341 0
      vertex -2.57115 -3.06418 0
    endloop
  endfacet
  facet normal 0 0 -1
    outer loop
      vertex -1.69047 -3.62523 0
      vertex -1.84699 -3.54804 0
      vertex 0 2.44929e-16 0
    endloop
  endfacet
  facet normal 0 0 -1
    outer loop
      vertex -1.84699 -3.54804 0
      vertex -2 -3.4641 0
      vertex 0 2.44929e-16 0
    endloop
  endfacet
  facet normal 0 0 -1
    outer loop
      vertex 0 2.44929e-16 0
      vertex -2 -3.4641 0
      vertex -2.1492 -3.37357 0
    endloop
  endfacet
  facet normal 0 0 -1
    outer loop
      vertex -1.20282 -3.81487 0
      vertex -1.36808 -3.75877 0
      vertex 0 2.44929e-16 0
    endloop
  endfacet
  facet normal 0 0 -1
    outer loop
      vertex -1.36808 -3.75877 0
      vertex -1.53073 -3.69552 0
      vertex 0 2.44929e-16 0
    endloop
  endfacet
  facet normal 0 0 -1
    outer loop
      vertex 0 2.44929e-16 0
      vertex -1.53073 -3.69552 0
      vertex -1.69047 -3.62523 0
    endloop
  endfacet
  facet normal 0 0 -1
    outer loop
      vertex -0.694593 -3.93923 0
      vertex -0.865758 -3.90518 0
      vertex 0 2.44929e-16 0
    endloop
  endfacet
  facet normal 0 0 -1
    outer loop
      vertex -0.865758 -3.90518 0
      vertex -1.03528 -3.8637 0
      vertex 0 2.44929e-16 0
    endloop
  endfacet
  facet normal 0 0 -1
    outer loop
      vertex 0 2.44929e-16 0
      vertex -1.03528 -3.8637 0
      vertex -1.20282 -3.81487 0
    endloop
  endfacet
  facet normal 0 0 -1
    outer loop
      vertex -0.174478 -3.99619 0
      vertex -0.348623 -3.98478 0
      vertex 0 2.44929e-16 0
    endloop
  endfacet
  facet normal 0 0 -1
    outer loop
      vertex -0.348623 -3.98478 0
      vertex -0.522105 -3.96578 0
      vertex 0 2.44929e-16 0
    endloop
  endfacet
  facet normal 0 0 -1
    outer loop
      vertex 0 2.44929e-16 0
      vertex -0.522105 -3.96578 0
      vertex -0.694593 -3.93923 0
    endloop
  endfacet
  facet normal 0 0 -1
    outer loop
      vertex 0.348623 -3.98478 0
      vertex 0.174478 -3.99619 0
      vertex 0 2.44929e-16 0
    endloop
  endfacet
  facet normal 0 0 -1
    outer loop
      vertex 0.174478 -3.99619 0
      vertex 7.34788e-16 -4 0
      vertex 0 2.44929e-16 0
    endloop
  endfacet
  facet normal 0 0 -1
    outer loop
      vertex 0 2.44929e-16 0
      vertex 7.34788e-16 -4 0
      vertex -0.174478 -3.99619 0
    endloop
  endfacet
  facet normal 0 0 -1
    outer loop
      vertex 0.865758 -3.90518 0
      vertex 0.694593 -3.93923 0
      vertex 0 2.44929e-16 0
    endloop
  endfacet
  facet normal 0 0 -1
    outer loop
      vertex 0.694593 -3.93923 0
      vertex 0.522105 -3.96578 0
      vertex 0 2.44929e-16 0
    endloop
  endfacet
  facet normal 0 0 -1
    outer loop
      vertex 0 2.44929e-16 0
      vertex 0.522105 -3.96578 0
      vertex 0.348623 -3.98478 0
    endloop
  endfacet
  facet normal 0 0 -1
    outer loop
      vertex 1.36808 -3.75877 0
      vertex 1.20282 -3.81487 0
      vertex 0 2.44929e-16 0
    endloop
  endfacet
  facet normal 0 0 -1
    outer loop
      vertex 1.20282 -3.81487 0
      vertex 1.03528 -3.8637 0
      vertex 0 2.44929e-16 0
    endloop
  endfacet
  facet normal 0 0 -1
    outer loop
      vertex 0 2.44929e-16 0
      vertex 1.03528 -3.8637 0
      vertex 0.865758 -3.90518 0
    endloop
  endfacet
  facet normal 0 0 -1
    outer loop
      vertex 1.84699 -3.54804 0
      vertex 1.69047 -3.62523 0
      vertex 0 2.44929e-16 0
    endloop
  endfacet
  facet normal 0 0 -1
    outer loop
      vertex 1.69047 -3.62523 0
      vertex 1.53073 -3.69552 0
      vertex 0 2.44929e-16 0
    endloop
  endfacet
  facet normal 0 0 -1
    outer loop
      vertex 0 2.44929e-16 0
      vertex 1.53073 -3.69552 0
      vertex 1.36808 -3.75877 0
    endloop
  endfacet
  facet normal 0 0 -1
    outer loop
      vertex 2.29431 -3.27661 0
      vertex 2.1492 -3.37357 0
      vertex 0 2.44929e-16 0
    endloop
  endfacet
  facet normal 0 0 -1
    outer loop
      vertex 2.1492 -3.37357 0
      vertex 2 -3.4641 0
      vertex 0 2.44929e-16 0
    endloop
  endfacet
  facet normal 0 0 -1
    outer loop
      vertex 0 2.44929e-16 0
      vertex 2 -3.4641 0
      vertex 1.84699 -3.54804 0
    endloop
  endfacet
  facet normal 0 0 -1
    outer loop
      vertex 2.70236 -2.94911 0
      vertex 2.57115 -3.06418 0
      vertex 0 2.44929e-16 0
    endloop
  endfacet
  facet normal 0 0 -1
    outer loop
      vertex 2.57115 -3.06418 0
      vertex 2.43505 -3.17341 0
      vertex 0 2.44929e-16 0
    endloop
  endfacet
  facet normal 0 0 -1
    outer loop
      vertex 0 2.44929e-16 0
      vertex 2.43505 -3.17341 0
      vertex 2.29431 -3.27661 0
    endloop
  endfacet
  facet normal 0 0 -1
    outer loop
      vertex 3.06418 -2.57115 0
      vertex 2.94911 -2.70236 0
      vertex 0 2.44929e-16 0
    endloop
  endfacet
  facet normal 0 0 -1
    outer loop
      vertex 2.94911 -2.70236 0
      vertex 2.82843 -2.82843 0
      vertex 0 2.44929e-16 0
    endloop
  endfacet
  facet normal 0 0 -1
    outer loop
      vertex 0 2.44929e-16 0
      vertex 2.82843 -2.82843 0
      vertex 2.70236 -2.94911 0
    endloop
  endfacet
  facet normal 0 0 -1
    outer loop
      vertex 3.37357 -2.1492 0
      vertex 3.27661 -2.29431 0
      vertex 0 2.44929e-16 0
    endloop
  endfacet
  facet normal 0 0 -1
    outer loop
      vertex 3.27661 -2.29431 0
      vertex 3.17341 -2.43505 0
      vertex 0 2.44929e-16 0
    endloop
  endfacet
  facet normal 0 0 -1
    outer loop
      vertex 0 2.44929e-16 0
      vertex 3.17341 -2.43505 0
      vertex 3.06418 -2.57115 0
    endloop
  endfacet
  facet normal 0 0 -1
    outer loop
      vertex 3.62523 -1.69047 0
      vertex 3.54804 -1.84699 0
      vertex 0 2.44929e-16 0
    endloop
  endfacet
  facet normal 0 0 -1
    outer loop
      vertex 3.54804 -1.84699 0
      vertex 3.4641 -2 0
      vertex 0 2.44929e-16 0
    endloop
  endfacet
  facet normal 0 0 -1
    outer loop
      vertex 0 2.44929e-16 0
      vertex 3.4641 -2 0
      vertex 3.37357 -2.1492 0
    endloop
  endfacet
  facet normal 0 0 -1
    outer loop
      vertex 3.81487 -1.20282 0
      vertex 3.75877 -1.36808 0
      vertex 0 2.44929e-16 0
    endloop
  endfacet
  facet normal 0 0 -1
    outer loop
      vertex 3.75877 -1.36808 0
      vertex 3.69552 -1.53073 0
      vertex 0 2.44929e-16 0
    endloop
  endfacet
  facet normal 0 0 -1
    outer loop
      vertex 0 2.44929e-16 0
      vertex 3.69552 -1.53073 0
      vertex 3.62523 -1.69047 0
    endloop
  endfacet
  facet normal 0 0 -1
    outer loop
      vertex 3.93923 -0.694593 0
      vertex 3.90518 -0.865758 0
      vertex 0 2.44929e-16 0
    endloop
  endfacet
  facet normal 0 0 -1
    outer loop
      vertex 3.90518 -0.865758 0
      vertex 3.8637 -1.03528 0
      vertex 0 2.44929e-16 0
    endloop
  endfacet
  facet normal 0 0 -1
    outer loop
      vertex 0 2.44929e-16 0
      vertex 3.8637 -1.03528 0
      vertex 3.81487 -1.20282 0
    endloop
  endfacet
  facet normal 0 0 -1
    outer loop
      vertex 3.99619 -0.174478 0
      vertex 3.98478 -0.348623 0
      vertex 0 2.44929e-16 0
    endloop
  endfacet
  facet normal 0 0 -1
    outer loop
      vertex 3.98478 -0.348623 0
      vertex 3.96578 -0.522105 0
      vertex 0 2.44929e-16 0
    endloop
  endfacet
  facet normal 0 0 -1
    outer loop
      vertex 0 2.44929e-16 0
      vertex 3.96578 -0.522105 0
      vertex 3.93923 -0.694593 0
    endloop
  endfacet
  facet normal -0.999762 0.0218156 0
    outer loop
      vertex -4 2.44929e-16 0
      vertex -3.99619 0.174478 150
      vertex -3.99619 0.174478 0
    endloop
  endfacet
  facet normal -0.997859 0.0654042 0
    outer loop
      vertex -3.99619 0.174478 150
      vertex -3.98478 0.348623 150
      vertex -3.99619 0.174478 0
    endloop
  endfacet
  facet normal -0.997859 0.0654042 0
    outer loop
      vertex -3.99619 0.174478 0
      vertex -3.98478 0.348623 150
      vertex -3.98478 0.348623 0
    endloop
  endfacet
  facet normal -0.994057 0.108865 0
    outer loop
      vertex -3.98478 0.348623 150
      vertex -3.96578 0.522105 150
      vertex -3.98478 0.348623 0
    endloop
  endfacet
  facet normal -0.994057 0.108865 0
    outer loop
      vertex -3.98478 0.348623 0
      vertex -3.96578 0.522105 150
      vertex -3.96578 0.522105 0
    endloop
  endfacet
  facet normal -0.988361 0.152125 0
    outer loop
      vertex -3.96578 0.522105 150
      vertex -3.93923 0.694593 150
      vertex -3.96578 0.522105 0
    endloop
  endfacet
  facet normal -0.988361 0.152125 0
    outer loop
      vertex -3.96578 0.522105 0
      vertex -3.93923 0.694593 150
      vertex -3.93923 0.694593 0
    endloop
  endfacet
  facet normal -0.980785 0.195089 0
    outer loop
      vertex -3.93923 0.694593 150
      vertex -3.90518 0.865758 150
      vertex -3.93923 0.694593 0
    endloop
  endfacet
  facet normal -0.980785 0.195089 0
    outer loop
      vertex -3.93923 0.694593 0
      vertex -3.90518 0.865758 150
      vertex -3.90518 0.865758 0
    endloop
  endfacet
  facet normal -0.971342 0.237687 0
    outer loop
      vertex -3.90518 0.865758 150
      vertex -3.8637 1.03528 150
      vertex -3.90518 0.865758 0
    endloop
  endfacet
  facet normal -0.971342 0.237687 0
    outer loop
      vertex -3.90518 0.865758 0
      vertex -3.8637 1.03528 150
      vertex -3.8637 1.03528 0
    endloop
  endfacet
  facet normal -0.96005 0.279829 0
    outer loop
      vertex -3.8637 1.03528 150
      vertex -3.81487 1.20282 150
      vertex -3.8637 1.03528 0
    endloop
  endfacet
  facet normal -0.96005 0.279829 0
    outer loop
      vertex -3.8637 1.03528 0
      vertex -3.81487 1.20282 150
      vertex -3.81487 1.20282 0
    endloop
  endfacet
  facet normal -0.94693 0.321439 0
    outer loop
      vertex -3.81487 1.20282 150
      vertex -3.75877 1.36808 150
      vertex -3.81487 1.20282 0
    endloop
  endfacet
  facet normal -0.94693 0.321439 0
    outer loop
      vertex -3.81487 1.20282 0
      vertex -3.75877 1.36808 150
      vertex -3.75877 1.36808 0
    endloop
  endfacet
  facet normal -0.932008 0.362437 0
    outer loop
      vertex -3.75877 1.36808 150
      vertex -3.69552 1.53073 150
      vertex -3.75877 1.36808 0
    endloop
  endfacet
  facet normal -0.932008 0.362437 0
    outer loop
      vertex -3.75877 1.36808 0
      vertex -3.69552 1.53073 150
      vertex -3.69552 1.53073 0
    endloop
  endfacet
  facet normal -0.915311 0.402748 0
    outer loop
      vertex -3.69552 1.53073 150
      vertex -3.62523 1.69047 150
      vertex -3.69552 1.53073 0
    endloop
  endfacet
  facet normal -0.915311 0.402748 0
    outer loop
      vertex -3.69552 1.53073 0
      vertex -3.62523 1.69047 150
      vertex -3.62523 1.69047 0
    endloop
  endfacet
  facet normal -0.896873 0.442288 0
    outer loop
      vertex -3.62523 1.69047 150
      vertex -3.54804 1.84699 150
      vertex -3.62523 1.69047 0
    endloop
  endfacet
  facet normal -0.896873 0.442288 0
    outer loop
      vertex -3.62523 1.69047 0
      vertex -3.54804 1.84699 150
      vertex -3.54804 1.84699 0
    endloop
  endfacet
  facet normal -0.876727 0.480989 0
    outer loop
      vertex -3.54804 1.84699 150
      vertex -3.4641 2 150
      vertex -3.54804 1.84699 0
    endloop
  endfacet
  facet normal -0.876727 0.480989 0
    outer loop
      vertex -3.54804 1.84699 0
      vertex -3.4641 2 150
      vertex -3.4641 2 0
    endloop
  endfacet
  facet normal -0.854912 0.518773 0
    outer loop
      vertex -3.4641 2 150
      vertex -3.37357 2.1492 150
      vertex -3.4641 2 0
    endloop
  endfacet
  facet normal -0.854912 0.518773 0
    outer loop
      vertex -3.4641 2 0
      vertex -3.37357 2.1492 150
      vertex -3.37357 2.1492 0
    endloop
  endfacet
  facet normal -0.831469 0.555571 0
    outer loop
      vertex -3.37357 2.1492 150
      vertex -3.27661 2.29431 150
      vertex -3.37357 2.1492 0
    endloop
  endfacet
  facet normal -0.831469 0.555571 0
    outer loop
      vertex -3.37357 2.1492 0
      vertex -3.27661 2.29431 150
      vertex -3.27661 2.29431 0
    endloop
  endfacet
  facet normal -0.806445 0.591309 0
    outer loop
      vertex -3.27661 2.29431 150
      vertex -3.17341 2.43505 150
      vertex -3.27661 2.29431 0
    endloop
  endfacet
  facet normal -0.806445 0.591309 0
    outer loop
      vertex -3.27661 2.29431 0
      vertex -3.17341 2.43505 150
      vertex -3.17341 2.43505 0
    endloop
  endfacet
  facet normal -0.779884 0.625924 0
    outer loop
      vertex -3.17341 2.43505 150
      vertex -3.06418 2.57115 150
      vertex -3.17341 2.43505 0
    endloop
  endfacet
  facet normal -0.779884 0.625924 0
    outer loop
      vertex -3.17341 2.43505 0
      vertex -3.06418 2.57115 150
      vertex -3.06418 2.57115 0
    endloop
  endfacet
  facet normal -0.75184 0.659346 0
    outer loop
      vertex -3.06418 2.57115 150
      vertex -2.94911 2.70236 150
      vertex -3.06418 2.57115 0
    endloop
  endfacet
  facet normal -0.75184 0.659346 0
    outer loop
      vertex -3.06418 2.57115 0
      vertex -2.94911 2.70236 150
      vertex -2.94911 2.70236 0
    endloop
  endfacet
  facet normal -0.722364 0.691513 0
    outer loop
      vertex -2.94911 2.70236 150
      vertex -2.82843 2.82843 150
      vertex -2.94911 2.70236 0
    endloop
  endfacet
  facet normal -0.722364 0.691513 0
    outer loop
      vertex -2.94911 2.70236 0
      vertex -2.82843 2.82843 150
      vertex -2.82843 2.82843 0
    endloop
  endfacet
  facet normal -0.691513 0.722364 0
    outer loop
      vertex -2.82843 2.82843 150
      vertex -2.70236 2.94911 150
      vertex -2.82843 2.82843 0
    endloop
  endfacet
  facet normal -0.691513 0.722364 0
    outer loop
      vertex -2.82843 2.82843 0
      vertex -2.70236 2.94911 150
      vertex -2.70236 2.94911 0
    endloop
  endfacet
  facet normal -0.659346 0.75184 0
    outer loop
      vertex -2.70236 2.94911 150
      vertex -2.57115 3.06418 150
      vertex -2.70236 2.94911 0
    endloop
  endfacet
  facet normal -0.659346 0.75184 0
    outer loop
      vertex -2.70236 2.94911 0
      vertex -2.57115 3.06418 150
      vertex -2.57115 3.06418 0
    endloop
  endfacet
  facet normal -0.625924 0.779884 0
    outer loop
      vertex -2.57115 3.06418 150
      vertex -2.43505 3.17341 150
      vertex -2.57115 3.06418 0
    endloop
  endfacet
  facet normal -0.625924 0.779884 0
    outer loop
      vertex -2.57115 3.06418 0
      vertex -2.43505 3.17341 150
      vertex -2.43505 3.17341 0
    endloop
  endfacet
  facet normal -0.591309 0.806445 0
    outer loop
      vertex -2.43505 3.17341 150
      vertex -2.29431 3.27661 150
      vertex -2.43505 3.17341 0
    endloop
  endfacet
  facet normal -0.591309 0.806445 0
    outer loop
      vertex -2.43505 3.17341 0
      vertex -2.29431 3.27661 150
      vertex -2.29431 3.27661 0
    endloop
  endfacet
  facet normal -0.555571 0.831469 0
    outer loop
      vertex -2.29431 3.27661 150
      vertex -2.1492 3.37357 150
      vertex -2.29431 3.27661 0
    endloop
  endfacet
  facet normal -0.555571 0.831469 0
    outer loop
      vertex -2.29431 3.27661 0
      vertex -2.1492 3.37357 150
      vertex -2.1492 3.37357 0
    endloop
  endfacet
  facet normal -0.518773 0.854912 0
    outer loop
      vertex -2.1492 3.37357 150
      vertex -2 3.4641 150
      vertex -2.1492 3.37357 0
    endloop
  endfacet
  facet normal -0.518773 0.854912 0
    outer loop
      vertex -2.1492 3.37357 0
      vertex -2 3.4641 150
      vertex -2 3.4641 0
    endloop
  endfacet
  facet normal -0.480989 0.876727 0
    outer loop
      vertex -2 3.4641 150
      vertex -1.84699 3.54804 150
      vertex -2 3.4641 0
    endloop
  endfacet
  facet normal -0.480989 0.876727 0
    outer loop
      vertex -2 3.4641 0
      vertex -1.84699 3.54804 150
      vertex -1.84699 3.54804 0
    endloop
  endfacet
  facet normal -0.442288 0.896873 0
    outer loop
      vertex -1.84699 3.54804 150
      vertex -1.69047 3.62523 150
      vertex -1.84699 3.54804 0
    endloop
  endfacet
  facet normal -0.442288 0.896873 0
    outer loop
      vertex -1.84699 3.54804 0
      vertex -1.69047 3.62523 150
      vertex -1.69047 3.62523 0
    endloop
  endfacet
  facet normal -0.402748 0.915311 0
    outer loop
      vertex -1.69047 3.62523 150
      vertex -1.53073 3.69552 150
      vertex -1.69047 3.62523 0
    endloop
  endfacet
  facet normal -0.402748 0.915311 0
    outer loop
      vertex -1.69047 3.62523 0
      vertex -1.53073 3.69552 150
      vertex -1.53073 3.69552 0
    endloop
  endfacet
  facet normal -0.362437 0.932008 0
    outer loop
      vertex -1.53073 3.69552 150
      vertex -1.36808 3.75877 150
      vertex -1.53073 3.69552 0
    endloop
  endfacet
  facet normal -0.362437 0.932008 0
    outer loop
      vertex -1.53073 3.69552 0
      vertex -1.36808 3.75877 150
      vertex -1.36808 3.75877 0
    endloop
  endfacet
  facet normal -0.321439 0.94693 0
    outer loop
      vertex -1.36808 3.75877 150
      vertex -1.20282 3.81487 150
      vertex -1.36808 3.75877 0
    endloop
  endfacet
  facet normal -0.321439 0.94693 0
    outer loop
      vertex -1.36808 3.75877 0
      vertex -1.20282 3.81487 150
      vertex -1.20282 3.81487 0
    endloop
  endfacet
  facet normal -0.279829 0.96005 0
    outer loop
      vertex -1.20282 3.81487 150
      vertex -1.03528 3.8637 150
      vertex -1.20282 3.81487 0
    endloop
  endfacet
  facet normal -0.279829 0.96005 0
    outer loop
      vertex -1.20282 3.81487 0
      vertex -1.03528 3.8637 150
      vertex -1.03528 3.8637 0
    endloop
  endfacet
  facet normal -0.237687 0.971342 0
    outer loop
      vertex -1.03528 3.8637 150
      vertex -0.865758 3.90518 150
      vertex -1.03528 3.8637 0
    endloop
  endfacet
  facet normal -0.237687 0.971342 0
    outer loop
      vertex -1.03528 3.8637 0
      vertex -0.865758 3.90518 150
      vertex -0.865758 3.90518 0
    endloop
  endfacet
  facet normal -0.195089 0.980785 0
    outer loop
      vertex -0.865758 3.90518 150
      vertex -0.694593 3.93923 150
      vertex -0.865758 3.90518 0
    endloop
  endfacet
  facet normal -0.195089 0.980785 0
    outer loop
      vertex -0.865758 3.90518 0
      vertex -0.694593 3.93923 150
      vertex -0.694593 3.93923 0
    endloop
  endfacet
  facet normal -0.152125 0.988361 0
    outer loop
      vertex -0.694593 3.93923 150
      vertex -0.522105 3.96578 150
      vertex -0.694593 3.93923 0
    endloop
  endfacet
  facet normal -0.152125 0.988361 0
    outer loop
      vertex -0.694593 3.93923 0
      vertex -0.522105 3.96578 150
      vertex -0.522105 3.96578 0
    endloop
  endfacet
  facet normal -0.108865 0.994057 0
    outer loop
      vertex -0.522105 3.96578 150
      vertex -0.348623 3.98478 150
      vertex -0.522105 3.96578 0
    endloop
  endfacet
  facet normal -0.108865 0.994057 0
    outer loop
      vertex -0.522105 3.96578 0
      vertex -0.348623 3.98478 150
      vertex -0.348623 3.98478 0
    endloop
  endfacet
  facet normal -0.0654042 0.997859 0
    outer loop
      vertex -0.348623 3.98478 150
      vertex -0.174478 3.99619 150
      vertex -0.348623 3.98478 0
    endloop
  endfacet
  facet normal -0.0654042 0.997859 0
    outer loop
      vertex -0.348623 3.98478 0
      vertex -0.174478 3.99619 150
      vertex -0.174478 3.99619 0
    endloop
  endfacet
  facet normal -0.0218156 0.999762 0
    outer loop
      vertex -0.174478 3.99619 150
      vertex -2.44929e-16 4 150
      vertex -0.174478 3.99619 0
    endloop
  endfacet
  facet normal -0.0218156 0.999762 0
    outer loop
      vertex -0.174478 3.99619 0
      vertex -2.44929e-16 4 150
      vertex -2.44929e-16 4 0
    endloop
  endfacet
  facet normal 0.0218156 0.999762 0
    outer loop
      vertex -2.44929e-16 4 150
      vertex 0.174478 3.99619 150
      vertex -2.44929e-16 4 0
    endloop
  endfacet
  facet normal 0.0218156 0.999762 0
    outer loop
      vertex -2.44929e-16 4 0
      vertex 0.174478 3.99619 150
      vertex 0.174478 3.99619 0
    endloop
  endfacet
  facet normal 0.0654042 0.997859 0
    outer loop
      vertex 0.174478 3.99619 150
      vertex 0.348623 3.98478 150
      vertex 0.174478 3.99619 0
    endloop
  endfacet
  facet normal 0.0654042 0.997859 0
    outer loop
      vertex 0.174478 3.99619 0
      vertex 0.348623 3.98478 150
      vertex 0.348623 3.98478 0
    endloop
  endfacet
  facet normal 0.108865 0.994057 0
    outer loop
      vertex 0.348623 3.98478 150
      vertex 0.522105 3.96578 150
      vertex 0.348623 3.98478 0
    endloop
  endfacet
  facet normal 0.108865 0.994057 0
    outer loop
      vertex 0.348623 3.98478 0
      vertex 0.522105 3.96578 150
      vertex 0.522105 3.96578 0
    endloop
  endfacet
  facet normal 0.152125 0.988361 0
    outer loop
      vertex 0.522105 3.96578 150
      vertex 0.694593 3.93923 150
      vertex 0.522105 3.96578 0
    endloop
  endfacet
  facet normal 0.152125 0.988361 0
    outer loop
      vertex 0.522105 3.96578 0
      vertex 0.694593 3.93923 150
      vertex 0.694593 3.93923 0
    endloop
  endfacet
  facet normal 0.195089 0.980785 0
    outer loop
      vertex 0.694593 3.93923 150
      vertex 0.865758 3.90518 150
      vertex 0.694593 3.93923 0
    endloop
  endfacet
  facet normal 0.195089 0.980785 0
    outer loop
      vertex 0.694593 3.93923 0
      vertex 0.865758 3.90518 150
      vertex 0.865758 3.90518 0
    endloop
  endfacet
  facet normal 0.237687 0.971342 0
    outer loop
      vertex 0.865758 3.90518 150
      vertex 1.03528 3.8637 150
      vertex 0.865758 3.90518 0
    endloop
  endfacet
  facet normal 0.237687 0.971342 0
    outer loop
      vertex 0.865758 3.90518 0
      vertex 1.03528 3.8637 150
      vertex 1.03528 3.8637 0
    endloop
  endfacet
  facet normal 0.279829 0.96005 0
    outer loop
      vertex 1.03528 3.8637 150
      vertex 1.20282 3.81487 150
      vertex 1.03528 3.8637 0
    endloop
  endfacet
  facet normal 0.279829 0.96005 0
    outer loop
      vertex 1.03528 3.8637 0
      vertex 1.20282 3.81487 150
      vertex 1.20282 3.81487 0
    endloop
  endfacet
  facet normal 0.321439 0.94693 0
    outer loop
      vertex 1.20282 3.81487 150
      vertex 1.36808 3.75877 150
      vertex 1.20282 3.81487 0
    endloop
  endfacet
  facet normal 0.321439 0.94693 0
    outer loop
      vertex 1.20282 3.81487 0
      vertex 1.36808 3.75877 150
      vertex 1.36808 3.75877 0
    endloop
  endfacet
  facet normal 0.362437 0.932008 0
    outer loop
      vertex 1.36808 3.75877 150
      vertex 1.53073 3.69552 150
      vertex 1.36808 3.75877 0
    endloop
  endfacet
  facet normal 0.362437 0.932008 0
    outer loop
      vertex 1.36808 3.75877 0
      vertex 1.53073 3.69552 150
      vertex 1.53073 3.69552 0
    endloop
  endfacet
  facet normal 0.402748 0.915311 0
    outer loop
      vertex 1.53073 3.69552 150
      vertex 1.69047 3.62523 150
      vertex 1.53073 3.69552 0
    endloop
  endfacet
  facet normal 0.402748 0.915311 0
    outer loop
      vertex 1.53073 3.69552 0
      vertex 1.69047 3.62523 150
      vertex 1.69047 3.62523 0
    endloop
  endfacet
  facet normal 0.442288 0.896873 0
    outer loop
      vertex 1.69047 3.62523 150
      vertex 1.84699 3.54804 150
      vertex 1.69047 3.62523 0
    endloop
  endfacet
  facet normal 0.442288 0.896873 0
    outer loop
      vertex 1.69047 3.62523 0
      vertex 1.84699 3.54804 150
      vertex 1.84699 3.54804 0
    endloop
  endfacet
  facet normal 0.480989 0.876727 0
    outer loop
      vertex 1.84699 3.54804 150
      vertex 2 3.4641 150
      vertex 1.84699 3.54804 0
    endloop
  endfacet
  facet normal 0.480989 0.876727 0
    outer loop
      vertex 1.84699 3.54804 0
      vertex 2 3.4641 150
      vertex 2 3.4641 0
    endloop
  endfacet
  facet normal 0.518773 0.854912 0
    outer loop
      vertex 2 3.4641 150
      vertex 2.1492 3.37357 150
      vertex 2 3.4641 0
    endloop
  endfacet
  facet normal 0.518773 0.854912 0
    outer loop
      vertex 2 3.4641 0
      vertex 2.1492 3.37357 150
      vertex 2.1492 3.37357 0
    endloop
  endfacet
  facet normal 0.555571 0.831469 0
    outer loop
      vertex 2.1492 3.37357 150
      vertex 2.29431 3.27661 150
      vertex 2.1492 3.37357 0
    endloop
  endfacet
  facet normal 0.555571 0.831469 0
    outer loop
      vertex 2.1492 3.37357 0
      vertex 2.29431 3.27661 150
      vertex 2.29431 3.27661 0
    endloop
  endfacet
  facet normal 0.591309 0.806445 0
    outer loop
      vertex 2.29431 3.27661 150
      vertex 2.43505 3.17341 150
      vertex 2.29431 3.27661 0
    endloop
  endfacet
  facet normal 0.591309 0.806445 0
    outer loop
      vertex 2.29431 3.27661 0
      vertex 2.43505 3.17341 150
      vertex 2.43505 3.17341 0
    endloop
  endfacet
  facet normal 0.625924 0.779884 0
    outer loop
      vertex 2.43505 3.17341 150
      vertex 2.57115 3.06418 150
      vertex 2.43505 3.17341 0
    endloop
  endfacet
  facet normal 0.625924 0.779884 0
    outer loop
      vertex 2.43505 3.17341 0
      vertex 2.57115 3.06418 150
      vertex 2.57115 3.06418 0
    endloop
  endfacet
  facet normal 0.659346 0.75184 0
    outer loop
      vertex 2.57115 3.06418 150
      vertex 2.70236 2.94911 150
      vertex 2.57115 3.06418 0
    endloop
  endfacet
  facet normal 0.659346 0.75184 0
    outer loop
      vertex 2.57115 3.06418 0
      vertex 2.70236 2.94911 150
      vertex 2.70236 2.94911 0
    endloop
  endfacet
  facet normal 0.691513 0.722364 0
    outer loop
      vertex 2.70236 2.94911 150
      vertex 2.82843 2.82843 150
      vertex 2.70236 2.94911 0
    endloop
  endfacet
  facet normal 0.691513 0.722364 0
    outer loop
      vertex 2.70236 2.94911 0
      vertex 2.82843 2.82843 150
      vertex 2.82843 2.82843 0
    endloop
  endfacet
  facet normal 0.722364 0.691513 0
    outer loop
      vertex 2.82843 2.82843 150
      vertex 2.94911 2.70236 150
      vertex 2.82843 2.82843 0
    endloop
  endfacet
  facet normal 0.722364 0.691513 0
    outer loop
      vertex 2.82843 2.82843 0
      vertex 2.94911 2.70236 150
      vertex 2.94911 2.70236 0
    endloop
  endfacet
  facet normal 0.75184 0.659346 0
    outer loop
      vertex 2.94911 2.70236 150
      vertex 3.06418 2.57115 150
      vertex 2.94911 2.70236 0
    endloop
  endfacet
  facet normal 0.75184 0.659346 0
    outer loop
      vertex 2.94911 2.70236 0
      vertex 3.06418 2.57115 150
      vertex 3.06418 2.57115 0
    endloop
  endfacet
  facet normal 0.779884 0.625924 0
    outer loop
      vertex 3.06418 2.57115 150
      vertex 3.17341 2.43505 150
      vertex 3.06418 2.57115 0
    endloop
  endfacet
  facet normal 0.779884 0.625924 0
    outer loop
      vertex 3.06418 2.57115 0
      vertex 3.17341 2.43505 150
      vertex 3.17341 2.43505 0
    endloop
  endfacet
  facet normal 0.806445 0.591309 0
    outer loop
      vertex 3.17341 2.43505 150
      vertex 3.27661 2.29431 150
      vertex 3.17341 2.43505 0
    endloop
  endfacet
  facet normal 0.806445 0.591309 0
    outer loop
      vertex 3.17341 2.43505 0
      vertex 3.27661 2.29431 150
      vertex 3.27661 2.29431 0
    endloop
  endfacet
  facet normal 0.831469 0.555571 0
    outer loop
      vertex 3.27661 2.29431 150
      vertex 3.37357 2.1492 150
      vertex 3.27661 2.29431 0
    endloop
  endfacet
  facet normal 0.831469 0.555571 0
    outer loop
      vertex 3.27661 2.29431 0
      vertex 3.37357 2.1492 150
      vertex 3.37357 2.1492 0
    endloop
  endfacet
  facet normal 0.854912 0.518773 0
    outer loop
      vertex 3.37357 2.1492 150
      vertex 3.4641 2 150
      vertex 3.37357 2.1492 0
    endloop
  endfacet
  facet normal 0.854912 0.518773 0
    outer loop
      vertex 3.37357 2.1492 0
      vertex 3.4641 2 150
      vertex 3.4641 2 0
    endloop
  endfacet
  facet normal 0.876727 0.480989 0
    outer loop
      vertex 3.4641 2 150
      vertex 3.54804 1.84699 150
      vertex 3.4641 2 0
    endloop
  endfacet
  facet normal 0.876727 0.480989 0
    outer loop
      vertex 3.4641 2 0
      vertex 3.54804 1.84699 150
      vertex 3.54804 1.84699 0
    endloop
  endfacet
  facet normal 0.896873 0.442288 0
    outer loop
      vertex 3.54804 1.84699 150
      vertex 3.62523 1.69047 150
      vertex 3.54804 1.84699 0
    endloop
  endfacet
  facet normal 0.896873 0.442288 0
    outer loop
      vertex 3.54804 1.84699 0
      vertex 3.62523 1.69047 150
      vertex 3.62523 1.69047 0
    endloop
  endfacet
  facet normal 0.915311 0.402748 0
    outer loop
      vertex 3.62523 1.69047 150
      vertex 3.69552 1.53073 150
      vertex 3.62523 1.69047 0
    endloop
  endfacet
  facet normal 0.915311 0.402748 0
    outer loop
      vertex 3.62523 1.69047 0
      vertex 3.69552 1.53073 150
      vertex 3.69552 1.53073 0
    endloop
  endfacet
  facet normal 0.932008 0.362437 0
    outer loop
      vertex 3.69552 1.53073 150
      vertex 3.75877 1.36808 150
      vertex 3.69552 1.53073 0
    endloop
  endfacet
  facet normal 0.932008 0.362437 0
    outer loop
      vertex 3.69552 1.53073 0
      vertex 3.75877 1.36808 150
      vertex 3.75877 1.36808 0
    endloop
  endfacet
  facet normal 0.94693 0.321439 0
    outer loop
      vertex 3.75877 1.36808 150
      vertex 3.81487 1.20282 150
      vertex 3.75877 1.36808 0
    endloop
  endfacet
  facet normal 0.94693 0.321439 0
    outer loop
      vertex 3.75877 1.36808 0
      vertex 3.81487 1.20282 150
      vertex 3.81487 1.20282 0
    endloop
  endfacet
  facet normal 0.96005 0.279829 0
    outer loop
      vertex 3.81487 1.20282 150
      vertex 3.8637 1.03528 150
      vertex 3.81487 1.20282 0
    endloop
  endfacet
  facet normal 0.96005 0.279829 0
    outer loop
      vertex 3.81487 1.20282 0
      vertex 3.8637 1.03528 150
      vertex 3.8637 1.03528 0
    endloop
  endfacet
  facet normal 0.971342 0.237687 0
    outer loop
      vertex 3.8637 1.03528 150
      vertex 3.90518 0.865758 150
      vertex 3.8637 1.03528 0
    endloop
  endfacet
  facet normal 0.971342 0.237687 0
    outer loop
      vertex 3.8637 1.03528 0
      vertex 3.90518 0.865758 150
      vertex 3.90518 0.865758 0
    endloop
  endfacet
  facet normal 0.980785 0.195089 0
    outer loop
      vertex 3.90518 0.865758 150
      vertex 3.93923 0.694593 150
      vertex 3.90518 0.865758 0
    endloop
  endfacet
  facet normal 0.980785 0.195089 0
    outer loop
      vertex 3.90518 0.865758 0
      vertex 3.93923 0.694593 150
      vertex 3.93923 0.694593 0
    endloop
  endfacet
  facet normal 0.988361 0.152125 0
    outer loop
      vertex 3.93923 0.694593 150
      vertex 3.96578 0.522105 150
      vertex 3.93923 0.694593 0
    endloop
  endfacet
  facet normal 0.988361 0.152125 0
    outer loop
      vertex 3.93923 0.694593 0
      vertex 3.96578 0.522105 150
      vertex 3.96578 0.522105 0
    endloop
  endfacet
  facet normal 0.994057 0.108865 0
    outer loop
      vertex 3.96578 0.522105 150
      vertex 3.98478 0.348623 150
      vertex 3.96578 0.522105 0
    endloop
  endfacet
  facet normal 0.994057 0.108865 0
    outer loop
      vertex 3.96578 0.522105 0
      vertex 3.98478 0.348623 150
      vertex 3.98478 0.348623 0
    endloop
  endfacet
  facet normal 0.997859 0.0654042 0
    outer loop
      vertex 3.98478 0.348623 150
      vertex 3.99619 0.174478 150
      vertex 3.98478 0.348623 0
    endloop
  endfacet
  facet normal 0.997859 0.0654042 0
    outer loop
      vertex 3.98478 0.348623 0
      vertex 3.99619 0.174478 150
      vertex 3.99619 0.174478 0
    endloop
  endfacet
  facet normal 0.999762 0.0218156 0
    outer loop
      vertex 3.99619 0.174478 150
      vertex 4 1.71451e-15 150
      vertex 3.99619 0.174478 0
    endloop
  endfacet
  facet normal 0.999762 0.0218156 -1.42193e-19
    outer loop
      vertex 3.99619 0.174478 0
      vertex 4 1.71451e-15 150
      vertex 4 7.34788e-16 0
    endloop
  endfacet
  facet normal 0.999762 -0.0218156 1.42488e-19
    outer loop
      vertex 4 1.71451e-15 150
      vertex 3.99619 -0.174478 150
      vertex 4 7.34788e-16 0
    endloop
  endfacet
  facet normal 0.999762 -0.0218156 0
    outer loop
      vertex 4 7.34788e-16 0
      vertex 3.99619 -0.174478 150
      vertex 3.99619 -0.174478 0
    endloop
  endfacet
  facet normal 0.997859 -0.0654042 0
    outer loop
      vertex 3.99619 -0.174478 150
      vertex 3.98478 -0.348623 150
      vertex 3.99619 -0.174478 0
    endloop
  endfacet
  facet normal 0.997859 -0.0654042 0
    outer loop
      vertex 3.99619 -0.174478 0
      vertex 3.98478 -0.348623 150
      vertex 3.98478 -0.348623 0
    endloop
  endfacet
  facet normal 0.994057 -0.108865 0
    outer loop
      vertex 3.98478 -0.348623 150
      vertex 3.96578 -0.522105 150
      vertex 3.98478 -0.348623 0
    endloop
  endfacet
  facet normal 0.994057 -0.108865 0
    outer loop
      vertex 3.98478 -0.348623 0
      vertex 3.96578 -0.522105 150
      vertex 3.96578 -0.522105 0
    endloop
  endfacet
  facet normal 0.988361 -0.152125 0
    outer loop
      vertex 3.96578 -0.522105 150
      vertex 3.93923 -0.694593 150
      vertex 3.96578 -0.522105 0
    endloop
  endfacet
  facet normal 0.988361 -0.152125 0
    outer loop
      vertex 3.96578 -0.522105 0
      vertex 3.93923 -0.694593 150
      vertex 3.93923 -0.694593 0
    endloop
  endfacet
  facet normal 0.980785 -0.195089 0
    outer loop
      vertex 3.93923 -0.694593 150
      vertex 3.90518 -0.865758 150
      vertex 3.93923 -0.694593 0
    endloop
  endfacet
  facet normal 0.980785 -0.195089 0
    outer loop
      vertex 3.93923 -0.694593 0
      vertex 3.90518 -0.865758 150
      vertex 3.90518 -0.865758 0
    endloop
  endfacet
  facet normal 0.971342 -0.237687 0
    outer loop
      vertex 3.90518 -0.865758 150
      vertex 3.8637 -1.03528 150
      vertex 3.90518 -0.865758 0
    endloop
  endfacet
  facet normal 0.971342 -0.237687 0
    outer loop
      vertex 3.90518 -0.865758 0
      vertex 3.8637 -1.03528 150
      vertex 3.8637 -1.03528 0
    endloop
  endfacet
  facet normal 0.96005 -0.279829 0
    outer loop
      vertex 3.8637 -1.03528 150
      vertex 3.81487 -1.20282 150
      vertex 3.8637 -1.03528 0
    endloop
  endfacet
  facet normal 0.96005 -0.279829 0
    outer loop
      vertex 3.8637 -1.03528 0
      vertex 3.81487 -1.20282 150
      vertex 3.81487 -1.20282 0
    endloop
  endfacet
  facet normal 0.94693 -0.321439 0
    outer loop
      vertex 3.81487 -1.20282 150
      vertex 3.75877 -1.36808 150
      vertex 3.81487 -1.20282 0
    endloop
  endfacet
  facet normal 0.94693 -0.321439 0
    outer loop
      vertex 3.81487 -1.20282 0
      vertex 3.75877 -1.36808 150
      vertex 3.75877 -1.36808 0
    endloop
  endfacet
  facet normal 0.932008 -0.362437 0
    outer loop
      vertex 3.75877 -1.36808 150
      vertex 3.69552 -1.53073 150
      vertex 3.75877 -1.36808 0
    endloop
  endfacet
  facet normal 0.932008 -0.362437 0
    outer loop
      vertex 3.75877 -1.36808 0
      vertex 3.69552 -1.53073 150
      vertex 3.69552 -1.53073 0
    endloop
  endfacet
  facet normal 0.915311 -0.402748 0
    outer loop
      vertex 3.69552 -1.53073 150
      vertex 3.62523 -1.69047 150
      vertex 3.69552 -1.53073 0
    endloop
  endfacet
  facet normal 0.915311 -0.402748 0
    outer loop
      vertex 3.69552 -1.53073 0
      vertex 3.62523 -1.69047 150
      vertex 3.62523 -1.69047 0
    endloop
  endfacet
  facet normal 0.896873 -0.442288 0
    outer loop
      vertex 3.62523 -1.69047 150
      vertex 3.54804 -1.84699 150
      vertex 3.62523 -1.69047 0
    endloop
  endfacet
  facet normal 0.896873 -0.442288 0
    outer loop
      vertex 3.62523 -1.69047 0
      vertex 3.54804 -1.84699 150
      vertex 3.54804 -1.84699 0
    endloop
  endfacet
  facet normal 0.876727 -0.480989 0
    outer loop
      vertex 3.54804 -1.84699 150
      vertex 3.4641 -2 150
      vertex 3.54804 -1.84699 0
    endloop
  endfacet
  facet normal 0.876727 -0.480989 0
    outer loop
      vertex 3.54804 -1.84699 0
      vertex 3.4641 -2 150
      vertex 3.4641 -2 0
    endloop
  endfacet
  facet normal 0.854912 -0.518773 0
    outer loop
      vertex 3.4641 -2 150
      vertex 3.37357 -2.1492 150
      vertex 3.4641 -2 0
    endloop
  endfacet
  facet normal 0.854912 -0.518773 0
    outer loop
      vertex 3.4641 -2 0
      vertex 3.37357 -2.1492 150
      vertex 3.37357 -2.1492 0
    endloop
  endfacet
  facet normal 0.831469 -0.555571 0
    outer loop
      vertex 3.37357 -2.1492 150
      vertex 3.27661 -2.29431 150
      vertex 3.37357 -2.1492 0
    endloop
  endfacet
  facet normal 0.831469 -0.555571 0
    outer loop
      vertex 3.37357 -2.1492 0
      vertex 3.27661 -2.29431 150
      vertex 3.27661 -2.29431 0
    endloop
  endfacet
  facet normal 0.806445 -0.591309 0
    outer loop
      vertex 3.27661 -2.29431 150
      vertex 3.17341 -2.43505 150
      vertex 3.27661 -2.29431 0
    endloop
  endfacet
  facet normal 0.806445 -0.591309 0
    outer loop
      vertex 3.27661 -2.29431 0
      vertex 3.17341 -2.43505 150
      vertex 3.17341 -2.43505 0
    endloop
  endfacet
  facet normal 0.779884 -0.625924 0
    outer loop
      vertex 3.17341 -2.43505 150
      vertex 3.06418 -2.57115 150
      vertex 3.17341 -2.43505 0
    endloop
  endfacet
  facet normal 0.779884 -0.625924 0
    outer loop
      vertex 3.17341 -2.43505 0
      vertex 3.06418 -2.57115 150
      vertex 3.06418 -2.57115 0
    endloop
  endfacet
  facet normal 0.75184 -0.659346 0
    outer loop
      vertex 3.06418 -2.57115 150
      vertex 2.94911 -2.70236 150
      vertex 3.06418 -2.57115 0
    endloop
  endfacet
  facet normal 0.75184 -0.659346 0
    outer loop
      vertex 3.06418 -2.57115 0
      vertex 2.94911 -2.70236 150
      vertex 2.94911 -2.70236 0
    endloop
  endfacet
  facet normal 0.722364 -0.691513 0
    outer loop
      vertex 2.94911 -2.70236 150
      vertex 2.82843 -2.82843 150
      vertex 2.94911 -2.70236 0
    endloop
  endfacet
  facet normal 0.722364 -0.691513 0
    outer loop
      vertex 2.94911 -2.70236 0
      vertex 2.82843 -2.82843 150
      vertex 2.82843 -2.82843 0
    endloop
  endfacet
  facet normal 0.691513 -0.722364 0
    outer loop
      vertex 2.82843 -2.82843 150
      vertex 2.70236 -2.94911 150
      vertex 2.82843 -2.82843 0
    endloop
  endfacet
  facet normal 0.691513 -0.722364 0
    outer loop
      vertex 2.82843 -2.82843 0
      vertex 2.70236 -2.94911 150
      vertex 2.70236 -2.94911 0
    endloop
  endfacet
  facet normal 0.659346 -0.75184 0
    outer loop
      vertex 2.70236 -2.94911 150
      vertex 2.57115 -3.06418 150
      vertex 2.70236 -2.94911 0
    endloop
  endfacet
  facet normal 0.659346 -0.75184 0
    outer loop
      vertex 2.70236 -2.94911 0
      vertex 2.57115 -3.06418 150
      vertex 2.57115 -3.06418 0
    endloop
  endfacet
  facet normal 0.625924 -0.779884 0
    outer loop
      vertex 2.57115 -3.06418 150
      vertex 2.43505 -3.17341 150
      vertex 2.57115 -3.06418 0
    endloop
  endfacet
  facet normal 0.625924 -0.779884 0
    outer loop
      vertex 2.57115 -3.06418 0
      vertex 2.43505 -3.17341 150
      vertex 2.43505 -3.17341 0
    endloop
  endfacet
  facet normal 0.591309 -0.806445 0
    outer loop
      vertex 2.43505 -3.17341 150
      vertex 2.29431 -3.27661 150
      vertex 2.43505 -3.17341 0
    endloop
  endfacet
  facet normal 0.591309 -0.806445 0
    outer loop
      vertex 2.43505 -3.17341 0
      vertex 2.29431 -3.27661 150
      vertex 2.29431 -3.27661 0
    endloop
  endfacet
  facet normal 0.555571 -0.831469 0
    outer loop
      vertex 2.29431 -3.27661 150
      vertex 2.1492 -3.37357 150
      vertex 2.29431 -3.27661 0
    endloop
  endfacet
  facet normal 0.555571 -0.831469 0
    outer loop
      vertex 2.29431 -3.27661 0
      vertex 2.1492 -3.37357 150
      vertex 2.1492 -3.37357 0
    endloop
  endfacet
  facet normal 0.518773 -0.854912 0
    outer loop
      vertex 2.1492 -3.37357 150
      vertex 2 -3.4641 150
      vertex 2.1492 -3.37357 0
    endloop
  endfacet
  facet normal 0.518773 -0.854912 0
    outer loop
      vertex 2.1492 -3.37357 0
      vertex 2 -3.4641 150
      vertex 2 -3.4641 0
    endloop
  endfacet
  facet normal 0.480989 -0.876727 0
    outer loop
      vertex 2 -3.4641 150
      vertex 1.84699 -3.54804 150
      vertex 2 -3.4641 0
    endloop
  endfacet
  facet normal 0.480989 -0.876727 0
    outer loop
      vertex 2 -3.4641 0
      vertex 1.84699 -3.54804 150
      vertex 1.84699 -3.54804 0
    endloop
  endfacet
  facet normal 0.442288 -0.896873 0
    outer loop
      vertex 1.84699 -3.54804 150
      vertex 1.69047 -3.62523 150
      vertex 1.84699 -3.54804 0
    endloop
  endfacet
  facet normal 0.442288 -0.896873 0
    outer loop
      vertex 1.84699 -3.54804 0
      vertex 1.69047 -3.62523 150
      vertex 1.69047 -3.62523 0
    endloop
  endfacet
  facet normal 0.402748 -0.915311 0
    outer loop
      vertex 1.69047 -3.62523 150
      vertex 1.53073 -3.69552 150
      vertex 1.69047 -3.62523 0
    endloop
  endfacet
  facet normal 0.402748 -0.915311 0
    outer loop
      vertex 1.69047 -3.62523 0
      vertex 1.53073 -3.69552 150
      vertex 1.53073 -3.69552 0
    endloop
  endfacet
  facet normal 0.362437 -0.932008 0
    outer loop
      vertex 1.53073 -3.69552 150
      vertex 1.36808 -3.75877 150
      vertex 1.53073 -3.69552 0
    endloop
  endfacet
  facet normal 0.362437 -0.932008 0
    outer loop
      vertex 1.53073 -3.69552 0
      vertex 1.36808 -3.75877 150
      vertex 1.36808 -3.75877 0
    endloop
  endfacet
  facet normal 0.321439 -0.94693 0
    outer loop
      vertex 1.36808 -3.75877 150
      vertex 1.20282 -3.81487 150
      vertex 1.36808 -3.75877 0
    endloop
  endfacet
  facet normal 0.321439 -0.94693 0
    outer loop
      vertex 1.36808 -3.75877 0
      vertex 1.20282 -3.81487 150
      vertex 1.20282 -3.81487 0
    endloop
  endfacet
  facet normal 0.279829 -0.96005 0
    outer loop
      vertex 1.20282 -3.81487 150
      vertex 1.03528 -3.8637 150
      vertex 1.20282 -3.81487 0
    endloop
  endfacet
  facet normal 0.279829 -0.96005 0
    outer loop
      vertex 1.20282 -3.81487 0
      vertex 1.03528 -3.8637 150
      vertex 1.03528 -3.8637 0
    endloop
  endfacet
  facet normal 0.237687 -0.971342 0
    outer loop
      vertex 1.03528 -3.8637 150
      vertex 0.865758 -3.90518 150
      vertex 1.03528 -3.8637 0
    endloop
  endfacet
  facet normal 0.237687 -0.971342 0
    outer loop
      vertex 1.03528 -3.8637 0
      vertex 0.865758 -3.90518 150
      vertex 0.865758 -3.90518 0
    endloop
  endfacet
  facet normal 0.195089 -0.980785 0
    outer loop
      vertex 0.865758 -3.90518 150
      vertex 0.694593 -3.93923 150
      vertex 0.865758 -3.90518 0
    endloop
  endfacet
  facet normal 0.195089 -0.980785 0
    outer loop
      vertex 0.865758 -3.90518 0
      vertex 0.694593 -3.93923 150
      vertex 0.694593 -3.93923 0
    endloop
  endfacet
  facet normal 0.152125 -0.988361 0
    outer loop
      vertex 0.694593 -3.93923 150
      vertex 0.522105 -3.96578 150
      vertex 0.694593 -3.93923 0
    endloop
  endfacet
  facet normal 0.152125 -0.988361 0
    outer loop
      vertex 0.694593 -3.93923 0
      vertex 0.522105 -3.96578 150
      vertex 0.522105 -3.96578 0
    endloop
  endfacet
  facet normal 0.108865 -0.994057 0
    outer loop
      vertex 0.522105 -3.96578 150
      vertex 0.348623 -3.98478 150
      vertex 0.522105 -3.96578 0
    endloop
  endfacet
  facet normal 0.108865 -0.994057 0
    outer loop
      vertex 0.522105 -3.96578 0
      vertex 0.348623 -3.98478 150
      vertex 0.348623 -3.98478 0
    endloop
  endfacet
  facet normal 0.0654042 -0.997859 0
    outer loop
      vertex 0.348623 -3.98478 150
      vertex 0.174478 -3.99619 150
      vertex 0.348623 -3.98478 0
    endloop
  endfacet
  facet normal 0.0654042 -0.997859 0
    outer loop
      vertex 0.348623 -3.98478 0
      vertex 0.174478 -3.99619 150
      vertex 0.174478 -3.99619 0
    endloop
  endfacet
  facet normal 0.0218156 -0.999762 0
    outer loop
      vertex 0.174478 -3.99619 150
      vertex 7.34788e-16 -4 150
      vertex 0.174478 -3.99619 0
    endloop
  endfacet
  facet normal 0.0218156 -0.999762 0
    outer loop
      vertex 0.174478 -3.99619 0
      vertex 7.34788e-16 -4 150
      vertex 7.34788e-16 -4 0
    endloop
  endfacet
  facet normal -0.0218156 -0.999762 0
    outer loop
      vertex 7.34788e-16 -4 150
      vertex -0.174478 -3.99619 150
      vertex 7.34788e-16 -4 0
    endloop
  endfacet
  facet normal -0.0218156 -0.999762 0
    outer loop
      vertex 7.34788e-16 -4 0
      vertex -0.174478 -3.99619 150
      vertex -0.174478 -3.99619 0
    endloop
  endfacet
  facet normal -0.0654042 -0.997859 0
    outer loop
      vertex -0.174478 -3.99619 150
      vertex -0.348623 -3.98478 150
      vertex -0.174478 -3.99619 0
    endloop
  endfacet
  facet normal -0.0654042 -0.997859 0
    outer loop
      vertex -0.174478 -3.99619 0
      vertex -0.348623 -3.98478 150
      vertex -0.348623 -3.98478 0
    endloop
  endfacet
  facet normal -0.108865 -0.994057 0
    outer loop
      vertex -0.348623 -3.98478 150
      vertex -0.522105 -3.96578 150
      vertex -0.348623 -3.98478 0
    endloop
  endfacet
  facet normal -0.108865 -0.994057 0
    outer loop
      vertex -0.348623 -3.98478 0
      vertex -0.522105 -3.96578 150
      vertex -0.522105 -3.96578 0
    endloop
  endfacet
  facet normal -0.152125 -0.988361 0
    outer loop
      vertex -0.522105 -3.96578 150
      vertex -0.694593 -3.93923 150
      vertex -0.522105 -3.96578 0
    endloop
  endfacet
  facet normal -0.152125 -0.988361 0
    outer loop
      vertex -0.522105 -3.96578 0
      vertex -0.694593 -3.93923 150
      vertex -0.694593 -3.93923 0
    endloop
  endfacet
  facet normal -0.195089 -0.980785 0
    outer loop
      vertex -0.694593 -3.93923 150
      vertex -0.865758 -3.90518 150
      vertex -0.694593 -3.93923 0
    endloop
  endfacet
  facet normal -0.195089 -0.980785 0
    outer loop
      vertex -0.694593 -3.93923 0
      vertex -0.865758 -3.90518 150
      vertex -0.865758 -3.90518 0
    endloop
  endfacet
  facet normal -0.237687 -0.971342 0
    outer loop
      vertex -0.865758 -3.90518 150
      vertex -1.03528 -3.8637 150
      vertex -0.865758 -3.90518 0
    endloop
  endfacet
  facet normal -0.237687 -0.971342 0
    outer loop
      vertex -0.865758 -3.90518 0
      vertex -1.03528 -3.8637 150
      vertex -1.03528 -3.8637 0
    endloop
  endfacet
  facet normal -0.279829 -0.96005 0
    outer loop
      vertex -1.03528 -3.8637 150
      vertex -1.20282 -3.81487 150
      vertex -1.03528 -3.8637 0
    endloop
  endfacet
  facet normal -0.279829 -0.96005 0
    outer loop
      vertex -1.03528 -3.8637 0
      vertex -1.20282 -3.81487 150
      vertex -1.20282 -3.81487 0
    endloop
  endfacet
  facet normal -0.321439 -0.94693 0
    outer loop
      vertex -1.20282 -3.81487 150
      vertex -1.36808 -3.75877 150
      vertex -1.20282 -3.81487 0
    endloop
  endfacet
  facet normal -0.321439 -0.94693 0
    outer loop
      vertex -1.20282 -3.81487 0
      vertex -1.36808 -3.75877 150
      vertex -1.36808 -3.75877 0
    endloop
  endfacet
  facet normal -0.362437 -0.932008 0
    outer loop
      vertex -1.36808 -3.75877 150
      vertex -1.53073 -3.69552 150
      vertex -1.36808 -3.75877 0
    endloop
  endfacet
  facet normal -0.362437 -0.932008 0
    outer loop
      vertex -1.36808 -3.75877 0
      vertex -1.53073 -3.69552 150
      vertex -1.53073 -3.69552 0
    endloop
  endfacet
  facet normal -0.402748 -0.915311 0
    outer loop
      vertex -1.53073 -3.69552 150
      vertex -1.69047 -3.62523 150
      vertex -1.53073 -3.69552 0
    endloop
  endfacet
  facet normal -0.402748 -0.915311 0
    outer loop
      vertex -1.53073 -3.69552 0
      vertex -1.69047 -3.62523 150
      vertex -1.69047 -3.62523 0
    endloop
  endfacet
  facet normal -0.442288 -0.896873 0
    outer loop
      vertex -1.69047 -3.62523 150
      vertex -1.84699 -3.54804 150
      vertex -1.69047 -3.62523 0
    endloop
  endfacet
  facet normal -0.442288 -0.896873 0
    outer loop
      vertex -1.69047 -3.62523 0
      vertex -1.84699 -3.54804 150
      vertex -1.84699 -3.54804 0
    endloop
  endfacet
  facet normal -0.480989 -0.876727 0
    outer loop
      vertex -1.84699 -3.54804 150
      vertex -2 -3.4641 150
      vertex -1.84699 -3.54804 0
    endloop
  endfacet
  facet normal -0.480989 -0.876727 0
    outer loop
      vertex -1.84699 -3.54804 0
      vertex -2 -3.4641 150
      vertex -2 -3.4641 0
    endloop
  endfacet
  facet normal -0.518773 -0.854912 0
    outer loop
      vertex -2 -3.4641 150
      vertex -2.1492 -3.37357 150
      vertex -2 -3.4641 0
    endloop
  endfacet
  facet normal -0.518773 -0.854912 0
    outer loop
      vertex -2 -3.4641 0
      vertex -2.1492 -3.37357 150
      vertex -2.1492 -3.37357 0
    endloop
  endfacet
  facet normal -0.555571 -0.831469 0
    outer loop
      vertex -2.1492 -3.37357 150
      vertex -2.29431 -3.27661 150
      vertex -2.1492 -3.37357 0
    endloop
  endfacet
  facet normal -0.555571 -0.831469 0
    outer loop
      vertex -2.1492 -3.37357 0
      vertex -2.29431 -3.27661 150
      vertex -2.29431 -3.27661 0
    endloop
  endfacet
  facet normal -0.591309 -0.806445 0
    outer loop
      vertex -2.29431 -3.27661 150
      vertex -2.43505 -3.17341 150
      vertex -2.29431 -3.27661 0
    endloop
  endfacet
  facet normal -0.591309 -0.806445 0
    outer loop
      vertex -2.29431 -3.27661 0
      vertex -2.43505 -3.17341 150
      vertex -2.43505 -3.17341 0
    endloop
  endfacet
  facet normal -0.625924 -0.779884 0
    outer loop
      vertex -2.43505 -3.17341 150
      vertex -2.57115 -3.06418 150
      vertex -2.43505 -3.17341 0
    endloop
  endfacet
  facet normal -0.625924 -0.779884 0
    outer loop
      vertex -2.43505 -3.17341 0
      vertex -2.57115 -3.06418 150
      vertex -2.57115 -3.06418 0
    endloop
  endfacet
  facet normal -0.659346 -0.75184 0
    outer loop
      vertex -2.57115 -3.06418 150
      vertex -2.70236 -2.94911 150
      vertex -2.57115 -3.06418 0
    endloop
  endfacet
  facet normal -0.659346 -0.75184 0
    outer loop
      vertex -2.57115 -3.06418 0
      vertex -2.70236 -2.94911 150
      vertex -2.70236 -2.94911 0
    endloop
  endfacet
  facet normal -0.691513 -0.722364 0
    outer loop
      vertex -2.70236 -2.94911 150
      vertex -2.82843 -2.82843 150
      vertex -2.70236 -2.94911 0
    endloop
  endfacet
  facet normal -0.691513 -0.722364 0
    outer loop
      vertex -2.70236 -2.94911 0
      vertex -2.82843 -2.82843 150
      vertex -2.82843 -2.82843 0
    endloop
  endfacet
  facet normal -0.722364 -0.691513 0
    outer loop
      vertex -2.82843 -2.82843 150
      vertex -2.94911 -2.70236 150
      vertex -2.82843 -2.82843 0
    endloop
  endfacet
  facet normal -0.722364 -0.691513 0
    outer loop
      vertex -2.82843 -2.82843 0
      vertex -2.94911 -2.70236 150
      vertex -2.94911 -2.70236 0
    endloop
  endfacet
  facet normal -0.75184 -0.659346 0
    outer loop
      vertex -2.94911 -2.70236 150
      vertex -3.06418 -2.57115 150
      vertex -2.94911 -2.70236 0
    endloop
  endfacet
  facet normal -0.75184 -0.659346 0
    outer loop
      vertex -2.94911 -2.70236 0
      vertex -3.06418 -2.57115 150
      vertex -3.06418 -2.57115 0
    endloop
  endfacet
  facet normal -0.779884 -0.625924 0
    outer loop
      vertex -3.06418 -2.57115 150
      vertex -3.17341 -2.43505 150
      vertex -3.06418 -2.57115 0
    endloop
  endfacet
  facet normal -0.779884 -0.625924 0
    outer loop
      vertex -3.06418 -2.57115 0
      vertex -3.17341 -2.43505 150
      vertex -3.17341 -2.43505 0
    endloop
  endfacet
  facet normal -0.806445 -0.591309 0
    outer loop
      vertex -3.17341 -2.43505 150
      vertex -3.27661 -2.29431 150
      vertex -3.17341 -2.43505 0
    endloop
  endfacet
  facet normal -0.806445 -0.591309 0
    outer loop
      vertex -3.17341 -2.43505 0
      vertex -3.27661 -2.29431 150
      vertex -3.27661 -2.29431 0
    endloop
  endfacet
  facet normal -0.831469 -0.555571 0
    outer loop
      vertex -3.27661 -2.29431 150
      vertex -3.37357 -2.1492 150
      vertex -3.27661 -2.29431 0
    endloop
  endfacet
  facet normal -0.831469 -0.555571 0
    outer loop
      vertex -3.27661 -2.29431 0
      vertex -3.37357 -2.1492 150
      vertex -3.37357 -2.1492 0
    endloop
  endfacet
  facet normal -0.854912 -0.518773 0
    outer loop
      vertex -3.37357 -2.1492 150
      vertex -3.4641 -2 150
      vertex -3.37357 -2.1492 0
    endloop
  endfacet
  facet normal -0.854912 -0.518773 0
    outer loop
      vertex -3.37357 -2.1492 0
      vertex -3.4641 -2 150
      vertex -3.4641 -2 0
    endloop
  endfacet
  facet normal -0.876727 -0.480989 0
    outer loop
      vertex -3.4641 -2 150
      vertex -3.54804 -1.84699 150
      vertex -3.4641 -2 0
    endloop
  endfacet
  facet normal -0.876727 -0.480989 0
    outer loop
      vertex -3.4641 -2 0
      vertex -3.54804 -1.84699 150
      vertex -3.54804 -1.84699 0
    endloop
  endfacet
  facet normal -0.896873 -0.442288 0
    outer loop
      vertex -3.54804 -1.84699 150
      vertex -3.62523 -1.69047 150
      vertex -3.54804 -1.84699 0
    endloop
  endfacet
  facet normal -0.896873 -0.442288 0
    outer loop
      vertex -3.54804 -1.84699 0
      vertex -3.62523 -1.69047 150
      vertex -3.62523 -1.69047 0
    endloop
  endfacet
  facet normal -0.915311 -0.402748 0
    outer loop
      vertex -3.62523 -1.69047 150
      vertex -3.69552 -1.53073 150
      vertex -3.62523 -1.69047 0
    endloop
  endfacet
  facet normal -0.915311 -0.402748 0
    outer loop
      vertex -3.62523 -1.69047 0
      vertex -3.69552 -1.53073 150
      vertex -3.69552 -1.53073 0
    endloop
  endfacet
  facet normal -0.932008 -0.362437 0
    outer loop
      vertex -3.69552 -1.53073 150
      vertex -3.75877 -1.36808 150
      vertex -3.69552 -1.53073 0
    endloop
  endfacet
  facet normal -0.932008 -0.362437 0
    outer loop
      vertex -3.69552 -1.53073 0
      vertex -3.75877 -1.36808 150
      vertex -3.75877 -1.36808 0
    endloop
  endfacet
  facet normal -0.94693 -0.321439 0
    outer loop
      vertex -3.75877 -1.36808 150
      vertex -3.81487 -1.20282 150
      vertex -3.75877 -1.36808 0
    endloop
  endfacet
  facet normal -0.94693 -0.321439 0
    outer loop
      vertex -3.75877 -1.36808 0
      vertex -3.81487 -1.20282 150
      vertex -3.81487 -1.20282 0
    endloop
  endfacet
  facet normal -0.96005 -0.279829 0
    outer loop
      vertex -3.81487 -1.20282 150
      vertex -3.8637 -1.03528 150
      vertex -3.81487 -1.20282 0
    endloop
  endfacet
  facet normal -0.96005 -0.279829 0
    outer loop
      vertex -3.81487 -1.20282 0
      vertex -3.8637 -1.03528 150
      vertex -3.8637 -1.03528 0
    endloop
  endfacet
  facet normal -0.971342 -0.237687 0
    outer loop
      vertex -3.8637 -1.03528 150
      vertex -3.90518 -0.865758 150
      vertex -3.8637 -1.03528 0
    endloop
  endfacet
  facet normal -0.971342 -0.237687 0
    outer loop
      vertex -3.8637 -1.03528 0
      vertex -3.90518 -0.865758 150
      vertex -3.90518 -0.865758 0
    endloop
  endfacet
  facet normal -0.980785 -0.195089 0
    outer loop
      vertex -3.90518 -0.865758 150
      vertex -3.93923 -0.694593 150
      vertex -3.90518 -0.865758 0
    endloop
  endfacet
  facet normal -0.980785 -0.195089 0
    outer loop
      vertex -3.90518 -0.865758 0
      vertex -3.93923 -0.694593 150
      vertex -3.93923 -0.694593 0
    endloop
  endfacet
  facet normal -0.988361 -0.152125 0
    outer loop
      vertex -3.93923 -0.694593 150
      vertex -3.96578 -0.522105 150
      vertex -3.93923 -0.694593 0
    endloop
  endfacet
  facet normal -0.988361 -0.152125 0
    outer loop
      vertex -3.93923 -0.694593 0
      vertex -3.96578 -0.522105 150
      vertex -3.96578 -0.522105 0
    endloop
  endfacet
  facet normal -0.994057 -0.108865 0
    outer loop
      vertex -3.96578 -0.522105 150
      vertex -3.98478 -0.348623 150
      vertex -3.96578 -0.522105 0
    endloop
  endfacet
  facet normal -0.994057 -0.108865 0
    outer loop
      vertex -3.96578 -0.522105 0
      vertex -3.98478 -0.348623 150
      vertex -3.98478 -0.348623 0
    endloop
  endfacet
  facet normal -0.997859 -0.0654042 0
    outer loop
      vertex -3.98478 -0.348623 150
      vertex -3.99619 -0.174478 150
      vertex -3.98478 -0.348623 0
    endloop
  endfacet
  facet normal -0.997859 -0.0654042 0
    outer loop
      vertex -3.98478 -0.348623 0
      vertex -3.99619 -0.174478 150
      vertex -3.99619 -0.174478 0
    endloop
  endfacet
  facet normal -0.999762 -0.0218156 0
    outer loop
      vertex -3.99619 -0.174478 150
      vertex -4 2.44929e-16 150
      vertex -3.99619 -0.174478 0
    endloop
  endfacet
  facet normal -0.999762 -0.0218156 0
    outer loop
      vertex -3.99619 -0.174478 0
      vertex -4 2.44929e-16 150
      vertex -4 2.44929e-16 0
    endloop
  endfacet
  facet normal -0.999762 0.0218156 0
    outer loop
      vertex -4 2.44929e-16 150
      vertex -3.99619 0.174478 150
      vertex -4 2.44929e-16 0
    endloop
  endfacet
  facet normal 0 0 1
    outer loop
      vertex 3.98478 -0.348623 150
      vertex 3.99619 -0.174478 150
      vertex 0 2.44929e-16 150
    endloop
  endfacet
  facet normal 0 0 1
    outer loop
      vertex 3.99619 -0.174478 150
      vertex 4 1.71451e-15 150
      vertex 0 2.44929e-16 150
    endloop
  endfacet
  facet normal 0 0 1
    outer loop
      vertex 0 2.44929e-16 150
      vertex 4 1.71451e-15 150
      vertex 3.99619 0.174478 150
    endloop
  endfacet
  facet normal 0 0 1
    outer loop
      vertex 3.90518 -0.865758 150
      vertex 3.93923 -0.694593 150
      vertex 0 2.44929e-16 150
    endloop
  endfacet
  facet normal 0 0 1
    outer loop
      vertex 3.93923 -0.694593 150
      vertex 3.96578 -0.522105 150
      vertex 0 2.44929e-16 150
    endloop
  endfacet
  facet normal 0 0 1
    outer loop
      vertex 0 2.44929e-16 150
      vertex 3.96578 -0.522105 150
      vertex 3.98478 -0.348623 150
    endloop
  endfacet
  facet normal 0 0 1
    outer loop
      vertex 3.75877 -1.36808 150
      vertex 3.81487 -1.20282 150
      vertex 0 2.44929e-16 150
    endloop
  endfacet
  facet normal 0 0 1
    outer loop
      vertex 3.81487 -1.20282 150
      vertex 3.8637 -1.03528 150
      vertex 0 2.44929e-16 150
    endloop
  endfacet
  facet normal 0 0 1
    outer loop
      vertex 0 2.44929e-16 150
      vertex 3.8637 -1.03528 150
      vertex 3.90518 -0.865758 150
    endloop
  endfacet
  facet normal 0 0 1
    outer loop
      vertex 3.54804 -1.84699 150
      vertex 3.62523 -1.69047 150
      vertex 0 2.44929e-16 150
    endloop
  endfacet
  facet normal 0 0 1
    outer loop
      vertex 3.62523 -1.69047 150
      vertex 3.69552 -1.53073 150
      vertex 0 2.44929e-16 150
    endloop
  endfacet
  facet normal 0 0 1
    outer loop
      vertex 0 2.44929e-16 150
      vertex 3.69552 -1.53073 150
      vertex 3.75877 -1.36808 150
    endloop
  endfacet
  facet normal 0 0 1
    outer loop
      vertex 3.27661 -2.29431 150
      vertex 3.37357 -2.1492 150
      vertex 0 2.44929e-16 150
    endloop
  endfacet
  facet normal 0 0 1
    outer loop
      vertex 3.37357 -2.1492 150
      vertex 3.4641 -2 150
      vertex 0 2.44929e-16 150
    endloop
  endfacet
  facet normal 0 0 1
    outer loop
      vertex 0 2.44929e-16 150
      vertex 3.4641 -2 150
      vertex 3.54804 -1.84699 150
    endloop
  endfacet
  facet normal 0 0 1
    outer loop
      vertex 2.94911 -2.70236 150
      vertex 3.06418 -2.57115 150
      vertex 0 2.44929e-16 150
    endloop
  endfacet
  facet normal 0 0 1
    outer loop
      vertex 3.06418 -2.57115 150
      vertex 3.17341 -2.43505 150
      vertex 0 2.44929e-16 150
    endloop
  endfacet
  facet normal 0 0 1
    outer loop
      vertex 0 2.44929e-16 150
      vertex 3.17341 -2.43505 150
      vertex 3.27661 -2.29431 150
    endloop
  endfacet
  facet normal 0 0 1
    outer loop
      vertex 2.57115 -3.06418 150
      vertex 2.70236 -2.94911 150
      vertex 0 2.44929e-16 150
    endloop
  endfacet
  facet normal 0 0 1
    outer loop
      vertex 2.70236 -2.94911 150
      vertex 2.82843 -2.82843 150
      vertex 0 2.44929e-16 150
    endloop
  endfacet
  facet normal 0 0 1
    outer loop
      vertex 0 2.44929e-16 150
      vertex 2.82843 -2.82843 150
      vertex 2.94911 -2.70236 150
    endloop
  endfacet
  facet normal 0 0 1
    outer loop
      vertex 2.1492 -3.37357 150
      vertex 2.29431 -3.27661 150
      vertex 0 2.44929e-16 150
    endloop
  endfacet
  facet normal 0 0 1
    outer loop
      vertex 2.29431 -3.27661 150
      vertex 2.43505 -3.17341 150
      vertex 0 2.44929e-16 150
    endloop
  endfacet
  facet normal 0 0 1
    outer loop
      vertex 0 2.44929e-16 150
      vertex 2.43505 -3.17341 150
      vertex 2.57115 -3.06418 150
    endloop
  endfacet
  facet normal 0 0 1
    outer loop
      vertex 1.69047 -3.62523 150
      vertex 1.84699 -3.54804 150
      vertex 0 2.44929e-16 150
    endloop
  endfacet
  facet normal 0 0 1
    outer loop
      vertex 1.84699 -3.54804 150
      vertex 2 -3.4641 150
      vertex 0 2.44929e-16 150
    endloop
  endfacet
  facet normal 0 0 1
    outer loop
      vertex 0 2.44929e-16 150
      vertex 2 -3.4641 150
      vertex 2.1492 -3.37357 150
    endloop
  endfacet
  facet normal 0 0 1
    outer loop
      vertex 1.20282 -3.81487 150
      vertex 1.36808 -3.75877 150
      vertex 0 2.44929e-16 150
    endloop
  endfacet
  facet normal 0 0 1
    outer loop
      vertex 1.36808 -3.75877 150
      vertex 1.53073 -3.69552 150
      vertex 0 2.44929e-16 150
    endloop
  endfacet
  facet normal 0 0 1
    outer loop
      vertex 0 2.44929e-16 150
      vertex 1.53073 -3.69552 150
      vertex 1.69047 -3.62523 150
    endloop
  endfacet
  facet normal 0 0 1
    outer loop
      vertex 0.694593 -3.93923 150
      vertex 0.865758 -3.90518 150
      vertex 0 2.44929e-16 150
    endloop
  endfacet
  facet normal 0 0 1
    outer loop
      vertex 0.865758 -3.90518 150
      vertex 1.03528 -3.8637 150
      vertex 0 2.44929e-16 150
    endloop
  endfacet
  facet normal 0 0 1
    outer loop
      vertex 0 2.44929e-16 150
      vertex 1.03528 -3.8637 150
      vertex 1.20282 -3.81487 150
    endloop
  endfacet
  facet normal 0 0 1
    outer loop
      vertex 0.174478 -3.99619 150
      vertex 0.348623 -3.98478 150
      vertex 0 2.44929e-16 150
    endloop
  endfacet
  facet normal 0 0 1
    outer loop
      vertex 0.348623 -3.98478 150
      vertex 0.522105 -3.96578 150
      vertex 0 2.44929e-16 150
    endloop
  endfacet
  facet normal 0 0 1
    outer loop
      vertex 0 2.44929e-16 150
      vertex 0.522105 -3.96578 150
      vertex 0.694593 -3.93923 150
    endloop
  endfacet
  facet normal 0 0 1
    outer loop
      vertex -0.348623 -3.98478 150
      vertex -0.174478 -3.99619 150
      vertex 0 2.44929e-16 150
    endloop
  endfacet
  facet normal 0 0 1
    outer loop
      vertex -0.174478 -3.99619 150
      vertex 7.34788e-16 -4 150
      vertex 0 2.44929e-16 150
    endloop
  endfacet
  facet normal 0 0 1
    outer loop
      vertex 0 2.44929e-16 150
      vertex 7.34788e-16 -4 150
      vertex 0.174478 -3.99619 150
    endloop
  endfacet
  facet normal 0 0 1
    outer loop
      vertex -0.865758 -3.90518 150
      vertex -0.694593 -3.93923 150
      vertex 0 2.44929e-16 150
    endloop
  endfacet
  facet normal 0 0 1
    outer loop
      vertex -0.694593 -3.93923 150
      vertex -0.522105 -3.96578 150
      vertex 0 2.44929e-16 150
    endloop
  endfacet
  facet normal 0 0 1
    outer loop
      vertex 0 2.44929e-16 150
      vertex -0.522105 -3.96578 150
      vertex -0.348623 -3.98478 150
    endloop
  endfacet
  facet normal 0 0 1
    outer loop
      vertex -1.36808 -3.75877 150
      vertex -1.20282 -3.81487 150
      vertex 0 2.44929e-16 150
    endloop
  endfacet
  facet normal 0 0 1
    outer loop
      vertex -1.20282 -3.81487 150
      vertex -1.03528 -3.8637 150
      vertex 0 2.44929e-16 150
    endloop
  endfacet
  facet normal 0 0 1
    outer loop
      vertex 0 2.44929e-16 150
      vertex -1.03528 -3.8637 150
      vertex -0.865758 -3.90518 150
    endloop
  endfacet
  facet normal 0 0 1
    outer loop
      vertex -1.84699 -3.54804 150
      vertex -1.69047 -3.62523 150
      vertex 0 2.44929e-16 150
    endloop
  endfacet
  facet normal 0 0 1
    outer loop
      vertex -1.69047 -3.62523 150
      vertex -1.53073 -3.69552 150
      vertex 0 2.44929e-16 150
    endloop
  endfacet
  facet normal 0 0 1
    outer loop
      vertex 0 2.44929e-16 150
      vertex -1.53073 -3.69552 150
      vertex -1.36808 -3.75877 150
    endloop
  endfacet
  facet normal 0 0 1
    outer loop
      vertex -2.29431 -3.27661 150
      vertex -2.1492 -3.37357 150
      vertex 0 2.44929e-16 150
    endloop
  endfacet
  facet normal 0 0 1
    outer loop
      vertex -2.1492 -3.37357 150
      vertex -2 -3.4641 150
      vertex 0 2.44929e-16 150
    endloop
  endfacet
  facet normal 0 0 1
    outer loop
      vertex 0 2.44929e-16 150
      vertex -2 -3.4641 150
      vertex -1.84699 -3.54804 150
    endloop
  endfacet
  facet normal 0 0 1
    outer loop
      vertex -2.70236 -2.94911 150
      vertex -2.57115 -3.06418 150
      vertex 0 2.44929e-16 150
    endloop
  endfacet
  facet normal 0 0 1
    outer loop
      vertex -2.57115 -3.06418 150
      vertex -2.43505 -3.17341 150
      vertex 0 2.44929e-16 150
    endloop
  endfacet
  facet normal 0 0 1
    outer loop
      vertex 0 2.44929e-16 150
      vertex -2.43505 -3.17341 150
      vertex -2.29431 -3.27661 150
    endloop
  endfacet
  facet normal 0 0 1
    outer loop
      vertex -3.06418 -2.57115 150
      vertex -2.94911 -2.70236 150
      vertex 0 2.44929e-16 150
    endloop
  endfacet
  facet normal 0 0 1
    outer loop
      vertex -2.94911 -2.70236 150
      vertex -2.82843 -2.82843 150
      vertex 0 2.44929e-16 150
    endloop
  endfacet
  facet normal 0 0 1
    outer loop
      vertex 0 2.44929e-16 150
      vertex -2.82843 -2.82843 150
      vertex -2.70236 -2.94911 150
    endloop
  endfacet
  facet normal 0 0 1
    outer loop
      vertex -3.37357 -2.1492 150
      vertex -3.27661 -2.29431 150
      vertex 0 2.44929e-16 150
    endloop
  endfacet
  facet normal 0 0 1
    outer loop
      vertex -3.27661 -2.29431 150
      vertex -3.17341 -2.43505 150
      vertex 0 2.44929e-16 150
    endloop
  endfacet
  facet normal 0 0 1
    outer loop
      vertex 0 2.44929e-16 150
      vertex -3.17341 -2.43505 150
      vertex -3.06418 -2.57115 150
    endloop
  endfacet
  facet normal 0 0 1
    outer loop
      vertex -3.62523 -1.69047 150
      vertex -3.54804 -1.84699 150
      vertex 0 2.44929e-16 150
    endloop
  endfacet
  facet normal 0 0 1
    outer loop
      vertex -3.54804 -1.84699 150
      vertex -3.4641 -2 150
      vertex 0 2.44929e-16 150
    endloop
  endfacet
  facet normal 0 0 1
    outer loop
      vertex 0 2.44929e-16 150
      vertex -3.4641 -2 150
      vertex -3.37357 -2.1492 150
    endloop
  endfacet
  facet normal 0 0 1
    outer loop
      vertex -3.81487 -1.20282 150
      vertex -3.75877 -1.36808 150
      vertex 0 2.44929e-16 150
    endloop
  endfacet
  facet normal 0 0 1
    outer loop
      vertex -3.75877 -1.36808 150
      vertex -3.69552 -1.53073 150
      vertex 0 2.44929e-16 150
    endloop
  endfacet
  facet normal 0 0 1
    outer loop
      vertex 0 2.44929e-16 150
      vertex -3.69552 -1.53073 150
      vertex -3.62523 -1.69047 150
    endloop
  endfacet
  facet normal 0 0 1
    outer loop
      vertex -3.93923 -0.694593 150
      vertex -3.90518 -0.865758 150
      vertex 0 2.44929e-16 150
    endloop
  endfacet
  facet normal 0 0 1
    outer loop
      vertex -3.90518 -0.865758 150
      vertex -3.8637 -1.03528 150
      vertex 0 2.44929e-16 150
    endloop
  endfacet
  facet normal 0 0 1
    outer loop
      vertex 0 2.44929e-16 150
      vertex -3.8637 -1.03528 150
      vertex -3.81487 -1.20282 150
    endloop
  endfacet
  facet normal 0 0 1
    outer loop
      vertex -3.99619 -0.174478 150
      vertex -3.98478 -0.348623 150
      vertex 0 2.44929e-16 150
    endloop
  endfacet
  facet normal 0 0 1
    outer loop
      vertex -3.98478 -0.348623 150
      vertex -3.96578 -0.522105 150
      vertex 0 2.44929e-16 150
    endloop
  endfacet
  facet normal 0 0 1
    outer loop
      vertex 0 2.44929e-16 150
      vertex -3.96578 -0.522105 150
      vertex -3.93923 -0.694593 150
    endloop
  endfacet
  facet normal 0 0 1
    outer loop
      vertex -3.98478 0.348623 150
      vertex -3.99619 0.174478 150
      vertex 0 2.44929e-16 150
    endloop
  endfacet
  facet normal 0 0 1
    outer loop
      vertex -3.99619 0.174478 150
      vertex -4 2.44929e-16 150
      vertex 0 2.44929e-16 150
    endloop
  endfacet
  facet normal 0 0 1
    outer loop
      vertex 0 2.44929e-16 150
      vertex -4 2.44929e-16 150
      vertex -3.99619 -0.174478 150
    endloop
  endfacet
  facet normal 0 0 1
    outer loop
      vertex -3.90518 0.865758 150
      vertex -3.93923 0.694593 150
      vertex 0 2.44929e-16 150
    endloop
  endfacet
  facet normal 0 0 1
    outer loop
      vertex -3.93923 0.694593 150
      vertex -3.96578 0.522105 150
      vertex 0 2.44929e-16 150
    endloop
  endfacet
  facet normal 0 0 1
    outer loop
      vertex 0 2.44929e-16 150
      vertex -3.96578 0.522105 150
      vertex -3.98478 0.348623 150
    endloop
  endfacet
  facet normal 0 0 1
    outer loop
      vertex -3.75877 1.36808 150
      vertex -3.81487 1.20282 150
      vertex 0 2.44929e-16 150
    endloop
  endfacet
  facet normal 0 0 1
    outer loop
      vertex -3.81487 1.20282 150
      vertex -3.8637 1.03528 150
      vertex 0 2.44929e-16 150
    endloop
  endfacet
  facet normal 0 0 1
    outer loop
      vertex 0 2.44929e-16 150
      vertex -3.8637 1.03528 150
      vertex -3.90518 0.865758 150
    endloop
  endfacet
  facet normal 0 0 1
    outer loop
      vertex -3.54804 1.84699 150
      vertex -3.62523 1.69047 150
      vertex 0 2.44929e-16 150
    endloop
  endfacet
  facet normal 0 0 1
    outer loop
      vertex -3.62523 1.69047 150
      vertex -3.69552 1.53073 150
      vertex 0 2.44929e-16 150
    endloop
  endfacet
  facet normal 0 0 1
    outer loop
      vertex 0 2.44929e-16 150
      vertex -3.69552 1.53073 150
      vertex -3.75877 1.36808 150
    endloop
  endfacet
  facet normal 0 0 1
    outer loop
      vertex -3.27661 2.29431 150
      vertex -3.37357 2.1492 150
      vertex 0 2.44929e-16 150
    endloop
  endfacet
  facet normal 0 0 1
    outer loop
      vertex -3.37357 2.1492 150
      vertex -3.4641 2 150
      vertex 0 2.44929e-16 150
    endloop
  endfacet
  facet normal 0 0 1
    outer loop
      vertex 0 2.44929e-16 150
      vertex -3.4641 2 150
      vertex -3.54804 1.84699 150
    endloop
  endfacet
  facet normal 0 0 1
    outer loop
      vertex -2.94911 2.70236 150
      vertex -3.06418 2.57115 150
      vertex 0 2.44929e-16 150
    endloop
  endfacet
  facet normal 0 0 1
    outer loop
      vertex -3.06418 2.57115 150
      vertex -3.17341 2.43505 150
      vertex 0 2.44929e-16 150
    endloop
  endfacet
  facet normal 0 0 1
    outer loop
      vertex 0 2.44929e-16 150
      vertex -3.17341 2.43505 150
      vertex -3.27661 2.29431 150
    endloop
  endfacet
  facet normal 0 0 1
    outer loop
      vertex -2.57115 3.06418 150
      vertex -2.70236 2.94911 150
      vertex 0 2.44929e-16 150
    endloop
  endfacet
  facet normal 0 0 1
    outer loop
      vertex -2.70236 2.94911 150
      vertex -2.82843 2.82843 150
      vertex 0 2.44929e-16 150
    endloop
  endfacet
  facet normal 0 0 1
    outer loop
      vertex 0 2.44929e-16 150
      vertex -2.82843 2.82843 150
      vertex -2.94911 2.70236 150
    endloop
  endfacet
  facet normal 0 0 1
    outer loop
      vertex -2.1492 3.37357 150
      vertex -2.29431 3.27661 150
      vertex 0 2.44929e-16 150
    endloop
  endfacet
  facet normal 0 0 1
    outer loop
      vertex -2.29431 3.27661 150
      vertex -2.43505 3.17341 150
      vertex 0 2.44929e-16 150
    endloop
  endfacet
  facet normal 0 0 1
    outer loop
      vertex 0 2.44929e-16 150
      vertex -2.43505 3.17341 150
      vertex -2.57115 3.06418 150
    endloop
  endfacet
  facet normal 0 0 1
    outer loop
      vertex -1.69047 3.62523 150
      vertex -1.84699 3.54804 150
      vertex 0 2.44929e-16 150
    endloop
  endfacet
  facet normal 0 0 1
    outer loop
      vertex -1.84699 3.54804 150
      vertex -2 3.4641 150
      vertex 0 2.44929e-16 150
    endloop
  endfacet
  facet normal 0 0 1
    outer loop
      vertex 0 2.44929e-16 150
      vertex -2 3.4641 150
      vertex -2.1492 3.37357 150
    endloop
  endfacet
  facet normal 0 0 1
    outer loop
      vertex -1.20282 3.81487 150
      vertex -1.36808 3.75877 150
      vertex 0 2.44929e-16 150
    endloop
  endfacet
  facet normal 0 0 1
    outer loop
      vertex -1.36808 3.75877 150
      vertex -1.53073 3.69552 150
      vertex 0 2.44929e-16 150
    endloop
  endfacet
  facet normal 0 0 1
    outer loop
      vertex 0 2.44929e-16 150
      vertex -1.53073 3.69552 150
      vertex -1.69047 3.62523 150
    endloop
  endfacet
  facet normal 0 0 1
    outer loop
      vertex -0.694593 3.93923 150
      vertex -0.865758 3.90518 150
      vertex 0 2.44929e-16 150
    endloop
  endfacet
  facet normal 0 0 1
    outer loop
      vertex -0.865758 3.90518 150
      vertex -1.03528 3.8637 150
      vertex 0 2.44929e-16 150
    endloop
  endfacet
  facet normal 0 0 1
    outer loop
      vertex 0 2.44929e-16 150
      vertex -1.03528 3.8637 150
      vertex -1.20282 3.81487 150
    endloop
  endfacet
  facet normal 0 0 1
    outer loop
      vertex -0.174478 3.99619 150
      vertex -0.348623 3.98478 150
      vertex 0 2.44929e-16 150
    endloop
  endfacet
  facet normal 0 0 1
    outer loop
      vertex -0.348623 3.98478 150
      vertex -0.522105 3.96578 150
      vertex 0 2.44929e-16 150
    endloop
  endfacet
  facet normal 0 0 1
    outer loop
      vertex 0 2.44929e-16 150
      vertex -0.522105 3.96578 150
      vertex -0.694593 3.93923 150
    endloop
  endfacet
  facet normal 0 0 1
    outer loop
      vertex 0.348623 3.98478 150
      vertex 0.174478 3.99619 150
      vertex 0 2.44929e-16 150
    endloop
  endfacet
  facet normal 0 0 1
    outer loop
      vertex 0.174478 3.99619 150
      vertex -2.44929e-16 4 150
      vertex 0 2.44929e-16 150
    endloop
  endfacet
  facet normal 0 0 1
    outer loop
      vertex 0 2.44929e-16 150
      vertex -2.44929e-16 4 150
      vertex -0.174478 3.99619 150
    endloop
  endfacet
  facet normal 0 0 1
    outer loop
      vertex 0.865758 3.90518 150
      vertex 0.694593 3.93923 150
      vertex 0 2.44929e-16 150
    endloop
  endfacet
  facet normal 0 0 1
    outer loop
      vertex 0.694593 3.93923 150
      vertex 0.522105 3.96578 150
      vertex 0 2.44929e-16 150
    endloop
  endfacet
  facet normal 0 0 1
    outer loop
      vertex 0 2.44929e-16 150
      vertex 0.522105 3.96578 150
      vertex 0.348623 3.98478 150
    endloop
  endfacet
  facet normal 0 0 1
    outer loop
      vertex 1.36808 3.75877 150
      vertex 1.20282 3.81487 150
      vertex 0 2.44929e-16 150
    endloop
  endfacet
  facet normal 0 0 1
    outer loop
      vertex 1.20282 3.81487 150
      vertex 1.03528 3.8637 150
      vertex 0 2.44929e-16 150
    endloop
  endfacet
  facet normal 0 0 1
    outer loop
      vertex 0 2.44929e-16 150
      vertex 1.03528 3.8637 150
      vertex 0.865758 3.90518 150
    endloop
  endfacet
  facet normal 0 0 1
    outer loop
      vertex 1.84699 3.54804 150
      vertex 1.69047 3.62523 150
      vertex 0 2.44929e-16 150
    endloop
  endfacet
  facet normal 0 0 1
    outer loop
      vertex 1.69047 3.62523 150
      vertex 1.53073 3.69552 150
      vertex 0 2.44929e-16 150
    endloop
  endfacet
  facet normal 0 0 1
    outer loop
      vertex 0 2.44929e-16 150
      vertex 1.53073 3.69552 150
      vertex 1.36808 3.75877 150
    endloop
  endfacet
  facet normal 0 0 1
    outer loop
      vertex 2.29431 3.27661 150
      vertex 2.1492 3.37357 150
      vertex 0 2.44929e-16 150
    endloop
  endfacet
  facet normal 0 0 1
    outer loop
      vertex 2.1492 3.37357 150
      vertex 2 3.4641 150
      vertex 0 2.44929e-16 150
    endloop
  endfacet
  facet normal 0 0 1
    outer loop
      vertex 0 2.44929e-16 150
      vertex 2 3.4641 150
      vertex 1.84699 3.54804 150
    endloop
  endfacet
  facet normal 0 0 1
    outer loop
      vertex 2.70236 2.94911 150
      vertex 2.57115 3.06418 150
      vertex 0 2.44929e-16 150
    endloop
  endfacet
  facet normal 0 0 1
    outer loop
      vertex 2.57115 3.06418 150
      vertex 2.43505 3.17341 150
      vertex 0 2.44929e-16 150
    endloop
  endfacet
  facet normal 0 0 1
    outer loop
      vertex 0 2.44929e-16 150
      vertex 2.43505 3.17341 150
      vertex 2.29431 3.27661 150
    endloop
  endfacet
  facet normal 0 0 1
    outer loop
      vertex 3.06418 2.57115 150
      vertex 2.94911 2.70236 150
      vertex 0 2.44929e-16 150
    endloop
  endfacet
  facet normal 0 0 1
    outer loop
      vertex 2.94911 2.70236 150
      vertex 2.82843 2.82843 150
      vertex 0 2.44929e-16 150
    endloop
  endfacet
  facet normal 0 0 1
    outer loop
      vertex 0 2.44929e-16 150
      vertex 2.82843 2.82843 150
      vertex 2.70236 2.94911 150
    endloop
  endfacet
  facet normal 0 0 1
    outer loop
      vertex 3.37357 2.1492 150
      vertex 3.27661 2.29431 150
      vertex 0 2.44929e-16 150
    endloop
  endfacet
  facet normal 0 0 1
    outer loop
      vertex 3.27661 2.29431 150
      vertex 3.17341 2.43505 150
      vertex 0 2.44929e-16 150
    endloop
  endfacet
  facet normal 0 0 1
    outer loop
      vertex 0 2.44929e-16 150
      vertex 3.17341 2.43505 150
      vertex 3.06418 2.57115 150
    endloop
  endfacet
  facet normal 0 0 1
    outer loop
      vertex 3.62523 1.69047 150
      vertex 3.54804 1.84699 150
      vertex 0 2.44929e-16 150
    endloop
  endfacet
  facet normal 0 0 1
    outer loop
      vertex 3.54804 1.84699 150
      vertex 3.4641 2 150
      vertex 0 2.44929e-16 150
    endloop
  endfacet
  facet normal 0 0 1
    outer loop
      vertex 0 2.44929e-16 150
      vertex 3.4641 2 150
      vertex 3.37357 2.1492 150
    endloop
  endfacet
  facet normal 0 0 1
    outer loop
      vertex 3.81487 1.20282 150
      vertex 3.75877 1.36808 150
      vertex 0 2.44929e-16 150
    endloop
  endfacet
  facet normal 0 0 1
    outer loop
      vertex 3.75877 1.36808 150
      vertex 3.69552 1.53073 150
      vertex 0 2.44929e-16 150
    endloop
  endfacet
  facet normal 0 0 1
    outer loop
      vertex 0 2.44929e-16 150
      vertex 3.69552 1.53073 150
      vertex 3.62523 1.69047 150
    endloop
  endfacet
  facet normal 0 0 1
    outer loop
      vertex 3.93923 0.694593 150
      vertex 3.90518 0.865758 150
      vertex 0 2.44929e-16 150
    endloop
  endfacet
  facet normal 0 0 1
    outer loop
      vertex 3.90518 0.865758 150
      vertex 3.8637 1.03528 150
      vertex 0 2.44929e-16 150
    endloop
  endfacet
  facet normal 0 0 1
    outer loop
      vertex 0 2.44929e-16 150
      vertex 3.8637 1.03528 150
      vertex 3.81487 1.20282 150
    endloop
  endfacet
  facet normal 0 0 1
    outer loop
      vertex 3.99619 0.174478 150
      vertex 3.98478 0.348623 150
      vertex 0 2.44929e-16 150
    endloop
  endfacet
  facet normal 0 0 1
    outer loop
      vertex 3.98478 0.348623 150
      vertex 3.96578 0.522105 150
      vertex 0 2.44929e-16 150
    endloop
  endfacet
  facet normal 0 0 1
    outer loop
      vertex 0 2.44929e-16 150
      vertex 3.96578 0.522105 150
      vertex 3.93923 0.694593 150
    endloop
  endfacet
endsolid Onshape
