<?xml version="1.0" encoding="UTF-8" standalone="no"?>
<svg
   xmlns:dc="http://purl.org/dc/elements/1.1/"
   xmlns:cc="http://creativecommons.org/ns#"
   xmlns:rdf="http://www.w3.org/1999/02/22-rdf-syntax-ns#"
   xmlns:svg="http://www.w3.org/2000/svg"
   xmlns="http://www.w3.org/2000/svg"
   xmlns:sodipodi="http://sodipodi.sourceforge.net/DTD/sodipodi-0.dtd"
   xmlns:inkscape="http://www.inkscape.org/namespaces/inkscape"
   sodipodi:docname="frames.svg"
   inkscape:version="1.0 (4035a4fb49, 2020-05-01)"
   id="svg8"
   version="1.1"
   viewBox="0 0 210 297"
   height="297mm"
   width="210mm">
  <defs
     id="defs2">
    <marker
       id="DistanceX"
       orient="auto"
       refX="0.0"
       refY="0.0"
       style="overflow:visible">
      <path
         d="M 3,-3 L -3,3 M 0,-5 L  0,5"
         style="stroke:#000000; stroke-width:0.5"
         id="path1365" />
    </marker>
    <pattern
       id="Hatch"
       patternUnits="userSpaceOnUse"
       width="8"
       height="8"
       x="0"
       y="0">
      <path
         d="M8 4 l-4,4"
         stroke="#000000"
         stroke-width="0.25"
         linecap="square"
         id="path1368" />
      <path
         d="M6 2 l-4,4"
         stroke="#000000"
         stroke-width="0.25"
         linecap="square"
         id="path1370" />
      <path
         d="M4 0 l-4,4"
         stroke="#000000"
         stroke-width="0.25"
         linecap="square"
         id="path1372" />
    </pattern>
    <symbol
       id="*MODEL_SPACE" />
    <symbol
       id="*PAPER_SPACE" />
    <marker
       id="DistanceX-3"
       orient="auto"
       refX="0.0"
       refY="0.0"
       style="overflow:visible">
      <path
         d="M 3,-3 L -3,3 M 0,-5 L  0,5"
         style="stroke:#000000; stroke-width:0.5"
         id="path1559" />
    </marker>
    <pattern
       id="Hatch-0"
       patternUnits="userSpaceOnUse"
       width="8"
       height="8"
       x="0"
       y="0">
      <path
         d="M8 4 l-4,4"
         stroke="#000000"
         stroke-width="0.25"
         linecap="square"
         id="path1562" />
      <path
         d="M6 2 l-4,4"
         stroke="#000000"
         stroke-width="0.25"
         linecap="square"
         id="path1564" />
      <path
         d="M4 0 l-4,4"
         stroke="#000000"
         stroke-width="0.25"
         linecap="square"
         id="path1566" />
    </pattern>
    <symbol
       id="*MODEL_SPACE-5" />
    <symbol
       id="*PAPER_SPACE-6" />
  </defs>
  <sodipodi:namedview
     inkscape:window-maximized="0"
     inkscape:window-y="0"
     inkscape:window-x="26"
     inkscape:window-height="1040"
     inkscape:window-width="1274"
     showgrid="false"
     inkscape:document-rotation="0"
     inkscape:current-layer="layer1"
     inkscape:document-units="mm"
     inkscape:cy="800.77702"
     inkscape:cx="203.13388"
     inkscape:zoom="0.32"
     inkscape:pageshadow="2"
     inkscape:pageopacity="0.0"
     borderopacity="1.0"
     bordercolor="#666666"
     pagecolor="#ffffff"
     id="base" />
  <metadata
     id="metadata5">
    <rdf:RDF>
      <cc:Work
         rdf:about="">
        <dc:format>image/svg+xml</dc:format>
        <dc:type
           rdf:resource="http://purl.org/dc/dcmitype/StillImage" />
        <dc:title></dc:title>
      </cc:Work>
    </rdf:RDF>
  </metadata>
  <g
     id="layer1"
     inkscape:groupmode="layer"
     inkscape:label="Layer 1">
    <g
       transform="matrix(0.26458333,0,0,0.26458333,78.17885,-54.829064)"
       id="g1551">
      <g
         inkscape:label="0"
         id="g1379" />
      <g
         inkscape:label="SECTION_CUTTING_LINE"
         id="g1381" />
      <g
         inkscape:label="DETAIL_VIEW_BORDER"
         id="g1383" />
      <g
         inkscape:label="DETAIL_VIEW_PARENT_BORDER"
         id="g1385" />
      <g
         inkscape:label="TEXT"
         id="g1387" />
      <g
         inkscape:label="SKETCHED_GEOMETRY"
         id="g1389" />
      <g
         inkscape:label="VIRTUAL_SHARPS"
         id="g1391" />
      <g
         inkscape:label="CENTERLINES"
         id="g1393" />
      <g
         inkscape:label="CENTERMARKS"
         id="g1395" />
      <g
         inkscape:label="TABLES"
         id="g1397" />
      <g
         inkscape:label="IMAGES"
         id="g1399" />
      <g
         inkscape:label="ANNOTATION_LINES"
         id="g1401" />
      <g
         inkscape:label="ANNOTATION_TEXT"
         id="g1403" />
      <g
         inkscape:label="SIDE_THREAD_SYMBOLS"
         id="g1405" />
      <g
         inkscape:label="SIDE_THREAD_SYMBOLS_HIDDEN"
         id="g1407" />
      <g
         inkscape:label="SURFACE_THREAD_SYMBOLS"
         id="g1409" />
      <g
         inkscape:label="SURFACE_THREAD_SYMBOLS_ON_"
         id="g1411" />
      <g
         inkscape:label="SURFACE_THREAD_SYMBOLS_HID"
         id="g1413" />
      <g
         inkscape:label="BLIND_THREAD_SYMBOLS"
         id="g1415" />
      <g
         inkscape:label="BLIND_THREAD_SYMBOLS_HIDDE"
         id="g1417" />
      <g
         inkscape:label="EXPLODE_LINES"
         id="g1419" />
      <g
         inkscape:label="BREAK_LINES"
         id="g1421" />
      <g
         inkscape:label="SHEETMETAL_BEND_LINES_UP"
         id="g1423" />
      <g
         inkscape:label="SHEETMETAL_BEND_LINES_DOWN"
         id="g1425" />
      <g
         inkscape:label="SHEETMETAL_BEND_TANGENT_LI"
         id="g1427" />
      <g
         inkscape:label="SHEETMETAL_CUT_LINES"
         id="g1429" />
      <g
         inkscape:label="HIDDEN"
         id="g1431" />
      <g
         inkscape:label="VISIBLE"
         id="g1463">
        <path
           d="m 355.65354,470.55118 a 6.047245,6.047245 0 1 0 -12.09449,0 6.047245,6.047245 0 1 0 12.09449,0 z"
           style="fill:none;stroke:#000000"
           id="path1433" />
        <path
           d="m 355.65354,602.83465 a 6.047245,6.047245 0 1 0 -12.09449,0 6.047245,6.047245 0 1 0 12.09449,0 z"
           style="fill:none;stroke:#000000"
           id="path1435" />
        <path
           d="m 223.37008,602.83465 a 6.047245,6.047245 0 1 0 -12.09449,0 6.047245,6.047245 0 1 0 12.09449,0 z"
           style="fill:none;stroke:#000000"
           id="path1437" />
        <path
           d="m 223.37008,470.55118 a 6.047245,6.047245 0 1 0 -12.09449,0 6.047245,6.047245 0 1 0 12.09449,0 z"
           style="fill:none;stroke:#000000"
           id="path1439" />
        <path
           d="m 289.51181,687.87402 a 6.047245,6.047245 0 1 0 -12.09449,0 6.047245,6.047245 0 1 0 12.09449,0 z"
           style="fill:none;stroke:#000000"
           id="path1441" />
        <path
           d="m 24.944882,1103.622 a 6.047244,6.047244 0 1 0 -12.094488,0 6.047244,6.047244 0 1 0 12.094488,0 z"
           style="fill:none;stroke:#000000"
           id="path1443" />
        <path
           d="m 554.07874,1103.622 a 6.047245,6.047245 0 1 0 -12.09449,0 6.047245,6.047245 0 1 0 12.09449,0 z"
           style="fill:none;stroke:#000000"
           id="path1445" />
        <path
           d="m 289.51181,1103.622 a 6.047245,6.047245 0 1 0 -12.09449,0 6.047245,6.047245 0 1 0 12.09449,0 z"
           style="fill:none;stroke:#000000"
           id="path1447" />
        <path
           d="m 325.03937,536.69291 a 41.574805,41.574805 0 1 0 -83.14961,0 41.574805,41.574805 0 1 0 83.14961,0 z"
           style="fill:none;stroke:#000000"
           id="path1449" />
        <path
           d="M 0,1122.5197 V 933.54331"
           style="fill:none;stroke:#000000"
           id="path1451" />
        <path
           d="M 566.92913,1122.5197 H 0"
           style="fill:none;stroke:#000000"
           id="path1453" />
        <path
           d="M 566.92913,933.54331 V 1122.5197"
           style="fill:none;stroke:#000000"
           id="path1455" />
        <path
           d="M 396.85039,423.30709 566.92913,933.54331"
           style="fill:none;stroke:#000000"
           id="path1457" />
        <path
           d="M 170.07874,423.30709 H 396.85039"
           style="fill:none;stroke:#000000"
           id="path1459" />
        <path
           d="M 0,933.54331 170.07874,423.30709"
           style="fill:none;stroke:#000000"
           id="path1461" />
      </g>
      <g
         inkscape:label="MODELSKETCH_VISIBLE"
         id="g1465" />
      <g
         inkscape:label="MODELSKETCH_POINT"
         id="g1467" />
      <g
         inkscape:label="MODELSKETCH_CONSTRUCTION"
         id="g1469" />
      <g
         inkscape:label="HIDDEN_BASE_VIEW"
         id="g1471" />
      <g
         inkscape:label="TANGENT_LINES"
         id="g1473" />
      <g
         inkscape:label="TANGENT_HIDDEN"
         id="g1475" />
      <g
         inkscape:label="INVISIBLE_LINES"
         id="g1477" />
      <g
         inkscape:label="VIEW_HATCHES"
         id="g1479" />
      <g
         inkscape:label="SECTION_JOG_LINES"
         id="g1481" />
    </g>
    <g
       style="stroke:#ff0000;stroke-opacity:1"
       transform="matrix(0.26458333,0,0,0.26458333,53.724263,-59.17563)"
       id="g1814">
      <g
         style="stroke:#ff0000;stroke-opacity:1"
         inkscape:label="0"
         id="g1573" />
      <g
         style="stroke:#ff0000;stroke-opacity:1"
         inkscape:label="SECTION_CUTTING_LINE"
         id="g1575" />
      <g
         style="stroke:#ff0000;stroke-opacity:1"
         inkscape:label="DETAIL_VIEW_BORDER"
         id="g1577" />
      <g
         style="stroke:#ff0000;stroke-opacity:1"
         inkscape:label="DETAIL_VIEW_PARENT_BORDER"
         id="g1579" />
      <g
         style="stroke:#ff0000;stroke-opacity:1"
         inkscape:label="TEXT"
         id="g1581" />
      <g
         style="stroke:#ff0000;stroke-opacity:1"
         inkscape:label="SKETCHED_GEOMETRY"
         id="g1583" />
      <g
         style="stroke:#ff0000;stroke-opacity:1"
         inkscape:label="VIRTUAL_SHARPS"
         id="g1585" />
      <g
         style="stroke:#ff0000;stroke-opacity:1"
         inkscape:label="CENTERLINES"
         id="g1587" />
      <g
         style="stroke:#ff0000;stroke-opacity:1"
         inkscape:label="CENTERMARKS"
         id="g1589" />
      <g
         style="stroke:#ff0000;stroke-opacity:1"
         inkscape:label="TABLES"
         id="g1591" />
      <g
         style="stroke:#ff0000;stroke-opacity:1"
         inkscape:label="IMAGES"
         id="g1593" />
      <g
         style="stroke:#ff0000;stroke-opacity:1"
         inkscape:label="ANNOTATION_LINES"
         id="g1595" />
      <g
         style="stroke:#ff0000;stroke-opacity:1"
         inkscape:label="ANNOTATION_TEXT"
         id="g1597" />
      <g
         style="stroke:#ff0000;stroke-opacity:1"
         inkscape:label="SIDE_THREAD_SYMBOLS"
         id="g1599" />
      <g
         style="stroke:#ff0000;stroke-opacity:1"
         inkscape:label="SIDE_THREAD_SYMBOLS_HIDDEN"
         id="g1601" />
      <g
         style="stroke:#ff0000;stroke-opacity:1"
         inkscape:label="SURFACE_THREAD_SYMBOLS"
         id="g1603" />
      <g
         style="stroke:#ff0000;stroke-opacity:1"
         inkscape:label="SURFACE_THREAD_SYMBOLS_ON_"
         id="g1605" />
      <g
         style="stroke:#ff0000;stroke-opacity:1"
         inkscape:label="SURFACE_THREAD_SYMBOLS_HID"
         id="g1607" />
      <g
         style="stroke:#ff0000;stroke-opacity:1"
         inkscape:label="BLIND_THREAD_SYMBOLS"
         id="g1609" />
      <g
         style="stroke:#ff0000;stroke-opacity:1"
         inkscape:label="BLIND_THREAD_SYMBOLS_HIDDE"
         id="g1611" />
      <g
         style="stroke:#ff0000;stroke-opacity:1"
         inkscape:label="EXPLODE_LINES"
         id="g1613" />
      <g
         style="stroke:#ff0000;stroke-opacity:1"
         inkscape:label="BREAK_LINES"
         id="g1615" />
      <g
         style="stroke:#ff0000;stroke-opacity:1"
         inkscape:label="SHEETMETAL_BEND_LINES_UP"
         id="g1617" />
      <g
         style="stroke:#ff0000;stroke-opacity:1"
         inkscape:label="SHEETMETAL_BEND_LINES_DOWN"
         id="g1619" />
      <g
         style="stroke:#ff0000;stroke-opacity:1"
         inkscape:label="SHEETMETAL_BEND_TANGENT_LI"
         id="g1621" />
      <g
         style="stroke:#ff0000;stroke-opacity:1"
         inkscape:label="SHEETMETAL_CUT_LINES"
         id="g1623" />
      <g
         style="stroke:#ff0000;stroke-opacity:1"
         inkscape:label="HIDDEN"
         id="g1625" />
      <g
         style="stroke:#ff0000;stroke-opacity:1"
         inkscape:label="VISIBLE"
         id="g1703">
        <path
           d="m -292.91339,665.19685 v 7.55906"
           style="fill:none;stroke:#ff0000;stroke-opacity:1"
           id="path1627" />
        <path
           d="m -292.91339,665.19685 h 18.89764"
           style="fill:none;stroke:#ff0000;stroke-opacity:1"
           id="path1629" />
        <path
           d="m -274.01575,665.19685 v 7.55906"
           style="fill:none;stroke:#ff0000;stroke-opacity:1"
           id="path1631" />
        <path
           d="m -292.91339,672.75591 h 18.89764"
           style="fill:none;stroke:#ff0000;stroke-opacity:1"
           id="path1633" />
        <path
           d="m -292.91339,619.84252 v 7.55905"
           style="fill:none;stroke:#ff0000;stroke-opacity:1"
           id="path1635" />
        <path
           d="m -292.91339,619.84252 h 18.89764"
           style="fill:none;stroke:#ff0000;stroke-opacity:1"
           id="path1637" />
        <path
           d="m -274.01575,619.84252 v 7.55905"
           style="fill:none;stroke:#ff0000;stroke-opacity:1"
           id="path1639" />
        <path
           d="m -292.91339,627.40157 h 18.89764"
           style="fill:none;stroke:#ff0000;stroke-opacity:1"
           id="path1641" />
        <path
           d="m -450.81149,869.16461 a 6.047244,6.047244 0 1 0 -12.09448,0 6.047244,6.047244 0 1 0 12.09448,0 z"
           style="fill:none;stroke:#ff0000;stroke-opacity:1"
           id="path1643" />
        <path
           d="m -143.76267,1051.4134 a 6.047245,6.047245 0 1 0 -12.09449,0 6.047245,6.047245 0 1 0 12.09449,0 z"
           style="fill:none;stroke:#ff0000;stroke-opacity:1"
           id="path1645" />
        <path
           d="m -426.77369,1051.4134 a 6.047245,6.047245 0 1 0 -12.09449,0 6.047245,6.047245 0 1 0 12.09449,0 z"
           style="fill:none;stroke:#ff0000;stroke-opacity:1"
           id="path1647" />
        <path
           d="m -335.72487,993.85122 a 6.047245,6.047245 0 1 0 -12.09449,0 6.047245,6.047245 0 1 0 12.09449,0 z"
           style="fill:none;stroke:#ff0000;stroke-opacity:1"
           id="path1649" />
        <path
           d="m -139.11385,869.16461 a 6.047245,6.047245 0 1 0 -12.09449,0 6.047245,6.047245 0 1 0 12.09449,0 z"
           style="fill:none;stroke:#ff0000;stroke-opacity:1"
           id="path1651" />
        <path
           d="m -335.72487,888.3646 a 6.047245,6.047245 0 1 0 -12.09449,0 6.047245,6.047245 0 1 0 12.09449,0 z"
           style="fill:none;stroke:#ff0000;stroke-opacity:1"
           id="path1653" />
        <path
           d="m -248.69291,487.59541 a 6.4252,6.4252 0 1 0 -12.8504,0 6.4252,6.4252 0 1 0 12.8504,0 z"
           style="fill:none;stroke:#ff0000;stroke-opacity:1"
           id="path1655" />
        <path
           d="m -248.69291,585.79042 a 6.4252,6.4252 0 1 0 -12.8504,0 6.4252,6.4252 0 1 0 12.8504,0 z"
           style="fill:none;stroke:#ff0000;stroke-opacity:1"
           id="path1657" />
        <path
           d="m -333.73228,536.69291 a 6.4252,6.4252 0 1 0 -12.8504,0 6.4252,6.4252 0 1 0 12.8504,0 z"
           style="fill:none;stroke:#ff0000;stroke-opacity:1"
           id="path1659" />
        <path
           d="m -541.98425,1103.622 a 6.047245,6.047245 0 1 0 -12.09449,0 6.047245,6.047245 0 1 0 12.09449,0 z"
           style="fill:none;stroke:#ff0000;stroke-opacity:1"
           id="path1661" />
        <path
           d="m -277.41732,1103.622 a 6.047245,6.047245 0 1 0 -12.09449,0 6.047245,6.047245 0 1 0 12.09449,0 z"
           style="fill:none;stroke:#ff0000;stroke-opacity:1"
           id="path1663" />
        <path
           d="m -277.41732,687.87402 a 6.047245,6.047245 0 1 0 -12.09449,0 6.047245,6.047245 0 1 0 12.09449,0 z"
           style="fill:none;stroke:#ff0000;stroke-opacity:1"
           id="path1665" />
        <path
           d="m -12.850394,1103.622 a 6.047244,6.047244 0 1 0 -12.094488,0 6.047244,6.047244 0 1 0 12.094488,0 z"
           style="fill:none;stroke:#ff0000;stroke-opacity:1"
           id="path1667" />
        <path
           d="m -241.88976,536.69291 a 41.574805,41.574805 0 1 0 -83.14961,0 41.574805,41.574805 0 1 0 83.14961,0 z"
           style="fill:none;stroke:#ff0000;stroke-opacity:1"
           id="path1669" />
        <path
           d="m -429.84978,628.68805 -6.54634,3.77953"
           style="fill:none;stroke:#ff0000;stroke-opacity:1"
           id="path1671" />
        <path
           d="m -420.40097,645.05389 -9.44881,-16.36584"
           style="fill:none;stroke:#ff0000;stroke-opacity:1"
           id="path1673" />
        <path
           d="m -426.9473,648.83342 6.54633,-3.77953"
           style="fill:none;stroke:#ff0000;stroke-opacity:1"
           id="path1675" />
        <path
           d="m -436.39612,632.46758 9.44882,16.36584"
           style="fill:none;stroke:#ff0000;stroke-opacity:1"
           id="path1677" />
        <path
           d="m -400.39128,611.68018 -6.54634,3.77953"
           style="fill:none;stroke:#ff0000;stroke-opacity:1"
           id="path1679" />
        <path
           d="m -390.94246,628.04601 -9.44882,-16.36583"
           style="fill:none;stroke:#ff0000;stroke-opacity:1"
           id="path1681" />
        <path
           d="m -397.4888,631.82554 6.54634,-3.77953"
           style="fill:none;stroke:#ff0000;stroke-opacity:1"
           id="path1683" />
        <path
           d="m -406.93762,615.45971 9.44882,16.36583"
           style="fill:none;stroke:#ff0000;stroke-opacity:1"
           id="path1685" />
        <path
           d="m -396.85039,423.30709 -42.71862,128.15584"
           style="fill:none;stroke:#ff0000;stroke-opacity:1"
           id="path1687" />
        <path
           d="m -453.91131,594.48983 a 22.677167,22.677167 0 1 0 14.3423,-43.0269"
           style="fill:none;stroke:#ff0000;stroke-opacity:1"
           id="path1689" />
        <path
           d="M -453.91131,594.48983 -566.92913,933.54331"
           style="fill:none;stroke:#ff0000;stroke-opacity:1"
           id="path1691" />
        <path
           d="M -566.92913,933.54331 V 1122.5197"
           style="fill:none;stroke:#ff0000;stroke-opacity:1"
           id="path1693" />
        <path
           d="M -566.92913,1122.5197 H 0"
           style="fill:none;stroke:#ff0000;stroke-opacity:1"
           id="path1695" />
        <path
           d="M 0,1122.5197 V 933.54331"
           style="fill:none;stroke:#ff0000;stroke-opacity:1"
           id="path1697" />
        <path
           d="M 0,933.54331 -170.07874,423.30709"
           style="fill:none;stroke:#ff0000;stroke-opacity:1"
           id="path1699" />
        <path
           d="M -170.07874,423.30709 H -396.85039"
           style="fill:none;stroke:#ff0000;stroke-opacity:1"
           id="path1701" />
      </g>
      <g
         style="stroke:#ff0000;stroke-opacity:1"
         inkscape:label="MODELSKETCH_VISIBLE"
         id="g1705" />
      <g
         style="stroke:#ff0000;stroke-opacity:1"
         inkscape:label="MODELSKETCH_POINT"
         id="g1707" />
      <g
         style="stroke:#ff0000;stroke-opacity:1"
         inkscape:label="MODELSKETCH_CONSTRUCTION"
         id="g1709" />
      <g
         style="stroke:#ff0000;stroke-opacity:1"
         inkscape:label="HIDDEN_BASE_VIEW"
         id="g1711" />
      <g
         style="stroke:#ff0000;stroke-opacity:1"
         inkscape:label="TANGENT_LINES"
         id="g1713" />
      <g
         style="stroke:#ff0000;stroke-opacity:1"
         inkscape:label="TANGENT_HIDDEN"
         id="g1715" />
      <g
         style="stroke:#ff0000;stroke-opacity:1"
         inkscape:label="INVISIBLE_LINES"
         id="g1717" />
      <g
         style="stroke:#ff0000;stroke-opacity:1"
         inkscape:label="VIEW_HATCHES"
         id="g1719" />
      <g
         style="stroke:#ff0000;stroke-opacity:1"
         inkscape:label="SECTION_JOG_LINES"
         id="g1721" />
    </g>
  </g>
</svg>
