solid Onshape
  facet normal 0 -1 0
    outer loop
      vertex 68.7 10 -23
      vertex 79.8 10 -23
      vertex 68.7 10 -21.2
    endloop
  endfacet
  facet normal 0 -1 0
    outer loop
      vertex 79.8 10 -23
      vertex 79.8 10 -21.2
      vertex 68.7 10 -21.2
    endloop
  endfacet
  facet normal 0 0 1
    outer loop
      vertex 68.7 10 -21.2
      vertex 79.8 10 -21.2
      vertex 68.7 12 -21.2
    endloop
  endfacet
  facet normal 0 0 1
    outer loop
      vertex 79.8 10 -21.2
      vertex 79.8 12 -21.2
      vertex 68.7 12 -21.2
    endloop
  endfacet
  facet normal 1 0 0
    outer loop
      vertex 79.8 10 -21.2
      vertex 79.8 10 -23
      vertex 79.8 12 -21.2
    endloop
  endfacet
  facet normal 1 0 0
    outer loop
      vertex 79.8 10 -23
      vertex 79.8 14.5 -23
      vertex 79.8 12 -21.2
    endloop
  endfacet
  facet normal 1 0 0
    outer loop
      vertex 79.8 12 -21.2
      vertex 79.8 14.5 -23
      vertex 79.8 12 -11
    endloop
  endfacet
  facet normal 1 0 0
    outer loop
      vertex 79.8 14.5 -23
      vertex 79.8 14.5 -11
      vertex 79.8 12 -11
    endloop
  endfacet
  facet normal 0 0 -1
    outer loop
      vertex 68.7 10 -23
      vertex 68.7 14.5 -23
      vertex 79.8 10 -23
    endloop
  endfacet
  facet normal 0 0 -1
    outer loop
      vertex 68.7 14.5 -23
      vertex 79.8 14.5 -23
      vertex 79.8 10 -23
    endloop
  endfacet
  facet normal 0 -1 0
    outer loop
      vertex 68.7 9.5 -11
      vertex 85.9 9.5 -11
      vertex 68.7 9.5 -3.5
    endloop
  endfacet
  facet normal 0 -1 0
    outer loop
      vertex 85.9 9.5 -11
      vertex 85.9 9.5 -3.5
      vertex 68.7 9.5 -3.5
    endloop
  endfacet
  facet normal 0 0 -1
    outer loop
      vertex 79.8 14.5 -11
      vertex 85.9 14.5 -11
      vertex 79.8 12 -11
    endloop
  endfacet
  facet normal 0 0 -1
    outer loop
      vertex 85.9 14.5 -11
      vertex 85.9 9.5 -11
      vertex 79.8 12 -11
    endloop
  endfacet
  facet normal 0 0 -1
    outer loop
      vertex 79.8 12 -11
      vertex 85.9 9.5 -11
      vertex 68.7 12 -11
    endloop
  endfacet
  facet normal 0 0 -1
    outer loop
      vertex 85.9 9.5 -11
      vertex 68.7 9.5 -11
      vertex 68.7 12 -11
    endloop
  endfacet
  facet normal 0 1 0
    outer loop
      vertex 72.0016 14.5 -15.9258
      vertex 72 14.5 -16
      vertex 68.7 14.5 -23
    endloop
  endfacet
  facet normal 0 1 0
    outer loop
      vertex 72 14.5 -16
      vertex 72.0016 14.5 -16.0742
      vertex 68.7 14.5 -23
    endloop
  endfacet
  facet normal 0 1 0
    outer loop
      vertex 68.7 14.5 -23
      vertex 72.0016 14.5 -16.0742
      vertex 72.0065 14.5 -16.1482
    endloop
  endfacet
  facet normal 0 1 0
    outer loop
      vertex 72.0065 14.5 -16.1482
      vertex 72.0145 14.5 -16.2219
      vertex 68.7 14.5 -23
    endloop
  endfacet
  facet normal 0 1 0
    outer loop
      vertex 72.0145 14.5 -16.2219
      vertex 72.0258 14.5 -16.2952
      vertex 68.7 14.5 -23
    endloop
  endfacet
  facet normal 0 1 0
    outer loop
      vertex 68.7 14.5 -23
      vertex 72.0258 14.5 -16.2952
      vertex 72.0403 14.5 -16.3679
    endloop
  endfacet
  facet normal 0 1 0
    outer loop
      vertex 72.1921 14.5 -16.785
      vertex 72.2278 14.5 -16.85
      vertex 68.7 14.5 -23
    endloop
  endfacet
  facet normal 0 1 0
    outer loop
      vertex 72.2278 14.5 -16.85
      vertex 72.2662 14.5 -16.9134
      vertex 68.7 14.5 -23
    endloop
  endfacet
  facet normal 0 1 0
    outer loop
      vertex 75.3984 14.5 -15.9258
      vertex 75.3935 14.5 -15.8518
      vertex 79.8 14.5 -11
    endloop
  endfacet
  facet normal 0 1 0
    outer loop
      vertex 72.1294 14.5 -15.3494
      vertex 72.1025 14.5 -15.4186
      vertex 68.7 14.5 -3.5
    endloop
  endfacet
  facet normal 0 1 0
    outer loop
      vertex 72.0403 14.5 -16.3679
      vertex 72.0579 14.5 -16.44
      vertex 68.7 14.5 -23
    endloop
  endfacet
  facet normal 0 1 0
    outer loop
      vertex 72.0579 14.5 -16.44
      vertex 72.0787 14.5 -16.5112
      vertex 68.7 14.5 -23
    endloop
  endfacet
  facet normal 0 1 0
    outer loop
      vertex 68.7 14.5 -23
      vertex 72.0787 14.5 -16.5112
      vertex 72.1025 14.5 -16.5814
    endloop
  endfacet
  facet normal 0 1 0
    outer loop
      vertex 72.1025 14.5 -16.5814
      vertex 72.1294 14.5 -16.6506
      vertex 68.7 14.5 -23
    endloop
  endfacet
  facet normal 0 1 0
    outer loop
      vertex 72.1294 14.5 -16.6506
      vertex 72.1593 14.5 -16.7185
      vertex 68.7 14.5 -23
    endloop
  endfacet
  facet normal 0 1 0
    outer loop
      vertex 68.7 14.5 -23
      vertex 72.1593 14.5 -16.7185
      vertex 72.1921 14.5 -16.785
    endloop
  endfacet
  facet normal 0 1 0
    outer loop
      vertex 72.2662 14.5 -16.9134
      vertex 72.3074 14.5 -16.9751
      vertex 68.7 14.5 -23
    endloop
  endfacet
  facet normal 0 1 0
    outer loop
      vertex 72.3074 14.5 -16.9751
      vertex 72.3513 14.5 -17.0349
      vertex 68.7 14.5 -23
    endloop
  endfacet
  facet normal 0 1 0
    outer loop
      vertex 68.7 14.5 -23
      vertex 72.3513 14.5 -17.0349
      vertex 72.3977 14.5 -17.0927
    endloop
  endfacet
  facet normal 0 1 0
    outer loop
      vertex 72.3977 14.5 -17.0927
      vertex 72.4466 14.5 -17.1485
      vertex 68.7 14.5 -23
    endloop
  endfacet
  facet normal 0 1 0
    outer loop
      vertex 72.4466 14.5 -17.1485
      vertex 72.4979 14.5 -17.2021
      vertex 68.7 14.5 -23
    endloop
  endfacet
  facet normal 0 1 0
    outer loop
      vertex 68.7 14.5 -23
      vertex 72.4979 14.5 -17.2021
      vertex 72.5515 14.5 -17.2534
    endloop
  endfacet
  facet normal 0 1 0
    outer loop
      vertex 75.3984 14.5 -15.9258
      vertex 79.8 14.5 -11
      vertex 75.4 14.5 -16
    endloop
  endfacet
  facet normal 0 1 0
    outer loop
      vertex 72.1025 14.5 -15.4186
      vertex 72.0787 14.5 -15.4888
      vertex 68.7 14.5 -3.5
    endloop
  endfacet
  facet normal 0 1 0
    outer loop
      vertex 72.0787 14.5 -15.4888
      vertex 72.0579 14.5 -15.56
      vertex 68.7 14.5 -3.5
    endloop
  endfacet
  facet normal 0 1 0
    outer loop
      vertex 68.7 14.5 -3.5
      vertex 72.0579 14.5 -15.56
      vertex 72.0403 14.5 -15.6321
    endloop
  endfacet
  facet normal 0 1 0
    outer loop
      vertex 72.0403 14.5 -15.6321
      vertex 72.0258 14.5 -15.7048
      vertex 68.7 14.5 -3.5
    endloop
  endfacet
  facet normal 0 1 0
    outer loop
      vertex 72.0258 14.5 -15.7048
      vertex 72.0145 14.5 -15.7781
      vertex 68.7 14.5 -3.5
    endloop
  endfacet
  facet normal 0 1 0
    outer loop
      vertex 68.7 14.5 -3.5
      vertex 72.0145 14.5 -15.7781
      vertex 68.7 14.5 -23
    endloop
  endfacet
  facet normal 0 1 0
    outer loop
      vertex 72.0145 14.5 -15.7781
      vertex 72.0065 14.5 -15.8518
      vertex 68.7 14.5 -23
    endloop
  endfacet
  facet normal 0 1 0
    outer loop
      vertex 68.7 14.5 -23
      vertex 72.0065 14.5 -15.8518
      vertex 72.0016 14.5 -15.9258
    endloop
  endfacet
  facet normal 0 1 0
    outer loop
      vertex 73.26 14.5 -14.3579
      vertex 73.1888 14.5 -14.3787
      vertex 68.7 14.5 -3.5
    endloop
  endfacet
  facet normal 0 1 0
    outer loop
      vertex 72.5515 14.5 -17.2534
      vertex 72.6073 14.5 -17.3023
      vertex 68.7 14.5 -23
    endloop
  endfacet
  facet normal 0 1 0
    outer loop
      vertex 72.6073 14.5 -17.3023
      vertex 72.6651 14.5 -17.3487
      vertex 68.7 14.5 -23
    endloop
  endfacet
  facet normal 0 1 0
    outer loop
      vertex 68.7 14.5 -23
      vertex 72.6651 14.5 -17.3487
      vertex 72.7249 14.5 -17.3926
    endloop
  endfacet
  facet normal 0 1 0
    outer loop
      vertex 75.1338 14.5 -15.0866
      vertex 75.0926 14.5 -15.0249
      vertex 79.8 14.5 -11
    endloop
  endfacet
  facet normal 0 1 0
    outer loop
      vertex 75.0926 14.5 -15.0249
      vertex 75.0487 14.5 -14.9651
      vertex 79.8 14.5 -11
    endloop
  endfacet
  facet normal 0 1 0
    outer loop
      vertex 79.8 14.5 -11
      vertex 75.0487 14.5 -14.9651
      vertex 75.0023 14.5 -14.9073
    endloop
  endfacet
  facet normal 0 1 0
    outer loop
      vertex 73.1888 14.5 -14.3787
      vertex 73.1186 14.5 -14.4025
      vertex 68.7 14.5 -3.5
    endloop
  endfacet
  facet normal 0 1 0
    outer loop
      vertex 73.1186 14.5 -14.4025
      vertex 73.0494 14.5 -14.4294
      vertex 68.7 14.5 -3.5
    endloop
  endfacet
  facet normal 0 1 0
    outer loop
      vertex 68.7 14.5 -3.5
      vertex 73.0494 14.5 -14.4294
      vertex 72.9816 14.5 -14.4593
    endloop
  endfacet
  facet normal 0 1 0
    outer loop
      vertex 72.9816 14.5 -14.4593
      vertex 72.915 14.5 -14.4921
      vertex 68.7 14.5 -3.5
    endloop
  endfacet
  facet normal 0 1 0
    outer loop
      vertex 72.915 14.5 -14.4921
      vertex 72.85 14.5 -14.5278
      vertex 68.7 14.5 -3.5
    endloop
  endfacet
  facet normal 0 1 0
    outer loop
      vertex 68.7 14.5 -3.5
      vertex 72.85 14.5 -14.5278
      vertex 72.7866 14.5 -14.5662
    endloop
  endfacet
  facet normal 0 1 0
    outer loop
      vertex 72.3513 14.5 -14.9651
      vertex 68.7 14.5 -3.5
      vertex 72.3977 14.5 -14.9073
    endloop
  endfacet
  facet normal 0 1 0
    outer loop
      vertex 68.7 14.5 -3.5
      vertex 72.4466 14.5 -14.8515
      vertex 72.3977 14.5 -14.9073
    endloop
  endfacet
  facet normal 0 1 0
    outer loop
      vertex 72.2278 14.5 -15.15
      vertex 72.1921 14.5 -15.215
      vertex 68.7 14.5 -3.5
    endloop
  endfacet
  facet normal 0 1 0
    outer loop
      vertex 72.1921 14.5 -15.215
      vertex 72.1593 14.5 -15.2815
      vertex 68.7 14.5 -3.5
    endloop
  endfacet
  facet normal 0 1 0
    outer loop
      vertex 68.7 14.5 -3.5
      vertex 72.1593 14.5 -15.2815
      vertex 72.1294 14.5 -15.3494
    endloop
  endfacet
  facet normal 0 1 0
    outer loop
      vertex 75.3213 14.5 -15.4888
      vertex 79.8 14.5 -11
      vertex 75.3421 14.5 -15.56
    endloop
  endfacet
  facet normal 0 1 0
    outer loop
      vertex 79.8 14.5 -11
      vertex 75.3597 14.5 -15.6321
      vertex 75.3421 14.5 -15.56
    endloop
  endfacet
  facet normal 0 1 0
    outer loop
      vertex 75.0023 14.5 -14.9073
      vertex 74.9534 14.5 -14.8515
      vertex 79.8 14.5 -11
    endloop
  endfacet
  facet normal 0 1 0
    outer loop
      vertex 74.9534 14.5 -14.8515
      vertex 74.9021 14.5 -14.7979
      vertex 79.8 14.5 -11
    endloop
  endfacet
  facet normal 0 1 0
    outer loop
      vertex 79.8 14.5 -11
      vertex 74.9021 14.5 -14.7979
      vertex 74.8485 14.5 -14.7466
    endloop
  endfacet
  facet normal 0 1 0
    outer loop
      vertex 74.8485 14.5 -14.7466
      vertex 74.7927 14.5 -14.6977
      vertex 79.8 14.5 -11
    endloop
  endfacet
  facet normal 0 1 0
    outer loop
      vertex 74.7927 14.5 -14.6977
      vertex 74.7349 14.5 -14.6513
      vertex 79.8 14.5 -11
    endloop
  endfacet
  facet normal 0 1 0
    outer loop
      vertex 79.8 14.5 -11
      vertex 74.7349 14.5 -14.6513
      vertex 74.6751 14.5 -14.6074
    endloop
  endfacet
  facet normal 0 1 0
    outer loop
      vertex 74.6751 14.5 -14.6074
      vertex 74.6134 14.5 -14.5662
      vertex 79.8 14.5 -11
    endloop
  endfacet
  facet normal 0 1 0
    outer loop
      vertex 74.6134 14.5 -14.5662
      vertex 74.55 14.5 -14.5278
      vertex 79.8 14.5 -11
    endloop
  endfacet
  facet normal 0 1 0
    outer loop
      vertex 79.8 14.5 -11
      vertex 74.55 14.5 -14.5278
      vertex 74.485 14.5 -14.4921
    endloop
  endfacet
  facet normal 0 1 0
    outer loop
      vertex 72.3513 14.5 -14.9651
      vertex 72.3074 14.5 -15.0249
      vertex 68.7 14.5 -3.5
    endloop
  endfacet
  facet normal 0 1 0
    outer loop
      vertex 72.3074 14.5 -15.0249
      vertex 72.2662 14.5 -15.0866
      vertex 68.7 14.5 -3.5
    endloop
  endfacet
  facet normal 0 1 0
    outer loop
      vertex 68.7 14.5 -3.5
      vertex 72.2662 14.5 -15.0866
      vertex 72.2278 14.5 -15.15
    endloop
  endfacet
  facet normal 0 1 0
    outer loop
      vertex 79.8 14.5 -23
      vertex 75.0926 14.5 -16.9751
      vertex 75.1338 14.5 -16.9134
    endloop
  endfacet
  facet normal 0 1 0
    outer loop
      vertex 75.1338 14.5 -16.9134
      vertex 75.1722 14.5 -16.85
      vertex 79.8 14.5 -23
    endloop
  endfacet
  facet normal 0 1 0
    outer loop
      vertex 75.1722 14.5 -16.85
      vertex 75.2079 14.5 -16.785
      vertex 79.8 14.5 -23
    endloop
  endfacet
  facet normal 0 1 0
    outer loop
      vertex 79.8 14.5 -23
      vertex 75.2079 14.5 -16.785
      vertex 75.2407 14.5 -16.7185
    endloop
  endfacet
  facet normal 0 1 0
    outer loop
      vertex 75.3935 14.5 -15.8518
      vertex 75.3855 14.5 -15.7781
      vertex 79.8 14.5 -11
    endloop
  endfacet
  facet normal 0 1 0
    outer loop
      vertex 75.3855 14.5 -15.7781
      vertex 75.3742 14.5 -15.7048
      vertex 79.8 14.5 -11
    endloop
  endfacet
  facet normal 0 1 0
    outer loop
      vertex 79.8 14.5 -11
      vertex 75.3742 14.5 -15.7048
      vertex 75.3597 14.5 -15.6321
    endloop
  endfacet
  facet normal 0 1 0
    outer loop
      vertex 75.3213 14.5 -15.4888
      vertex 75.2975 14.5 -15.4186
      vertex 79.8 14.5 -11
    endloop
  endfacet
  facet normal 0 1 0
    outer loop
      vertex 75.2975 14.5 -15.4186
      vertex 75.2706 14.5 -15.3494
      vertex 79.8 14.5 -11
    endloop
  endfacet
  facet normal 0 1 0
    outer loop
      vertex 79.8 14.5 -11
      vertex 75.2706 14.5 -15.3494
      vertex 75.2407 14.5 -15.2815
    endloop
  endfacet
  facet normal 0 1 0
    outer loop
      vertex 75.2407 14.5 -15.2815
      vertex 75.2079 14.5 -15.215
      vertex 79.8 14.5 -11
    endloop
  endfacet
  facet normal 0 1 0
    outer loop
      vertex 75.2079 14.5 -15.215
      vertex 75.1722 14.5 -15.15
      vertex 79.8 14.5 -11
    endloop
  endfacet
  facet normal 0 1 0
    outer loop
      vertex 79.8 14.5 -11
      vertex 75.1722 14.5 -15.15
      vertex 75.1338 14.5 -15.0866
    endloop
  endfacet
  facet normal 0 1 0
    outer loop
      vertex 74.485 14.5 -14.4921
      vertex 74.4184 14.5 -14.4593
      vertex 79.8 14.5 -11
    endloop
  endfacet
  facet normal 0 1 0
    outer loop
      vertex 74.4184 14.5 -14.4593
      vertex 74.3506 14.5 -14.4294
      vertex 79.8 14.5 -11
    endloop
  endfacet
  facet normal 0 1 0
    outer loop
      vertex 79.8 14.5 -11
      vertex 74.3506 14.5 -14.4294
      vertex 74.2814 14.5 -14.4025
    endloop
  endfacet
  facet normal 0 1 0
    outer loop
      vertex 74.2814 14.5 -14.4025
      vertex 74.2112 14.5 -14.3787
      vertex 79.8 14.5 -11
    endloop
  endfacet
  facet normal 0 1 0
    outer loop
      vertex 74.2112 14.5 -14.3787
      vertex 68.7 14.5 -3.5
      vertex 79.8 14.5 -11
    endloop
  endfacet
  facet normal 0 1 0
    outer loop
      vertex 79.8 14.5 -11
      vertex 68.7 14.5 -3.5
      vertex 85.9 14.5 -11
    endloop
  endfacet
  facet normal 0 1 0
    outer loop
      vertex 68.7 14.5 -3.5
      vertex 85.9 14.5 -3.5
      vertex 85.9 14.5 -11
    endloop
  endfacet
  facet normal 0 1 0
    outer loop
      vertex 73.5518 14.5 -14.3065
      vertex 73.4781 14.5 -14.3145
      vertex 68.7 14.5 -3.5
    endloop
  endfacet
  facet normal 0 1 0
    outer loop
      vertex 72.7866 14.5 -14.5662
      vertex 72.7249 14.5 -14.6074
      vertex 68.7 14.5 -3.5
    endloop
  endfacet
  facet normal 0 1 0
    outer loop
      vertex 72.7249 14.5 -14.6074
      vertex 72.6651 14.5 -14.6513
      vertex 68.7 14.5 -3.5
    endloop
  endfacet
  facet normal 0 1 0
    outer loop
      vertex 68.7 14.5 -3.5
      vertex 72.6651 14.5 -14.6513
      vertex 72.6073 14.5 -14.6977
    endloop
  endfacet
  facet normal 0 1 0
    outer loop
      vertex 72.6073 14.5 -14.6977
      vertex 72.5515 14.5 -14.7466
      vertex 68.7 14.5 -3.5
    endloop
  endfacet
  facet normal 0 1 0
    outer loop
      vertex 72.5515 14.5 -14.7466
      vertex 72.4979 14.5 -14.7979
      vertex 68.7 14.5 -3.5
    endloop
  endfacet
  facet normal 0 1 0
    outer loop
      vertex 68.7 14.5 -3.5
      vertex 72.4979 14.5 -14.7979
      vertex 72.4466 14.5 -14.8515
    endloop
  endfacet
  facet normal 0 1 0
    outer loop
      vertex 74.6134 14.5 -17.4338
      vertex 79.8 14.5 -23
      vertex 74.55 14.5 -17.4722
    endloop
  endfacet
  facet normal 0 1 0
    outer loop
      vertex 79.8 14.5 -23
      vertex 74.485 14.5 -17.5079
      vertex 74.55 14.5 -17.4722
    endloop
  endfacet
  facet normal 0 1 0
    outer loop
      vertex 75.2407 14.5 -16.7185
      vertex 75.2706 14.5 -16.6506
      vertex 79.8 14.5 -23
    endloop
  endfacet
  facet normal 0 1 0
    outer loop
      vertex 75.2706 14.5 -16.6506
      vertex 75.2975 14.5 -16.5814
      vertex 79.8 14.5 -23
    endloop
  endfacet
  facet normal 0 1 0
    outer loop
      vertex 79.8 14.5 -23
      vertex 75.2975 14.5 -16.5814
      vertex 75.3213 14.5 -16.5112
    endloop
  endfacet
  facet normal 0 1 0
    outer loop
      vertex 75.3213 14.5 -16.5112
      vertex 75.3421 14.5 -16.44
      vertex 79.8 14.5 -23
    endloop
  endfacet
  facet normal 0 1 0
    outer loop
      vertex 75.3421 14.5 -16.44
      vertex 75.3597 14.5 -16.3679
      vertex 79.8 14.5 -23
    endloop
  endfacet
  facet normal 0 1 0
    outer loop
      vertex 79.8 14.5 -23
      vertex 75.3597 14.5 -16.3679
      vertex 75.3742 14.5 -16.2952
    endloop
  endfacet
  facet normal 0 1 0
    outer loop
      vertex 74.2112 14.5 -14.3787
      vertex 74.14 14.5 -14.3579
      vertex 68.7 14.5 -3.5
    endloop
  endfacet
  facet normal 0 1 0
    outer loop
      vertex 74.14 14.5 -14.3579
      vertex 74.068 14.5 -14.3403
      vertex 68.7 14.5 -3.5
    endloop
  endfacet
  facet normal 0 1 0
    outer loop
      vertex 68.7 14.5 -3.5
      vertex 74.068 14.5 -14.3403
      vertex 73.9952 14.5 -14.3258
    endloop
  endfacet
  facet normal 0 1 0
    outer loop
      vertex 73.4781 14.5 -14.3145
      vertex 73.4048 14.5 -14.3258
      vertex 68.7 14.5 -3.5
    endloop
  endfacet
  facet normal 0 1 0
    outer loop
      vertex 73.4048 14.5 -14.3258
      vertex 73.332 14.5 -14.3403
      vertex 68.7 14.5 -3.5
    endloop
  endfacet
  facet normal 0 1 0
    outer loop
      vertex 68.7 14.5 -3.5
      vertex 73.332 14.5 -14.3403
      vertex 73.26 14.5 -14.3579
    endloop
  endfacet
  facet normal 0 1 0
    outer loop
      vertex 74.2814 14.5 -17.5975
      vertex 74.3506 14.5 -17.5706
      vertex 79.8 14.5 -23
    endloop
  endfacet
  facet normal 0 1 0
    outer loop
      vertex 74.3506 14.5 -17.5706
      vertex 74.4184 14.5 -17.5407
      vertex 79.8 14.5 -23
    endloop
  endfacet
  facet normal 0 1 0
    outer loop
      vertex 79.8 14.5 -23
      vertex 74.4184 14.5 -17.5407
      vertex 74.485 14.5 -17.5079
    endloop
  endfacet
  facet normal 0 1 0
    outer loop
      vertex 75.3742 14.5 -16.2952
      vertex 75.3855 14.5 -16.2219
      vertex 79.8 14.5 -23
    endloop
  endfacet
  facet normal 0 1 0
    outer loop
      vertex 75.3855 14.5 -16.2219
      vertex 75.3935 14.5 -16.1482
      vertex 79.8 14.5 -23
    endloop
  endfacet
  facet normal 0 1 0
    outer loop
      vertex 79.8 14.5 -23
      vertex 75.3935 14.5 -16.1482
      vertex 79.8 14.5 -11
    endloop
  endfacet
  facet normal 0 1 0
    outer loop
      vertex 75.3935 14.5 -16.1482
      vertex 75.3984 14.5 -16.0742
      vertex 79.8 14.5 -11
    endloop
  endfacet
  facet normal 0 1 0
    outer loop
      vertex 79.8 14.5 -11
      vertex 75.3984 14.5 -16.0742
      vertex 75.4 14.5 -16
    endloop
  endfacet
  facet normal 0 1 0
    outer loop
      vertex 73.9952 14.5 -14.3258
      vertex 73.9219 14.5 -14.3145
      vertex 68.7 14.5 -3.5
    endloop
  endfacet
  facet normal 0 1 0
    outer loop
      vertex 73.9219 14.5 -14.3145
      vertex 73.8482 14.5 -14.3065
      vertex 68.7 14.5 -3.5
    endloop
  endfacet
  facet normal 0 1 0
    outer loop
      vertex 68.7 14.5 -3.5
      vertex 73.8482 14.5 -14.3065
      vertex 73.7742 14.5 -14.3016
    endloop
  endfacet
  facet normal 0 1 0
    outer loop
      vertex 73.7742 14.5 -14.3016
      vertex 73.7 14.5 -14.3
      vertex 68.7 14.5 -3.5
    endloop
  endfacet
  facet normal 0 1 0
    outer loop
      vertex 73.7 14.5 -14.3
      vertex 73.6258 14.5 -14.3016
      vertex 68.7 14.5 -3.5
    endloop
  endfacet
  facet normal 0 1 0
    outer loop
      vertex 68.7 14.5 -3.5
      vertex 73.6258 14.5 -14.3016
      vertex 73.5518 14.5 -14.3065
    endloop
  endfacet
  facet normal 0 1 0
    outer loop
      vertex 72.7249 14.5 -17.3926
      vertex 72.7866 14.5 -17.4338
      vertex 68.7 14.5 -23
    endloop
  endfacet
  facet normal 0 1 0
    outer loop
      vertex 72.7866 14.5 -17.4338
      vertex 72.85 14.5 -17.4722
      vertex 68.7 14.5 -23
    endloop
  endfacet
  facet normal 0 1 0
    outer loop
      vertex 68.7 14.5 -23
      vertex 72.85 14.5 -17.4722
      vertex 72.915 14.5 -17.5079
    endloop
  endfacet
  facet normal 0 1 0
    outer loop
      vertex 72.915 14.5 -17.5079
      vertex 72.9816 14.5 -17.5407
      vertex 68.7 14.5 -23
    endloop
  endfacet
  facet normal 0 1 0
    outer loop
      vertex 72.9816 14.5 -17.5407
      vertex 73.0494 14.5 -17.5706
      vertex 68.7 14.5 -23
    endloop
  endfacet
  facet normal 0 1 0
    outer loop
      vertex 68.7 14.5 -23
      vertex 73.0494 14.5 -17.5706
      vertex 73.1186 14.5 -17.5975
    endloop
  endfacet
  facet normal 0 1 0
    outer loop
      vertex 73.1186 14.5 -17.5975
      vertex 73.1888 14.5 -17.6213
      vertex 68.7 14.5 -23
    endloop
  endfacet
  facet normal 0 1 0
    outer loop
      vertex 73.1888 14.5 -17.6213
      vertex 73.26 14.5 -17.6421
      vertex 68.7 14.5 -23
    endloop
  endfacet
  facet normal 0 1 0
    outer loop
      vertex 68.7 14.5 -23
      vertex 73.26 14.5 -17.6421
      vertex 73.332 14.5 -17.6597
    endloop
  endfacet
  facet normal 0 1 0
    outer loop
      vertex 74.7927 14.5 -17.3023
      vertex 74.8485 14.5 -17.2534
      vertex 79.8 14.5 -23
    endloop
  endfacet
  facet normal 0 1 0
    outer loop
      vertex 74.8485 14.5 -17.2534
      vertex 74.9021 14.5 -17.2021
      vertex 79.8 14.5 -23
    endloop
  endfacet
  facet normal 0 1 0
    outer loop
      vertex 79.8 14.5 -23
      vertex 74.9021 14.5 -17.2021
      vertex 74.9534 14.5 -17.1485
    endloop
  endfacet
  facet normal 0 1 0
    outer loop
      vertex 74.6134 14.5 -17.4338
      vertex 74.6751 14.5 -17.3926
      vertex 79.8 14.5 -23
    endloop
  endfacet
  facet normal 0 1 0
    outer loop
      vertex 74.6751 14.5 -17.3926
      vertex 74.7349 14.5 -17.3487
      vertex 79.8 14.5 -23
    endloop
  endfacet
  facet normal 0 1 0
    outer loop
      vertex 79.8 14.5 -23
      vertex 74.7349 14.5 -17.3487
      vertex 74.7927 14.5 -17.3023
    endloop
  endfacet
  facet normal 0 1 0
    outer loop
      vertex 74.9534 14.5 -17.1485
      vertex 75.0023 14.5 -17.0927
      vertex 79.8 14.5 -23
    endloop
  endfacet
  facet normal 0 1 0
    outer loop
      vertex 75.0023 14.5 -17.0927
      vertex 75.0487 14.5 -17.0349
      vertex 79.8 14.5 -23
    endloop
  endfacet
  facet normal 0 1 0
    outer loop
      vertex 79.8 14.5 -23
      vertex 75.0487 14.5 -17.0349
      vertex 75.0926 14.5 -16.9751
    endloop
  endfacet
  facet normal 0 1 0
    outer loop
      vertex 73.8482 14.5 -17.6935
      vertex 73.9219 14.5 -17.6855
      vertex 79.8 14.5 -23
    endloop
  endfacet
  facet normal 0 1 0
    outer loop
      vertex 73.9219 14.5 -17.6855
      vertex 73.9952 14.5 -17.6742
      vertex 79.8 14.5 -23
    endloop
  endfacet
  facet normal 0 1 0
    outer loop
      vertex 79.8 14.5 -23
      vertex 73.9952 14.5 -17.6742
      vertex 74.068 14.5 -17.6597
    endloop
  endfacet
  facet normal 0 1 0
    outer loop
      vertex 74.068 14.5 -17.6597
      vertex 74.14 14.5 -17.6421
      vertex 79.8 14.5 -23
    endloop
  endfacet
  facet normal 0 1 0
    outer loop
      vertex 74.14 14.5 -17.6421
      vertex 74.2112 14.5 -17.6213
      vertex 79.8 14.5 -23
    endloop
  endfacet
  facet normal 0 1 0
    outer loop
      vertex 79.8 14.5 -23
      vertex 74.2112 14.5 -17.6213
      vertex 74.2814 14.5 -17.5975
    endloop
  endfacet
  facet normal 0 1 0
    outer loop
      vertex 73.332 14.5 -17.6597
      vertex 73.4048 14.5 -17.6742
      vertex 68.7 14.5 -23
    endloop
  endfacet
  facet normal 0 1 0
    outer loop
      vertex 73.4048 14.5 -17.6742
      vertex 73.4781 14.5 -17.6855
      vertex 68.7 14.5 -23
    endloop
  endfacet
  facet normal 0 1 0
    outer loop
      vertex 68.7 14.5 -23
      vertex 73.4781 14.5 -17.6855
      vertex 73.5518 14.5 -17.6935
    endloop
  endfacet
  facet normal 0 1 0
    outer loop
      vertex 73.5518 14.5 -17.6935
      vertex 73.6258 14.5 -17.6984
      vertex 68.7 14.5 -23
    endloop
  endfacet
  facet normal 0 1 0
    outer loop
      vertex 73.6258 14.5 -17.6984
      vertex 73.7 14.5 -17.7
      vertex 68.7 14.5 -23
    endloop
  endfacet
  facet normal 0 1 0
    outer loop
      vertex 68.7 14.5 -23
      vertex 73.7 14.5 -17.7
      vertex 79.8 14.5 -23
    endloop
  endfacet
  facet normal 0 1 0
    outer loop
      vertex 73.7 14.5 -17.7
      vertex 73.7742 14.5 -17.6984
      vertex 79.8 14.5 -23
    endloop
  endfacet
  facet normal 0 1 0
    outer loop
      vertex 79.8 14.5 -23
      vertex 73.7742 14.5 -17.6984
      vertex 73.8482 14.5 -17.6935
    endloop
  endfacet
  facet normal -1 0 0
    outer loop
      vertex 68.7 9.5 -11
      vertex 68.7 9.5 -3.5
      vertex 68.7 12 -11
    endloop
  endfacet
  facet normal -1 0 0
    outer loop
      vertex 68.7 9.5 -3.5
      vertex 68.7 14.5 -3.5
      vertex 68.7 12 -11
    endloop
  endfacet
  facet normal -1 0 0
    outer loop
      vertex 68.7 12 -11
      vertex 68.7 14.5 -3.5
      vertex 68.7 12 -21.2
    endloop
  endfacet
  facet normal -1 0 0
    outer loop
      vertex 68.7 14.5 -3.5
      vertex 68.7 14.5 -23
      vertex 68.7 12 -21.2
    endloop
  endfacet
  facet normal -1 0 0
    outer loop
      vertex 68.7 12 -21.2
      vertex 68.7 14.5 -23
      vertex 68.7 10 -21.2
    endloop
  endfacet
  facet normal -1 0 0
    outer loop
      vertex 68.7 14.5 -23
      vertex 68.7 10 -23
      vertex 68.7 10 -21.2
    endloop
  endfacet
  facet normal 0 -1 0
    outer loop
      vertex 72.3977 12 -17.0927
      vertex 72.3513 12 -17.0349
      vertex 68.7 12 -21.2
    endloop
  endfacet
  facet normal 0 -1 0
    outer loop
      vertex 72.7866 12 -17.4338
      vertex 72.7249 12 -17.3926
      vertex 68.7 12 -21.2
    endloop
  endfacet
  facet normal 0 -1 0
    outer loop
      vertex 72.9816 12 -17.5407
      vertex 72.915 12 -17.5079
      vertex 68.7 12 -21.2
    endloop
  endfacet
  facet normal 0 -1 0
    outer loop
      vertex 72.915 12 -17.5079
      vertex 72.85 12 -17.4722
      vertex 68.7 12 -21.2
    endloop
  endfacet
  facet normal 0 -1 0
    outer loop
      vertex 68.7 12 -21.2
      vertex 72.85 12 -17.4722
      vertex 72.7866 12 -17.4338
    endloop
  endfacet
  facet normal 0 -1 0
    outer loop
      vertex 72.5515 12 -17.2534
      vertex 72.4979 12 -17.2021
      vertex 68.7 12 -21.2
    endloop
  endfacet
  facet normal 0 -1 0
    outer loop
      vertex 72.4979 12 -17.2021
      vertex 72.4466 12 -17.1485
      vertex 68.7 12 -21.2
    endloop
  endfacet
  facet normal 0 -1 0
    outer loop
      vertex 68.7 12 -21.2
      vertex 72.4466 12 -17.1485
      vertex 72.3977 12 -17.0927
    endloop
  endfacet
  facet normal 0 -1 0
    outer loop
      vertex 75.0487 12 -17.0349
      vertex 75.0023 12 -17.0927
      vertex 79.8 12 -21.2
    endloop
  endfacet
  facet normal 0 -1 0
    outer loop
      vertex 72.7249 12 -17.3926
      vertex 72.6651 12 -17.3487
      vertex 68.7 12 -21.2
    endloop
  endfacet
  facet normal 0 -1 0
    outer loop
      vertex 72.6651 12 -17.3487
      vertex 72.6073 12 -17.3023
      vertex 68.7 12 -21.2
    endloop
  endfacet
  facet normal 0 -1 0
    outer loop
      vertex 68.7 12 -21.2
      vertex 72.6073 12 -17.3023
      vertex 72.5515 12 -17.2534
    endloop
  endfacet
  facet normal 0 -1 0
    outer loop
      vertex 74.6751 12 -17.3926
      vertex 74.6134 12 -17.4338
      vertex 79.8 12 -21.2
    endloop
  endfacet
  facet normal 0 -1 0
    outer loop
      vertex 75.2706 12 -15.3494
      vertex 75.2975 12 -15.4186
      vertex 79.8 12 -11
    endloop
  endfacet
  facet normal 0 -1 0
    outer loop
      vertex 75.2975 12 -15.4186
      vertex 75.3213 12 -15.4888
      vertex 79.8 12 -11
    endloop
  endfacet
  facet normal 0 -1 0
    outer loop
      vertex 75.3213 12 -15.4888
      vertex 75.3421 12 -15.56
      vertex 79.8 12 -11
    endloop
  endfacet
  facet normal 0 -1 0
    outer loop
      vertex 79.8 12 -11
      vertex 75.3421 12 -15.56
      vertex 75.3597 12 -15.6321
    endloop
  endfacet
  facet normal 0 -1 0
    outer loop
      vertex 73.9952 12 -17.6742
      vertex 73.9219 12 -17.6855
      vertex 79.8 12 -21.2
    endloop
  endfacet
  facet normal 0 -1 0
    outer loop
      vertex 73.4048 12 -17.6742
      vertex 73.332 12 -17.6597
      vertex 68.7 12 -21.2
    endloop
  endfacet
  facet normal 0 -1 0
    outer loop
      vertex 73.332 12 -17.6597
      vertex 73.26 12 -17.6421
      vertex 68.7 12 -21.2
    endloop
  endfacet
  facet normal 0 -1 0
    outer loop
      vertex 68.7 12 -21.2
      vertex 73.26 12 -17.6421
      vertex 73.1888 12 -17.6213
    endloop
  endfacet
  facet normal 0 -1 0
    outer loop
      vertex 73.1888 12 -17.6213
      vertex 73.1186 12 -17.5975
      vertex 68.7 12 -21.2
    endloop
  endfacet
  facet normal 0 -1 0
    outer loop
      vertex 73.1186 12 -17.5975
      vertex 73.0494 12 -17.5706
      vertex 68.7 12 -21.2
    endloop
  endfacet
  facet normal 0 -1 0
    outer loop
      vertex 68.7 12 -21.2
      vertex 73.0494 12 -17.5706
      vertex 72.9816 12 -17.5407
    endloop
  endfacet
  facet normal 0 -1 0
    outer loop
      vertex 72.1593 12 -16.7185
      vertex 68.7 12 -21.2
      vertex 72.1921 12 -16.785
    endloop
  endfacet
  facet normal 0 -1 0
    outer loop
      vertex 68.7 12 -21.2
      vertex 72.2278 12 -16.85
      vertex 72.1921 12 -16.785
    endloop
  endfacet
  facet normal 0 -1 0
    outer loop
      vertex 72.1593 12 -16.7185
      vertex 72.1294 12 -16.6506
      vertex 68.7 12 -21.2
    endloop
  endfacet
  facet normal 0 -1 0
    outer loop
      vertex 72.1294 12 -16.6506
      vertex 72.1025 12 -16.5814
      vertex 68.7 12 -21.2
    endloop
  endfacet
  facet normal 0 -1 0
    outer loop
      vertex 68.7 12 -21.2
      vertex 72.1025 12 -16.5814
      vertex 72.0787 12 -16.5112
    endloop
  endfacet
  facet normal 0 -1 0
    outer loop
      vertex 79.8 12 -21.2
      vertex 75.2975 12 -16.5814
      vertex 75.2706 12 -16.6506
    endloop
  endfacet
  facet normal 0 -1 0
    outer loop
      vertex 75.2706 12 -16.6506
      vertex 75.2407 12 -16.7185
      vertex 79.8 12 -21.2
    endloop
  endfacet
  facet normal 0 -1 0
    outer loop
      vertex 75.2407 12 -16.7185
      vertex 75.2079 12 -16.785
      vertex 79.8 12 -21.2
    endloop
  endfacet
  facet normal 0 -1 0
    outer loop
      vertex 79.8 12 -21.2
      vertex 75.2079 12 -16.785
      vertex 75.1722 12 -16.85
    endloop
  endfacet
  facet normal 0 -1 0
    outer loop
      vertex 75.1722 12 -16.85
      vertex 75.1338 12 -16.9134
      vertex 79.8 12 -21.2
    endloop
  endfacet
  facet normal 0 -1 0
    outer loop
      vertex 75.1338 12 -16.9134
      vertex 75.0926 12 -16.9751
      vertex 79.8 12 -21.2
    endloop
  endfacet
  facet normal 0 -1 0
    outer loop
      vertex 79.8 12 -21.2
      vertex 75.0926 12 -16.9751
      vertex 75.0487 12 -17.0349
    endloop
  endfacet
  facet normal 0 -1 0
    outer loop
      vertex 74.6134 12 -17.4338
      vertex 74.55 12 -17.4722
      vertex 79.8 12 -21.2
    endloop
  endfacet
  facet normal 0 -1 0
    outer loop
      vertex 74.55 12 -17.4722
      vertex 74.485 12 -17.5079
      vertex 79.8 12 -21.2
    endloop
  endfacet
  facet normal 0 -1 0
    outer loop
      vertex 79.8 12 -21.2
      vertex 74.485 12 -17.5079
      vertex 74.4184 12 -17.5407
    endloop
  endfacet
  facet normal 0 -1 0
    outer loop
      vertex 73.9219 12 -17.6855
      vertex 73.8482 12 -17.6935
      vertex 79.8 12 -21.2
    endloop
  endfacet
  facet normal 0 -1 0
    outer loop
      vertex 73.8482 12 -17.6935
      vertex 73.7742 12 -17.6984
      vertex 79.8 12 -21.2
    endloop
  endfacet
  facet normal 0 -1 0
    outer loop
      vertex 79.8 12 -21.2
      vertex 73.7742 12 -17.6984
      vertex 68.7 12 -21.2
    endloop
  endfacet
  facet normal 0 -1 0
    outer loop
      vertex 73.7742 12 -17.6984
      vertex 73.7 12 -17.7
      vertex 68.7 12 -21.2
    endloop
  endfacet
  facet normal 0 -1 0
    outer loop
      vertex 68.7 12 -21.2
      vertex 73.7 12 -17.7
      vertex 73.6258 12 -17.6984
    endloop
  endfacet
  facet normal 0 -1 0
    outer loop
      vertex 73.6258 12 -17.6984
      vertex 73.5518 12 -17.6935
      vertex 68.7 12 -21.2
    endloop
  endfacet
  facet normal 0 -1 0
    outer loop
      vertex 73.5518 12 -17.6935
      vertex 73.4781 12 -17.6855
      vertex 68.7 12 -21.2
    endloop
  endfacet
  facet normal 0 -1 0
    outer loop
      vertex 68.7 12 -21.2
      vertex 73.4781 12 -17.6855
      vertex 73.4048 12 -17.6742
    endloop
  endfacet
  facet normal 0 -1 0
    outer loop
      vertex 72.3513 12 -17.0349
      vertex 72.3074 12 -16.9751
      vertex 68.7 12 -21.2
    endloop
  endfacet
  facet normal 0 -1 0
    outer loop
      vertex 72.3074 12 -16.9751
      vertex 72.2662 12 -16.9134
      vertex 68.7 12 -21.2
    endloop
  endfacet
  facet normal 0 -1 0
    outer loop
      vertex 68.7 12 -21.2
      vertex 72.2662 12 -16.9134
      vertex 72.2278 12 -16.85
    endloop
  endfacet
  facet normal 0 -1 0
    outer loop
      vertex 75.0023 12 -17.0927
      vertex 74.9534 12 -17.1485
      vertex 79.8 12 -21.2
    endloop
  endfacet
  facet normal 0 -1 0
    outer loop
      vertex 74.9534 12 -17.1485
      vertex 74.9021 12 -17.2021
      vertex 79.8 12 -21.2
    endloop
  endfacet
  facet normal 0 -1 0
    outer loop
      vertex 79.8 12 -21.2
      vertex 74.9021 12 -17.2021
      vertex 74.8485 12 -17.2534
    endloop
  endfacet
  facet normal 0 -1 0
    outer loop
      vertex 74.4184 12 -17.5407
      vertex 74.3506 12 -17.5706
      vertex 79.8 12 -21.2
    endloop
  endfacet
  facet normal 0 -1 0
    outer loop
      vertex 74.3506 12 -17.5706
      vertex 74.2814 12 -17.5975
      vertex 79.8 12 -21.2
    endloop
  endfacet
  facet normal 0 -1 0
    outer loop
      vertex 79.8 12 -21.2
      vertex 74.2814 12 -17.5975
      vertex 74.2112 12 -17.6213
    endloop
  endfacet
  facet normal 0 -1 0
    outer loop
      vertex 68.7 12 -11
      vertex 72.1025 12 -15.4186
      vertex 72.1294 12 -15.3494
    endloop
  endfacet
  facet normal 0 -1 0
    outer loop
      vertex 75.3597 12 -15.6321
      vertex 75.3742 12 -15.7048
      vertex 79.8 12 -11
    endloop
  endfacet
  facet normal 0 -1 0
    outer loop
      vertex 75.3742 12 -15.7048
      vertex 75.3855 12 -15.7781
      vertex 79.8 12 -11
    endloop
  endfacet
  facet normal 0 -1 0
    outer loop
      vertex 79.8 12 -11
      vertex 75.3855 12 -15.7781
      vertex 75.3935 12 -15.8518
    endloop
  endfacet
  facet normal 0 -1 0
    outer loop
      vertex 75.3935 12 -15.8518
      vertex 75.3984 12 -15.9258
      vertex 79.8 12 -11
    endloop
  endfacet
  facet normal 0 -1 0
    outer loop
      vertex 75.3984 12 -15.9258
      vertex 75.4 12 -16
      vertex 79.8 12 -11
    endloop
  endfacet
  facet normal 0 -1 0
    outer loop
      vertex 79.8 12 -11
      vertex 75.4 12 -16
      vertex 79.8 12 -21.2
    endloop
  endfacet
  facet normal 0 -1 0
    outer loop
      vertex 75.4 12 -16
      vertex 75.3984 12 -16.0742
      vertex 79.8 12 -21.2
    endloop
  endfacet
  facet normal 0 -1 0
    outer loop
      vertex 79.8 12 -21.2
      vertex 75.3984 12 -16.0742
      vertex 75.3935 12 -16.1482
    endloop
  endfacet
  facet normal 0 -1 0
    outer loop
      vertex 75.3597 12 -16.3679
      vertex 75.3421 12 -16.44
      vertex 79.8 12 -21.2
    endloop
  endfacet
  facet normal 0 -1 0
    outer loop
      vertex 75.3421 12 -16.44
      vertex 75.3213 12 -16.5112
      vertex 79.8 12 -21.2
    endloop
  endfacet
  facet normal 0 -1 0
    outer loop
      vertex 79.8 12 -21.2
      vertex 75.3213 12 -16.5112
      vertex 75.2975 12 -16.5814
    endloop
  endfacet
  facet normal 0 -1 0
    outer loop
      vertex 74.8485 12 -17.2534
      vertex 74.7927 12 -17.3023
      vertex 79.8 12 -21.2
    endloop
  endfacet
  facet normal 0 -1 0
    outer loop
      vertex 74.7927 12 -17.3023
      vertex 74.7349 12 -17.3487
      vertex 79.8 12 -21.2
    endloop
  endfacet
  facet normal 0 -1 0
    outer loop
      vertex 79.8 12 -21.2
      vertex 74.7349 12 -17.3487
      vertex 74.6751 12 -17.3926
    endloop
  endfacet
  facet normal 0 -1 0
    outer loop
      vertex 74.2112 12 -17.6213
      vertex 74.14 12 -17.6421
      vertex 79.8 12 -21.2
    endloop
  endfacet
  facet normal 0 -1 0
    outer loop
      vertex 74.14 12 -17.6421
      vertex 74.068 12 -17.6597
      vertex 79.8 12 -21.2
    endloop
  endfacet
  facet normal 0 -1 0
    outer loop
      vertex 79.8 12 -21.2
      vertex 74.068 12 -17.6597
      vertex 73.9952 12 -17.6742
    endloop
  endfacet
  facet normal 0 -1 0
    outer loop
      vertex 72.0787 12 -16.5112
      vertex 72.0579 12 -16.44
      vertex 68.7 12 -21.2
    endloop
  endfacet
  facet normal 0 -1 0
    outer loop
      vertex 72.0579 12 -16.44
      vertex 72.0403 12 -16.3679
      vertex 68.7 12 -21.2
    endloop
  endfacet
  facet normal 0 -1 0
    outer loop
      vertex 68.7 12 -21.2
      vertex 72.0403 12 -16.3679
      vertex 72.0258 12 -16.2952
    endloop
  endfacet
  facet normal 0 -1 0
    outer loop
      vertex 68.7 12 -11
      vertex 68.7 12 -21.2
      vertex 72.0016 12 -16.0742
    endloop
  endfacet
  facet normal 0 -1 0
    outer loop
      vertex 72.1294 12 -15.3494
      vertex 72.1593 12 -15.2815
      vertex 68.7 12 -11
    endloop
  endfacet
  facet normal 0 -1 0
    outer loop
      vertex 72.1593 12 -15.2815
      vertex 72.1921 12 -15.215
      vertex 68.7 12 -11
    endloop
  endfacet
  facet normal 0 -1 0
    outer loop
      vertex 68.7 12 -11
      vertex 72.1921 12 -15.215
      vertex 72.2278 12 -15.15
    endloop
  endfacet
  facet normal 0 -1 0
    outer loop
      vertex 72.0258 12 -16.2952
      vertex 72.0145 12 -16.2219
      vertex 68.7 12 -21.2
    endloop
  endfacet
  facet normal 0 -1 0
    outer loop
      vertex 72.0145 12 -16.2219
      vertex 72.0065 12 -16.1482
      vertex 68.7 12 -21.2
    endloop
  endfacet
  facet normal 0 -1 0
    outer loop
      vertex 68.7 12 -21.2
      vertex 72.0065 12 -16.1482
      vertex 72.0016 12 -16.0742
    endloop
  endfacet
  facet normal 0 -1 0
    outer loop
      vertex 72.0016 12 -16.0742
      vertex 72 12 -16
      vertex 68.7 12 -11
    endloop
  endfacet
  facet normal 0 -1 0
    outer loop
      vertex 72 12 -16
      vertex 72.0016 12 -15.9258
      vertex 68.7 12 -11
    endloop
  endfacet
  facet normal 0 -1 0
    outer loop
      vertex 68.7 12 -11
      vertex 72.0016 12 -15.9258
      vertex 72.0065 12 -15.8518
    endloop
  endfacet
  facet normal 0 -1 0
    outer loop
      vertex 72.0403 12 -15.6321
      vertex 72.0579 12 -15.56
      vertex 68.7 12 -11
    endloop
  endfacet
  facet normal 0 -1 0
    outer loop
      vertex 72.0579 12 -15.56
      vertex 72.0787 12 -15.4888
      vertex 68.7 12 -11
    endloop
  endfacet
  facet normal 0 -1 0
    outer loop
      vertex 68.7 12 -11
      vertex 72.0787 12 -15.4888
      vertex 72.1025 12 -15.4186
    endloop
  endfacet
  facet normal 0 -1 0
    outer loop
      vertex 72.2278 12 -15.15
      vertex 72.2662 12 -15.0866
      vertex 68.7 12 -11
    endloop
  endfacet
  facet normal 0 -1 0
    outer loop
      vertex 72.2662 12 -15.0866
      vertex 72.3074 12 -15.0249
      vertex 68.7 12 -11
    endloop
  endfacet
  facet normal 0 -1 0
    outer loop
      vertex 68.7 12 -11
      vertex 72.3074 12 -15.0249
      vertex 72.3513 12 -14.9651
    endloop
  endfacet
  facet normal 0 -1 0
    outer loop
      vertex 75.0487 12 -14.9651
      vertex 75.0926 12 -15.0249
      vertex 79.8 12 -11
    endloop
  endfacet
  facet normal 0 -1 0
    outer loop
      vertex 75.0926 12 -15.0249
      vertex 75.1338 12 -15.0866
      vertex 79.8 12 -11
    endloop
  endfacet
  facet normal 0 -1 0
    outer loop
      vertex 79.8 12 -11
      vertex 75.1338 12 -15.0866
      vertex 75.1722 12 -15.15
    endloop
  endfacet
  facet normal 0 -1 0
    outer loop
      vertex 75.3935 12 -16.1482
      vertex 75.3855 12 -16.2219
      vertex 79.8 12 -21.2
    endloop
  endfacet
  facet normal 0 -1 0
    outer loop
      vertex 75.3855 12 -16.2219
      vertex 75.3742 12 -16.2952
      vertex 79.8 12 -21.2
    endloop
  endfacet
  facet normal 0 -1 0
    outer loop
      vertex 79.8 12 -21.2
      vertex 75.3742 12 -16.2952
      vertex 75.3597 12 -16.3679
    endloop
  endfacet
  facet normal 0 -1 0
    outer loop
      vertex 72.3513 12 -14.9651
      vertex 72.3977 12 -14.9073
      vertex 68.7 12 -11
    endloop
  endfacet
  facet normal 0 -1 0
    outer loop
      vertex 72.3977 12 -14.9073
      vertex 72.4466 12 -14.8515
      vertex 68.7 12 -11
    endloop
  endfacet
  facet normal 0 -1 0
    outer loop
      vertex 68.7 12 -11
      vertex 72.4466 12 -14.8515
      vertex 72.4979 12 -14.7979
    endloop
  endfacet
  facet normal 0 -1 0
    outer loop
      vertex 75.1722 12 -15.15
      vertex 75.2079 12 -15.215
      vertex 79.8 12 -11
    endloop
  endfacet
  facet normal 0 -1 0
    outer loop
      vertex 75.2079 12 -15.215
      vertex 75.2407 12 -15.2815
      vertex 79.8 12 -11
    endloop
  endfacet
  facet normal 0 -1 0
    outer loop
      vertex 79.8 12 -11
      vertex 75.2407 12 -15.2815
      vertex 75.2706 12 -15.3494
    endloop
  endfacet
  facet normal 0 -1 0
    outer loop
      vertex 72.0065 12 -15.8518
      vertex 72.0145 12 -15.7781
      vertex 68.7 12 -11
    endloop
  endfacet
  facet normal 0 -1 0
    outer loop
      vertex 72.0145 12 -15.7781
      vertex 72.0258 12 -15.7048
      vertex 68.7 12 -11
    endloop
  endfacet
  facet normal 0 -1 0
    outer loop
      vertex 68.7 12 -11
      vertex 72.0258 12 -15.7048
      vertex 72.0403 12 -15.6321
    endloop
  endfacet
  facet normal 0 -1 0
    outer loop
      vertex 68.7 12 -11
      vertex 72.6651 12 -14.6513
      vertex 72.7249 12 -14.6074
    endloop
  endfacet
  facet normal 0 -1 0
    outer loop
      vertex 72.4979 12 -14.7979
      vertex 72.5515 12 -14.7466
      vertex 68.7 12 -11
    endloop
  endfacet
  facet normal 0 -1 0
    outer loop
      vertex 72.5515 12 -14.7466
      vertex 72.6073 12 -14.6977
      vertex 68.7 12 -11
    endloop
  endfacet
  facet normal 0 -1 0
    outer loop
      vertex 68.7 12 -11
      vertex 72.6073 12 -14.6977
      vertex 72.6651 12 -14.6513
    endloop
  endfacet
  facet normal 0 -1 0
    outer loop
      vertex 72.7249 12 -14.6074
      vertex 72.7866 12 -14.5662
      vertex 68.7 12 -11
    endloop
  endfacet
  facet normal 0 -1 0
    outer loop
      vertex 72.7866 12 -14.5662
      vertex 72.85 12 -14.5278
      vertex 68.7 12 -11
    endloop
  endfacet
  facet normal 0 -1 0
    outer loop
      vertex 68.7 12 -11
      vertex 72.85 12 -14.5278
      vertex 72.915 12 -14.4921
    endloop
  endfacet
  facet normal 0 -1 0
    outer loop
      vertex 72.915 12 -14.4921
      vertex 72.9816 12 -14.4593
      vertex 68.7 12 -11
    endloop
  endfacet
  facet normal 0 -1 0
    outer loop
      vertex 72.9816 12 -14.4593
      vertex 73.0494 12 -14.4294
      vertex 68.7 12 -11
    endloop
  endfacet
  facet normal 0 -1 0
    outer loop
      vertex 68.7 12 -11
      vertex 73.0494 12 -14.4294
      vertex 73.1186 12 -14.4025
    endloop
  endfacet
  facet normal 0 -1 0
    outer loop
      vertex 73.1186 12 -14.4025
      vertex 73.1888 12 -14.3787
      vertex 68.7 12 -11
    endloop
  endfacet
  facet normal 0 -1 0
    outer loop
      vertex 73.1888 12 -14.3787
      vertex 73.26 12 -14.3579
      vertex 68.7 12 -11
    endloop
  endfacet
  facet normal 0 -1 0
    outer loop
      vertex 68.7 12 -11
      vertex 73.26 12 -14.3579
      vertex 73.332 12 -14.3403
    endloop
  endfacet
  facet normal 0 -1 0
    outer loop
      vertex 74.6134 12 -14.5662
      vertex 74.6751 12 -14.6074
      vertex 79.8 12 -11
    endloop
  endfacet
  facet normal 0 -1 0
    outer loop
      vertex 74.6751 12 -14.6074
      vertex 74.7349 12 -14.6513
      vertex 79.8 12 -11
    endloop
  endfacet
  facet normal 0 -1 0
    outer loop
      vertex 74.7349 12 -14.6513
      vertex 74.7927 12 -14.6977
      vertex 79.8 12 -11
    endloop
  endfacet
  facet normal 0 -1 0
    outer loop
      vertex 74.7927 12 -14.6977
      vertex 74.8485 12 -14.7466
      vertex 79.8 12 -11
    endloop
  endfacet
  facet normal 0 -1 0
    outer loop
      vertex 79.8 12 -11
      vertex 74.8485 12 -14.7466
      vertex 74.9021 12 -14.7979
    endloop
  endfacet
  facet normal 0 -1 0
    outer loop
      vertex 73.332 12 -14.3403
      vertex 73.4048 12 -14.3258
      vertex 68.7 12 -11
    endloop
  endfacet
  facet normal 0 -1 0
    outer loop
      vertex 73.4048 12 -14.3258
      vertex 73.4781 12 -14.3145
      vertex 68.7 12 -11
    endloop
  endfacet
  facet normal 0 -1 0
    outer loop
      vertex 68.7 12 -11
      vertex 73.4781 12 -14.3145
      vertex 73.5518 12 -14.3065
    endloop
  endfacet
  facet normal 0 -1 0
    outer loop
      vertex 73.7742 12 -14.3016
      vertex 79.8 12 -11
      vertex 73.7 12 -14.3
    endloop
  endfacet
  facet normal 0 -1 0
    outer loop
      vertex 79.8 12 -11
      vertex 68.7 12 -11
      vertex 73.7 12 -14.3
    endloop
  endfacet
  facet normal 0 -1 0
    outer loop
      vertex 73.7 12 -14.3
      vertex 68.7 12 -11
      vertex 73.6258 12 -14.3016
    endloop
  endfacet
  facet normal 0 -1 0
    outer loop
      vertex 68.7 12 -11
      vertex 73.5518 12 -14.3065
      vertex 73.6258 12 -14.3016
    endloop
  endfacet
  facet normal 0 -1 0
    outer loop
      vertex 74.9021 12 -14.7979
      vertex 74.9534 12 -14.8515
      vertex 79.8 12 -11
    endloop
  endfacet
  facet normal 0 -1 0
    outer loop
      vertex 74.9534 12 -14.8515
      vertex 75.0023 12 -14.9073
      vertex 79.8 12 -11
    endloop
  endfacet
  facet normal 0 -1 0
    outer loop
      vertex 79.8 12 -11
      vertex 75.0023 12 -14.9073
      vertex 75.0487 12 -14.9651
    endloop
  endfacet
  facet normal 0 -1 0
    outer loop
      vertex 74.4184 12 -14.4593
      vertex 74.485 12 -14.4921
      vertex 79.8 12 -11
    endloop
  endfacet
  facet normal 0 -1 0
    outer loop
      vertex 74.485 12 -14.4921
      vertex 74.55 12 -14.5278
      vertex 79.8 12 -11
    endloop
  endfacet
  facet normal 0 -1 0
    outer loop
      vertex 79.8 12 -11
      vertex 74.55 12 -14.5278
      vertex 74.6134 12 -14.5662
    endloop
  endfacet
  facet normal 0 -1 0
    outer loop
      vertex 73.7742 12 -14.3016
      vertex 73.8482 12 -14.3065
      vertex 79.8 12 -11
    endloop
  endfacet
  facet normal 0 -1 0
    outer loop
      vertex 73.8482 12 -14.3065
      vertex 73.9219 12 -14.3145
      vertex 79.8 12 -11
    endloop
  endfacet
  facet normal 0 -1 0
    outer loop
      vertex 79.8 12 -11
      vertex 73.9219 12 -14.3145
      vertex 73.9952 12 -14.3258
    endloop
  endfacet
  facet normal 0 -1 0
    outer loop
      vertex 73.9952 12 -14.3258
      vertex 74.068 12 -14.3403
      vertex 79.8 12 -11
    endloop
  endfacet
  facet normal 0 -1 0
    outer loop
      vertex 74.068 12 -14.3403
      vertex 74.14 12 -14.3579
      vertex 79.8 12 -11
    endloop
  endfacet
  facet normal 0 -1 0
    outer loop
      vertex 79.8 12 -11
      vertex 74.14 12 -14.3579
      vertex 74.2112 12 -14.3787
    endloop
  endfacet
  facet normal 0 -1 0
    outer loop
      vertex 74.2112 12 -14.3787
      vertex 74.2814 12 -14.4025
      vertex 79.8 12 -11
    endloop
  endfacet
  facet normal 0 -1 0
    outer loop
      vertex 74.2814 12 -14.4025
      vertex 74.3506 12 -14.4294
      vertex 79.8 12 -11
    endloop
  endfacet
  facet normal 0 -1 0
    outer loop
      vertex 79.8 12 -11
      vertex 74.3506 12 -14.4294
      vertex 74.4184 12 -14.4593
    endloop
  endfacet
  facet normal 0 0 1
    outer loop
      vertex 68.7 14.5 -3.5
      vertex 68.7 9.5 -3.5
      vertex 85.9 14.5 -3.5
    endloop
  endfacet
  facet normal 0 0 1
    outer loop
      vertex 68.7 9.5 -3.5
      vertex 85.9 9.5 -3.5
      vertex 85.9 14.5 -3.5
    endloop
  endfacet
  facet normal 0.99976 0 -0.0218982
    outer loop
      vertex 72 12 -16
      vertex 72 14.5 -16
      vertex 72.0016 12 -15.9258
    endloop
  endfacet
  facet normal 0.99976 0 -0.0218982
    outer loop
      vertex 72 14.5 -16
      vertex 72.0016 14.5 -15.9258
      vertex 72.0016 12 -15.9258
    endloop
  endfacet
  facet normal 0.99786 0 -0.0653939
    outer loop
      vertex 72.0016 12 -15.9258
      vertex 72.0016 14.5 -15.9258
      vertex 72.0065 12 -15.8518
    endloop
  endfacet
  facet normal 0.99786 0 -0.0653939
    outer loop
      vertex 72.0016 14.5 -15.9258
      vertex 72.0065 14.5 -15.8518
      vertex 72.0065 12 -15.8518
    endloop
  endfacet
  facet normal 0.994065 0 -0.108791
    outer loop
      vertex 72.0065 12 -15.8518
      vertex 72.0065 14.5 -15.8518
      vertex 72.0145 12 -15.7781
    endloop
  endfacet
  facet normal 0.994065 0 -0.108791
    outer loop
      vertex 72.0065 14.5 -15.8518
      vertex 72.0145 14.5 -15.7781
      vertex 72.0145 12 -15.7781
    endloop
  endfacet
  facet normal 0.988353 0 -0.152182
    outer loop
      vertex 72.0145 12 -15.7781
      vertex 72.0145 14.5 -15.7781
      vertex 72.0258 12 -15.7048
    endloop
  endfacet
  facet normal 0.988353 0 -0.152182
    outer loop
      vertex 72.0145 14.5 -15.7781
      vertex 72.0258 14.5 -15.7048
      vertex 72.0258 12 -15.7048
    endloop
  endfacet
  facet normal 0.980788 0 -0.195078
    outer loop
      vertex 72.0258 12 -15.7048
      vertex 72.0258 14.5 -15.7048
      vertex 72.0403 12 -15.6321
    endloop
  endfacet
  facet normal 0.980788 0 -0.195078
    outer loop
      vertex 72.0258 14.5 -15.7048
      vertex 72.0403 14.5 -15.6321
      vertex 72.0403 12 -15.6321
    endloop
  endfacet
  facet normal 0.971345 0 -0.237672
    outer loop
      vertex 72.0403 12 -15.6321
      vertex 72.0403 14.5 -15.6321
      vertex 72.0579 12 -15.56
    endloop
  endfacet
  facet normal 0.971345 0 -0.237672
    outer loop
      vertex 72.0403 14.5 -15.6321
      vertex 72.0579 14.5 -15.56
      vertex 72.0579 12 -15.56
    endloop
  endfacet
  facet normal 0.960041 0 -0.279858
    outer loop
      vertex 72.0579 12 -15.56
      vertex 72.0579 14.5 -15.56
      vertex 72.0787 12 -15.4888
    endloop
  endfacet
  facet normal 0.960041 0 -0.279858
    outer loop
      vertex 72.0579 14.5 -15.56
      vertex 72.0787 14.5 -15.4888
      vertex 72.0787 12 -15.4888
    endloop
  endfacet
  facet normal 0.946929 0 -0.321444
    outer loop
      vertex 72.0787 12 -15.4888
      vertex 72.0787 14.5 -15.4888
      vertex 72.1025 12 -15.4186
    endloop
  endfacet
  facet normal 0.946929 0 -0.321444
    outer loop
      vertex 72.0787 14.5 -15.4888
      vertex 72.1025 14.5 -15.4186
      vertex 72.1025 12 -15.4186
    endloop
  endfacet
  facet normal 0.93201 0 -0.362432
    outer loop
      vertex 72.1025 12 -15.4186
      vertex 72.1025 14.5 -15.4186
      vertex 72.1294 12 -15.3494
    endloop
  endfacet
  facet normal 0.93201 0 -0.362432
    outer loop
      vertex 72.1025 14.5 -15.4186
      vertex 72.1294 14.5 -15.3494
      vertex 72.1294 12 -15.3494
    endloop
  endfacet
  facet normal 0.915325 0 -0.402715
    outer loop
      vertex 72.1294 12 -15.3494
      vertex 72.1294 14.5 -15.3494
      vertex 72.1593 12 -15.2815
    endloop
  endfacet
  facet normal 0.915325 0 -0.402715
    outer loop
      vertex 72.1294 14.5 -15.3494
      vertex 72.1593 14.5 -15.2815
      vertex 72.1593 12 -15.2815
    endloop
  endfacet
  facet normal 0.896872 0 -0.44229
    outer loop
      vertex 72.1593 12 -15.2815
      vertex 72.1593 14.5 -15.2815
      vertex 72.1921 12 -15.215
    endloop
  endfacet
  facet normal 0.896872 0 -0.44229
    outer loop
      vertex 72.1593 14.5 -15.2815
      vertex 72.1921 14.5 -15.215
      vertex 72.1921 12 -15.215
    endloop
  endfacet
  facet normal 0.876736 0 -0.480973
    outer loop
      vertex 72.1921 12 -15.215
      vertex 72.1921 14.5 -15.215
      vertex 72.2278 12 -15.15
    endloop
  endfacet
  facet normal 0.876736 0 -0.480973
    outer loop
      vertex 72.1921 14.5 -15.215
      vertex 72.2278 14.5 -15.15
      vertex 72.2278 12 -15.15
    endloop
  endfacet
  facet normal 0.854887 0 -0.518814
    outer loop
      vertex 72.2278 12 -15.15
      vertex 72.2278 14.5 -15.15
      vertex 72.2662 12 -15.0866
    endloop
  endfacet
  facet normal 0.854887 0 -0.518814
    outer loop
      vertex 72.2278 14.5 -15.15
      vertex 72.2662 14.5 -15.0866
      vertex 72.2662 12 -15.0866
    endloop
  endfacet
  facet normal 0.831455 0 -0.555592
    outer loop
      vertex 72.2662 12 -15.0866
      vertex 72.2662 14.5 -15.0866
      vertex 72.3074 12 -15.0249
    endloop
  endfacet
  facet normal 0.831455 0 -0.555592
    outer loop
      vertex 72.2662 14.5 -15.0866
      vertex 72.3074 14.5 -15.0249
      vertex 72.3074 12 -15.0249
    endloop
  endfacet
  facet normal 0.806467 0 -0.591279
    outer loop
      vertex 72.3074 12 -15.0249
      vertex 72.3074 14.5 -15.0249
      vertex 72.3513 12 -14.9651
    endloop
  endfacet
  facet normal 0.806467 0 -0.591279
    outer loop
      vertex 72.3074 14.5 -15.0249
      vertex 72.3513 14.5 -14.9651
      vertex 72.3513 12 -14.9651
    endloop
  endfacet
  facet normal 0.779888 0 -0.625919
    outer loop
      vertex 72.3513 12 -14.9651
      vertex 72.3513 14.5 -14.9651
      vertex 72.3977 12 -14.9073
    endloop
  endfacet
  facet normal 0.779888 0 -0.625919
    outer loop
      vertex 72.3513 14.5 -14.9651
      vertex 72.3977 14.5 -14.9073
      vertex 72.3977 12 -14.9073
    endloop
  endfacet
  facet normal 0.751832 0 -0.659355
    outer loop
      vertex 72.3977 12 -14.9073
      vertex 72.3977 14.5 -14.9073
      vertex 72.4466 12 -14.8515
    endloop
  endfacet
  facet normal 0.751832 0 -0.659355
    outer loop
      vertex 72.3977 14.5 -14.9073
      vertex 72.4466 14.5 -14.8515
      vertex 72.4466 12 -14.8515
    endloop
  endfacet
  facet normal 0.722364 0 -0.691513
    outer loop
      vertex 72.4466 12 -14.8515
      vertex 72.4466 14.5 -14.8515
      vertex 72.4979 12 -14.7979
    endloop
  endfacet
  facet normal 0.722364 0 -0.691513
    outer loop
      vertex 72.4466 14.5 -14.8515
      vertex 72.4979 14.5 -14.7979
      vertex 72.4979 12 -14.7979
    endloop
  endfacet
  facet normal 0.691519 0 -0.722358
    outer loop
      vertex 72.4979 12 -14.7979
      vertex 72.4979 14.5 -14.7979
      vertex 72.5515 12 -14.7466
    endloop
  endfacet
  facet normal 0.691519 0 -0.722358
    outer loop
      vertex 72.4979 14.5 -14.7979
      vertex 72.5515 14.5 -14.7466
      vertex 72.5515 12 -14.7466
    endloop
  endfacet
  facet normal 0.659329 0 -0.751854
    outer loop
      vertex 72.5515 12 -14.7466
      vertex 72.5515 14.5 -14.7466
      vertex 72.6073 12 -14.6977
    endloop
  endfacet
  facet normal 0.659329 0 -0.751854
    outer loop
      vertex 72.5515 14.5 -14.7466
      vertex 72.6073 14.5 -14.6977
      vertex 72.6073 12 -14.6977
    endloop
  endfacet
  facet normal 0.625956 0 -0.779858
    outer loop
      vertex 72.6073 12 -14.6977
      vertex 72.6073 14.5 -14.6977
      vertex 72.6651 12 -14.6513
    endloop
  endfacet
  facet normal 0.625956 0 -0.779858
    outer loop
      vertex 72.6073 14.5 -14.6977
      vertex 72.6651 14.5 -14.6513
      vertex 72.6651 12 -14.6513
    endloop
  endfacet
  facet normal 0.59127 0 -0.806474
    outer loop
      vertex 72.6651 12 -14.6513
      vertex 72.6651 14.5 -14.6513
      vertex 72.7249 12 -14.6074
    endloop
  endfacet
  facet normal 0.59127 0 -0.806474
    outer loop
      vertex 72.6651 14.5 -14.6513
      vertex 72.7249 14.5 -14.6074
      vertex 72.7249 12 -14.6074
    endloop
  endfacet
  facet normal 0.555587 0 -0.831459
    outer loop
      vertex 72.7249 12 -14.6074
      vertex 72.7249 14.5 -14.6074
      vertex 72.7866 12 -14.5662
    endloop
  endfacet
  facet normal 0.555587 0 -0.831459
    outer loop
      vertex 72.7249 14.5 -14.6074
      vertex 72.7866 14.5 -14.5662
      vertex 72.7866 12 -14.5662
    endloop
  endfacet
  facet normal 0.518801 0 -0.854895
    outer loop
      vertex 72.7866 12 -14.5662
      vertex 72.7866 14.5 -14.5662
      vertex 72.85 12 -14.5278
    endloop
  endfacet
  facet normal 0.518801 0 -0.854895
    outer loop
      vertex 72.7866 14.5 -14.5662
      vertex 72.85 14.5 -14.5278
      vertex 72.85 12 -14.5278
    endloop
  endfacet
  facet normal 0.480981 0 -0.876731
    outer loop
      vertex 72.85 12 -14.5278
      vertex 72.85 14.5 -14.5278
      vertex 72.915 12 -14.4921
    endloop
  endfacet
  facet normal 0.480981 0 -0.876731
    outer loop
      vertex 72.85 14.5 -14.5278
      vertex 72.915 14.5 -14.4921
      vertex 72.915 12 -14.4921
    endloop
  endfacet
  facet normal 0.442265 0 -0.896885
    outer loop
      vertex 72.915 12 -14.4921
      vertex 72.915 14.5 -14.4921
      vertex 72.9816 12 -14.4593
    endloop
  endfacet
  facet normal 0.442265 0 -0.896885
    outer loop
      vertex 72.915 14.5 -14.4921
      vertex 72.9816 14.5 -14.4593
      vertex 72.9816 12 -14.4593
    endloop
  endfacet
  facet normal 0.402747 0 -0.915312
    outer loop
      vertex 72.9816 12 -14.4593
      vertex 72.9816 14.5 -14.4593
      vertex 73.0494 12 -14.4294
    endloop
  endfacet
  facet normal 0.402747 0 -0.915312
    outer loop
      vertex 72.9816 14.5 -14.4593
      vertex 73.0494 14.5 -14.4294
      vertex 73.0494 12 -14.4294
    endloop
  endfacet
  facet normal 0.362437 0 -0.932008
    outer loop
      vertex 73.0494 12 -14.4294
      vertex 73.0494 14.5 -14.4294
      vertex 73.1186 12 -14.4025
    endloop
  endfacet
  facet normal 0.362437 0 -0.932008
    outer loop
      vertex 73.0494 14.5 -14.4294
      vertex 73.1186 14.5 -14.4025
      vertex 73.1186 12 -14.4025
    endloop
  endfacet
  facet normal 0.321467 0 -0.946921
    outer loop
      vertex 73.1186 12 -14.4025
      vertex 73.1186 14.5 -14.4025
      vertex 73.1888 12 -14.3787
    endloop
  endfacet
  facet normal 0.321467 0 -0.946921
    outer loop
      vertex 73.1186 14.5 -14.4025
      vertex 73.1888 14.5 -14.3787
      vertex 73.1888 12 -14.3787
    endloop
  endfacet
  facet normal 0.279803 0 -0.960057
    outer loop
      vertex 73.1888 12 -14.3787
      vertex 73.1888 14.5 -14.3787
      vertex 73.26 12 -14.3579
    endloop
  endfacet
  facet normal 0.279803 0 -0.960057
    outer loop
      vertex 73.1888 14.5 -14.3787
      vertex 73.26 14.5 -14.3579
      vertex 73.26 12 -14.3579
    endloop
  endfacet
  facet normal 0.237711 0 -0.971336
    outer loop
      vertex 73.26 12 -14.3579
      vertex 73.26 14.5 -14.3579
      vertex 73.332 12 -14.3403
    endloop
  endfacet
  facet normal 0.237711 0 -0.971336
    outer loop
      vertex 73.26 14.5 -14.3579
      vertex 73.332 14.5 -14.3403
      vertex 73.332 12 -14.3403
    endloop
  endfacet
  facet normal 0.195085 0 -0.980786
    outer loop
      vertex 73.332 12 -14.3403
      vertex 73.332 14.5 -14.3403
      vertex 73.4048 12 -14.3258
    endloop
  endfacet
  facet normal 0.195085 0 -0.980786
    outer loop
      vertex 73.332 14.5 -14.3403
      vertex 73.4048 14.5 -14.3258
      vertex 73.4048 12 -14.3258
    endloop
  endfacet
  facet normal 0.152124 0 -0.988361
    outer loop
      vertex 73.4048 12 -14.3258
      vertex 73.4048 14.5 -14.3258
      vertex 73.4781 12 -14.3145
    endloop
  endfacet
  facet normal 0.152124 0 -0.988361
    outer loop
      vertex 73.4048 14.5 -14.3258
      vertex 73.4781 14.5 -14.3145
      vertex 73.4781 12 -14.3145
    endloop
  endfacet
  facet normal 0.108863 0 -0.994057
    outer loop
      vertex 73.4781 12 -14.3145
      vertex 73.4781 14.5 -14.3145
      vertex 73.5518 12 -14.3065
    endloop
  endfacet
  facet normal 0.108863 0 -0.994057
    outer loop
      vertex 73.4781 14.5 -14.3145
      vertex 73.5518 14.5 -14.3065
      vertex 73.5518 12 -14.3065
    endloop
  endfacet
  facet normal 0.0654048 0 -0.997859
    outer loop
      vertex 73.5518 12 -14.3065
      vertex 73.5518 14.5 -14.3065
      vertex 73.6258 12 -14.3016
    endloop
  endfacet
  facet normal 0.0654048 0 -0.997859
    outer loop
      vertex 73.5518 14.5 -14.3065
      vertex 73.6258 14.5 -14.3016
      vertex 73.6258 12 -14.3016
    endloop
  endfacet
  facet normal 0.0218098 0 -0.999762
    outer loop
      vertex 73.6258 12 -14.3016
      vertex 73.6258 14.5 -14.3016
      vertex 73.7 12 -14.3
    endloop
  endfacet
  facet normal 0.0218098 0 -0.999762
    outer loop
      vertex 73.6258 14.5 -14.3016
      vertex 73.7 14.5 -14.3
      vertex 73.7 12 -14.3
    endloop
  endfacet
  facet normal -0.021812 0 -0.999762
    outer loop
      vertex 73.7 12 -14.3
      vertex 73.7 14.5 -14.3
      vertex 73.7742 12 -14.3016
    endloop
  endfacet
  facet normal -0.021812 0 -0.999762
    outer loop
      vertex 73.7 14.5 -14.3
      vertex 73.7742 14.5 -14.3016
      vertex 73.7742 12 -14.3016
    endloop
  endfacet
  facet normal -0.0654048 0 -0.997859
    outer loop
      vertex 73.7742 12 -14.3016
      vertex 73.7742 14.5 -14.3016
      vertex 73.8482 12 -14.3065
    endloop
  endfacet
  facet normal -0.0654048 0 -0.997859
    outer loop
      vertex 73.7742 14.5 -14.3016
      vertex 73.8482 14.5 -14.3065
      vertex 73.8482 12 -14.3065
    endloop
  endfacet
  facet normal -0.108863 0 -0.994057
    outer loop
      vertex 73.8482 12 -14.3065
      vertex 73.8482 14.5 -14.3065
      vertex 73.9219 12 -14.3145
    endloop
  endfacet
  facet normal -0.108863 0 -0.994057
    outer loop
      vertex 73.8482 14.5 -14.3065
      vertex 73.9219 14.5 -14.3145
      vertex 73.9219 12 -14.3145
    endloop
  endfacet
  facet normal -0.152124 0 -0.988361
    outer loop
      vertex 73.9219 12 -14.3145
      vertex 73.9219 14.5 -14.3145
      vertex 73.9952 12 -14.3258
    endloop
  endfacet
  facet normal -0.152124 0 -0.988361
    outer loop
      vertex 73.9219 14.5 -14.3145
      vertex 73.9952 14.5 -14.3258
      vertex 73.9952 12 -14.3258
    endloop
  endfacet
  facet normal -0.195085 0 -0.980786
    outer loop
      vertex 73.9952 12 -14.3258
      vertex 73.9952 14.5 -14.3258
      vertex 74.068 12 -14.3403
    endloop
  endfacet
  facet normal -0.195085 0 -0.980786
    outer loop
      vertex 73.9952 14.5 -14.3258
      vertex 74.068 14.5 -14.3403
      vertex 74.068 12 -14.3403
    endloop
  endfacet
  facet normal -0.237711 0 -0.971336
    outer loop
      vertex 74.068 12 -14.3403
      vertex 74.068 14.5 -14.3403
      vertex 74.14 12 -14.3579
    endloop
  endfacet
  facet normal -0.237711 0 -0.971336
    outer loop
      vertex 74.068 14.5 -14.3403
      vertex 74.14 14.5 -14.3579
      vertex 74.14 12 -14.3579
    endloop
  endfacet
  facet normal -0.279803 0 -0.960057
    outer loop
      vertex 74.14 12 -14.3579
      vertex 74.14 14.5 -14.3579
      vertex 74.2112 12 -14.3787
    endloop
  endfacet
  facet normal -0.279803 0 -0.960057
    outer loop
      vertex 74.14 14.5 -14.3579
      vertex 74.2112 14.5 -14.3787
      vertex 74.2112 12 -14.3787
    endloop
  endfacet
  facet normal -0.321467 0 -0.946921
    outer loop
      vertex 74.2112 12 -14.3787
      vertex 74.2112 14.5 -14.3787
      vertex 74.2814 12 -14.4025
    endloop
  endfacet
  facet normal -0.321467 0 -0.946921
    outer loop
      vertex 74.2112 14.5 -14.3787
      vertex 74.2814 14.5 -14.4025
      vertex 74.2814 12 -14.4025
    endloop
  endfacet
  facet normal -0.362437 0 -0.932008
    outer loop
      vertex 74.2814 12 -14.4025
      vertex 74.2814 14.5 -14.4025
      vertex 74.3506 12 -14.4294
    endloop
  endfacet
  facet normal -0.362437 0 -0.932008
    outer loop
      vertex 74.2814 14.5 -14.4025
      vertex 74.3506 14.5 -14.4294
      vertex 74.3506 12 -14.4294
    endloop
  endfacet
  facet normal -0.402747 0 -0.915312
    outer loop
      vertex 74.3506 12 -14.4294
      vertex 74.3506 14.5 -14.4294
      vertex 74.4184 12 -14.4593
    endloop
  endfacet
  facet normal -0.402747 0 -0.915312
    outer loop
      vertex 74.3506 14.5 -14.4294
      vertex 74.4184 14.5 -14.4593
      vertex 74.4184 12 -14.4593
    endloop
  endfacet
  facet normal -0.442265 0 -0.896885
    outer loop
      vertex 74.4184 12 -14.4593
      vertex 74.4184 14.5 -14.4593
      vertex 74.485 12 -14.4921
    endloop
  endfacet
  facet normal -0.442265 0 -0.896885
    outer loop
      vertex 74.4184 14.5 -14.4593
      vertex 74.485 14.5 -14.4921
      vertex 74.485 12 -14.4921
    endloop
  endfacet
  facet normal -0.480981 0 -0.876731
    outer loop
      vertex 74.485 12 -14.4921
      vertex 74.485 14.5 -14.4921
      vertex 74.55 12 -14.5278
    endloop
  endfacet
  facet normal -0.480981 0 -0.876731
    outer loop
      vertex 74.485 14.5 -14.4921
      vertex 74.55 14.5 -14.5278
      vertex 74.55 12 -14.5278
    endloop
  endfacet
  facet normal -0.518801 0 -0.854895
    outer loop
      vertex 74.55 12 -14.5278
      vertex 74.55 14.5 -14.5278
      vertex 74.6134 12 -14.5662
    endloop
  endfacet
  facet normal -0.518801 0 -0.854895
    outer loop
      vertex 74.55 14.5 -14.5278
      vertex 74.6134 14.5 -14.5662
      vertex 74.6134 12 -14.5662
    endloop
  endfacet
  facet normal -0.55554 0 -0.83149
    outer loop
      vertex 74.6134 12 -14.5662
      vertex 74.6134 14.5 -14.5662
      vertex 74.6751 12 -14.6074
    endloop
  endfacet
  facet normal -0.55554 0 -0.83149
    outer loop
      vertex 74.6134 14.5 -14.5662
      vertex 74.6751 14.5 -14.6074
      vertex 74.6751 12 -14.6074
    endloop
  endfacet
  facet normal -0.591318 0 -0.806439
    outer loop
      vertex 74.6751 12 -14.6074
      vertex 74.6751 14.5 -14.6074
      vertex 74.7349 12 -14.6513
    endloop
  endfacet
  facet normal -0.591318 0 -0.806439
    outer loop
      vertex 74.6751 14.5 -14.6074
      vertex 74.7349 14.5 -14.6513
      vertex 74.7349 12 -14.6513
    endloop
  endfacet
  facet normal -0.625956 0 -0.779858
    outer loop
      vertex 74.7349 12 -14.6513
      vertex 74.7349 14.5 -14.6513
      vertex 74.7927 12 -14.6977
    endloop
  endfacet
  facet normal -0.625956 0 -0.779858
    outer loop
      vertex 74.7349 14.5 -14.6513
      vertex 74.7927 14.5 -14.6977
      vertex 74.7927 12 -14.6977
    endloop
  endfacet
  facet normal -0.659329 0 -0.751854
    outer loop
      vertex 74.7927 12 -14.6977
      vertex 74.7927 14.5 -14.6977
      vertex 74.8485 12 -14.7466
    endloop
  endfacet
  facet normal -0.659329 0 -0.751854
    outer loop
      vertex 74.7927 14.5 -14.6977
      vertex 74.8485 14.5 -14.7466
      vertex 74.8485 12 -14.7466
    endloop
  endfacet
  facet normal -0.691519 0 -0.722358
    outer loop
      vertex 74.8485 12 -14.7466
      vertex 74.8485 14.5 -14.7466
      vertex 74.9021 12 -14.7979
    endloop
  endfacet
  facet normal -0.691519 0 -0.722358
    outer loop
      vertex 74.8485 14.5 -14.7466
      vertex 74.9021 14.5 -14.7979
      vertex 74.9021 12 -14.7979
    endloop
  endfacet
  facet normal -0.722364 0 -0.691513
    outer loop
      vertex 74.9021 12 -14.7979
      vertex 74.9021 14.5 -14.7979
      vertex 74.9534 12 -14.8515
    endloop
  endfacet
  facet normal -0.722364 0 -0.691513
    outer loop
      vertex 74.9021 14.5 -14.7979
      vertex 74.9534 14.5 -14.8515
      vertex 74.9534 12 -14.8515
    endloop
  endfacet
  facet normal -0.751832 0 -0.659355
    outer loop
      vertex 74.9534 12 -14.8515
      vertex 74.9534 14.5 -14.8515
      vertex 75.0023 12 -14.9073
    endloop
  endfacet
  facet normal -0.751832 0 -0.659355
    outer loop
      vertex 74.9534 14.5 -14.8515
      vertex 75.0023 14.5 -14.9073
      vertex 75.0023 12 -14.9073
    endloop
  endfacet
  facet normal -0.779888 0 -0.625919
    outer loop
      vertex 75.0023 12 -14.9073
      vertex 75.0023 14.5 -14.9073
      vertex 75.0487 12 -14.9651
    endloop
  endfacet
  facet normal -0.779888 0 -0.625919
    outer loop
      vertex 75.0023 14.5 -14.9073
      vertex 75.0487 14.5 -14.9651
      vertex 75.0487 12 -14.9651
    endloop
  endfacet
  facet normal -0.806419 0 -0.591345
    outer loop
      vertex 75.0487 12 -14.9651
      vertex 75.0487 14.5 -14.9651
      vertex 75.0926 12 -15.0249
    endloop
  endfacet
  facet normal -0.806419 0 -0.591345
    outer loop
      vertex 75.0487 14.5 -14.9651
      vertex 75.0926 14.5 -15.0249
      vertex 75.0926 12 -15.0249
    endloop
  endfacet
  facet normal -0.831501 0 -0.555523
    outer loop
      vertex 75.0926 12 -15.0249
      vertex 75.0926 14.5 -15.0249
      vertex 75.1338 12 -15.0866
    endloop
  endfacet
  facet normal -0.831501 0 -0.555523
    outer loop
      vertex 75.0926 14.5 -15.0249
      vertex 75.1338 14.5 -15.0866
      vertex 75.1338 12 -15.0866
    endloop
  endfacet
  facet normal -0.854887 0 -0.518814
    outer loop
      vertex 75.1338 12 -15.0866
      vertex 75.1338 14.5 -15.0866
      vertex 75.1722 12 -15.15
    endloop
  endfacet
  facet normal -0.854887 0 -0.518814
    outer loop
      vertex 75.1338 14.5 -15.0866
      vertex 75.1722 14.5 -15.15
      vertex 75.1722 12 -15.15
    endloop
  endfacet
  facet normal -0.876736 0 -0.480973
    outer loop
      vertex 75.1722 12 -15.15
      vertex 75.1722 14.5 -15.15
      vertex 75.2079 12 -15.215
    endloop
  endfacet
  facet normal -0.876736 0 -0.480973
    outer loop
      vertex 75.1722 14.5 -15.15
      vertex 75.2079 14.5 -15.215
      vertex 75.2079 12 -15.215
    endloop
  endfacet
  facet normal -0.896872 0 -0.44229
    outer loop
      vertex 75.2079 12 -15.215
      vertex 75.2079 14.5 -15.215
      vertex 75.2407 12 -15.2815
    endloop
  endfacet
  facet normal -0.896872 0 -0.44229
    outer loop
      vertex 75.2079 14.5 -15.215
      vertex 75.2407 14.5 -15.2815
      vertex 75.2407 12 -15.2815
    endloop
  endfacet
  facet normal -0.915325 0 -0.402715
    outer loop
      vertex 75.2407 12 -15.2815
      vertex 75.2407 14.5 -15.2815
      vertex 75.2706 12 -15.3494
    endloop
  endfacet
  facet normal -0.915325 0 -0.402715
    outer loop
      vertex 75.2407 14.5 -15.2815
      vertex 75.2706 14.5 -15.3494
      vertex 75.2706 12 -15.3494
    endloop
  endfacet
  facet normal -0.93201 0 -0.362432
    outer loop
      vertex 75.2706 12 -15.3494
      vertex 75.2706 14.5 -15.3494
      vertex 75.2975 12 -15.4186
    endloop
  endfacet
  facet normal -0.93201 0 -0.362432
    outer loop
      vertex 75.2706 14.5 -15.3494
      vertex 75.2975 14.5 -15.4186
      vertex 75.2975 12 -15.4186
    endloop
  endfacet
  facet normal -0.946929 0 -0.321444
    outer loop
      vertex 75.2975 12 -15.4186
      vertex 75.2975 14.5 -15.4186
      vertex 75.3213 12 -15.4888
    endloop
  endfacet
  facet normal -0.946929 0 -0.321444
    outer loop
      vertex 75.2975 14.5 -15.4186
      vertex 75.3213 14.5 -15.4888
      vertex 75.3213 12 -15.4888
    endloop
  endfacet
  facet normal -0.960041 0 -0.279858
    outer loop
      vertex 75.3213 12 -15.4888
      vertex 75.3213 14.5 -15.4888
      vertex 75.3421 12 -15.56
    endloop
  endfacet
  facet normal -0.960041 0 -0.279858
    outer loop
      vertex 75.3213 14.5 -15.4888
      vertex 75.3421 14.5 -15.56
      vertex 75.3421 12 -15.56
    endloop
  endfacet
  facet normal -0.971345 0 -0.237672
    outer loop
      vertex 75.3421 12 -15.56
      vertex 75.3421 14.5 -15.56
      vertex 75.3597 12 -15.6321
    endloop
  endfacet
  facet normal -0.971345 0 -0.237672
    outer loop
      vertex 75.3421 14.5 -15.56
      vertex 75.3597 14.5 -15.6321
      vertex 75.3597 12 -15.6321
    endloop
  endfacet
  facet normal -0.980788 0 -0.195078
    outer loop
      vertex 75.3597 12 -15.6321
      vertex 75.3597 14.5 -15.6321
      vertex 75.3742 12 -15.7048
    endloop
  endfacet
  facet normal -0.980788 0 -0.195078
    outer loop
      vertex 75.3597 14.5 -15.6321
      vertex 75.3742 14.5 -15.7048
      vertex 75.3742 12 -15.7048
    endloop
  endfacet
  facet normal -0.988353 0 -0.152182
    outer loop
      vertex 75.3742 12 -15.7048
      vertex 75.3742 14.5 -15.7048
      vertex 75.3855 12 -15.7781
    endloop
  endfacet
  facet normal -0.988353 0 -0.152182
    outer loop
      vertex 75.3742 14.5 -15.7048
      vertex 75.3855 14.5 -15.7781
      vertex 75.3855 12 -15.7781
    endloop
  endfacet
  facet normal -0.994065 0 -0.108791
    outer loop
      vertex 75.3855 12 -15.7781
      vertex 75.3855 14.5 -15.7781
      vertex 75.3935 12 -15.8518
    endloop
  endfacet
  facet normal -0.994065 0 -0.108791
    outer loop
      vertex 75.3855 14.5 -15.7781
      vertex 75.3935 14.5 -15.8518
      vertex 75.3935 12 -15.8518
    endloop
  endfacet
  facet normal -0.997853 0 -0.0654939
    outer loop
      vertex 75.3935 12 -15.8518
      vertex 75.3935 14.5 -15.8518
      vertex 75.3984 12 -15.9258
    endloop
  endfacet
  facet normal -0.997853 0 -0.0654939
    outer loop
      vertex 75.3935 14.5 -15.8518
      vertex 75.3984 14.5 -15.9258
      vertex 75.3984 12 -15.9258
    endloop
  endfacet
  facet normal -0.999762 0 -0.0217978
    outer loop
      vertex 75.3984 12 -15.9258
      vertex 75.3984 14.5 -15.9258
      vertex 75.4 12 -16
    endloop
  endfacet
  facet normal -0.999762 0 -0.0217978
    outer loop
      vertex 75.3984 14.5 -15.9258
      vertex 75.4 14.5 -16
      vertex 75.4 12 -16
    endloop
  endfacet
  facet normal -0.999762 0 0.0217984
    outer loop
      vertex 75.4 12 -16
      vertex 75.4 14.5 -16
      vertex 75.3984 12 -16.0742
    endloop
  endfacet
  facet normal -0.999762 0 0.0217984
    outer loop
      vertex 75.4 14.5 -16
      vertex 75.3984 14.5 -16.0742
      vertex 75.3984 12 -16.0742
    endloop
  endfacet
  facet normal -0.997853 0 0.0654939
    outer loop
      vertex 75.3984 12 -16.0742
      vertex 75.3984 14.5 -16.0742
      vertex 75.3935 12 -16.1482
    endloop
  endfacet
  facet normal -0.997853 0 0.0654939
    outer loop
      vertex 75.3984 14.5 -16.0742
      vertex 75.3935 14.5 -16.1482
      vertex 75.3935 12 -16.1482
    endloop
  endfacet
  facet normal -0.994065 0 0.108791
    outer loop
      vertex 75.3935 12 -16.1482
      vertex 75.3935 14.5 -16.1482
      vertex 75.3855 12 -16.2219
    endloop
  endfacet
  facet normal -0.994065 0 0.108791
    outer loop
      vertex 75.3935 14.5 -16.1482
      vertex 75.3855 14.5 -16.2219
      vertex 75.3855 12 -16.2219
    endloop
  endfacet
  facet normal -0.988353 0 0.152182
    outer loop
      vertex 75.3855 12 -16.2219
      vertex 75.3855 14.5 -16.2219
      vertex 75.3742 12 -16.2952
    endloop
  endfacet
  facet normal -0.988353 0 0.152182
    outer loop
      vertex 75.3855 14.5 -16.2219
      vertex 75.3742 14.5 -16.2952
      vertex 75.3742 12 -16.2952
    endloop
  endfacet
  facet normal -0.980788 0 0.195078
    outer loop
      vertex 75.3742 12 -16.2952
      vertex 75.3742 14.5 -16.2952
      vertex 75.3597 12 -16.3679
    endloop
  endfacet
  facet normal -0.980788 0 0.195078
    outer loop
      vertex 75.3742 14.5 -16.2952
      vertex 75.3597 14.5 -16.3679
      vertex 75.3597 12 -16.3679
    endloop
  endfacet
  facet normal -0.971346 0 0.23767
    outer loop
      vertex 75.3597 12 -16.3679
      vertex 75.3597 14.5 -16.3679
      vertex 75.3421 12 -16.44
    endloop
  endfacet
  facet normal -0.971346 0 0.23767
    outer loop
      vertex 75.3597 14.5 -16.3679
      vertex 75.3421 14.5 -16.44
      vertex 75.3421 12 -16.44
    endloop
  endfacet
  facet normal -0.960041 0 0.279858
    outer loop
      vertex 75.3421 12 -16.44
      vertex 75.3421 14.5 -16.44
      vertex 75.3213 12 -16.5112
    endloop
  endfacet
  facet normal -0.960041 0 0.279858
    outer loop
      vertex 75.3421 14.5 -16.44
      vertex 75.3213 14.5 -16.5112
      vertex 75.3213 12 -16.5112
    endloop
  endfacet
  facet normal -0.946929 0 0.321444
    outer loop
      vertex 75.3213 12 -16.5112
      vertex 75.3213 14.5 -16.5112
      vertex 75.2975 12 -16.5814
    endloop
  endfacet
  facet normal -0.946929 0 0.321444
    outer loop
      vertex 75.3213 14.5 -16.5112
      vertex 75.2975 14.5 -16.5814
      vertex 75.2975 12 -16.5814
    endloop
  endfacet
  facet normal -0.932008 0 0.362437
    outer loop
      vertex 75.2975 12 -16.5814
      vertex 75.2975 14.5 -16.5814
      vertex 75.2706 12 -16.6506
    endloop
  endfacet
  facet normal -0.932008 0 0.362437
    outer loop
      vertex 75.2975 14.5 -16.5814
      vertex 75.2706 14.5 -16.6506
      vertex 75.2706 12 -16.6506
    endloop
  endfacet
  facet normal -0.915325 0 0.402715
    outer loop
      vertex 75.2706 12 -16.6506
      vertex 75.2706 14.5 -16.6506
      vertex 75.2407 12 -16.7185
    endloop
  endfacet
  facet normal -0.915325 0 0.402715
    outer loop
      vertex 75.2706 14.5 -16.6506
      vertex 75.2407 14.5 -16.7185
      vertex 75.2407 12 -16.7185
    endloop
  endfacet
  facet normal -0.896875 0 0.442285
    outer loop
      vertex 75.2407 12 -16.7185
      vertex 75.2407 14.5 -16.7185
      vertex 75.2079 12 -16.785
    endloop
  endfacet
  facet normal -0.896875 0 0.442285
    outer loop
      vertex 75.2407 14.5 -16.7185
      vertex 75.2079 14.5 -16.785
      vertex 75.2079 12 -16.785
    endloop
  endfacet
  facet normal -0.876736 0 0.480973
    outer loop
      vertex 75.2079 12 -16.785
      vertex 75.2079 14.5 -16.785
      vertex 75.1722 12 -16.85
    endloop
  endfacet
  facet normal -0.876736 0 0.480973
    outer loop
      vertex 75.2079 14.5 -16.785
      vertex 75.1722 14.5 -16.85
      vertex 75.1722 12 -16.85
    endloop
  endfacet
  facet normal -0.854881 0 0.518825
    outer loop
      vertex 75.1722 12 -16.85
      vertex 75.1722 14.5 -16.85
      vertex 75.1338 12 -16.9134
    endloop
  endfacet
  facet normal -0.854881 0 0.518825
    outer loop
      vertex 75.1722 14.5 -16.85
      vertex 75.1338 14.5 -16.9134
      vertex 75.1338 12 -16.9134
    endloop
  endfacet
  facet normal -0.831509 0 0.555511
    outer loop
      vertex 75.1338 12 -16.9134
      vertex 75.1338 14.5 -16.9134
      vertex 75.0926 12 -16.9751
    endloop
  endfacet
  facet normal -0.831509 0 0.555511
    outer loop
      vertex 75.1338 14.5 -16.9134
      vertex 75.0926 14.5 -16.9751
      vertex 75.0926 12 -16.9751
    endloop
  endfacet
  facet normal -0.806415 0 0.591351
    outer loop
      vertex 75.0926 12 -16.9751
      vertex 75.0926 14.5 -16.9751
      vertex 75.0487 12 -17.0349
    endloop
  endfacet
  facet normal -0.806415 0 0.591351
    outer loop
      vertex 75.0926 14.5 -16.9751
      vertex 75.0487 14.5 -17.0349
      vertex 75.0487 12 -17.0349
    endloop
  endfacet
  facet normal -0.779888 0 0.625919
    outer loop
      vertex 75.0487 12 -17.0349
      vertex 75.0487 14.5 -17.0349
      vertex 75.0023 12 -17.0927
    endloop
  endfacet
  facet normal -0.779888 0 0.625919
    outer loop
      vertex 75.0487 14.5 -17.0349
      vertex 75.0023 14.5 -17.0927
      vertex 75.0023 12 -17.0927
    endloop
  endfacet
  facet normal -0.751837 0 0.659349
    outer loop
      vertex 75.0023 12 -17.0927
      vertex 75.0023 14.5 -17.0927
      vertex 74.9534 12 -17.1485
    endloop
  endfacet
  facet normal -0.751837 0 0.659349
    outer loop
      vertex 75.0023 14.5 -17.0927
      vertex 74.9534 14.5 -17.1485
      vertex 74.9534 12 -17.1485
    endloop
  endfacet
  facet normal -0.722358 0 0.691519
    outer loop
      vertex 74.9534 12 -17.1485
      vertex 74.9534 14.5 -17.1485
      vertex 74.9021 12 -17.2021
    endloop
  endfacet
  facet normal -0.722358 0 0.691519
    outer loop
      vertex 74.9534 14.5 -17.1485
      vertex 74.9021 14.5 -17.2021
      vertex 74.9021 12 -17.2021
    endloop
  endfacet
  facet normal -0.691519 0 0.722358
    outer loop
      vertex 74.9021 12 -17.2021
      vertex 74.9021 14.5 -17.2021
      vertex 74.8485 12 -17.2534
    endloop
  endfacet
  facet normal -0.691519 0 0.722358
    outer loop
      vertex 74.9021 14.5 -17.2021
      vertex 74.8485 14.5 -17.2534
      vertex 74.8485 12 -17.2534
    endloop
  endfacet
  facet normal -0.659322 0 0.751861
    outer loop
      vertex 74.8485 12 -17.2534
      vertex 74.8485 14.5 -17.2534
      vertex 74.7927 12 -17.3023
    endloop
  endfacet
  facet normal -0.659322 0 0.751861
    outer loop
      vertex 74.8485 14.5 -17.2534
      vertex 74.7927 14.5 -17.3023
      vertex 74.7927 12 -17.3023
    endloop
  endfacet
  facet normal -0.625971 0 0.779846
    outer loop
      vertex 74.7927 12 -17.3023
      vertex 74.7927 14.5 -17.3023
      vertex 74.7349 12 -17.3487
    endloop
  endfacet
  facet normal -0.625971 0 0.779846
    outer loop
      vertex 74.7927 14.5 -17.3023
      vertex 74.7349 14.5 -17.3487
      vertex 74.7349 12 -17.3487
    endloop
  endfacet
  facet normal -0.591318 0 0.806439
    outer loop
      vertex 74.7349 12 -17.3487
      vertex 74.7349 14.5 -17.3487
      vertex 74.6751 12 -17.3926
    endloop
  endfacet
  facet normal -0.591318 0 0.806439
    outer loop
      vertex 74.7349 14.5 -17.3487
      vertex 74.6751 14.5 -17.3926
      vertex 74.6751 12 -17.3926
    endloop
  endfacet
  facet normal -0.55554 0 0.83149
    outer loop
      vertex 74.6751 12 -17.3926
      vertex 74.6751 14.5 -17.3926
      vertex 74.6134 12 -17.4338
    endloop
  endfacet
  facet normal -0.55554 0 0.83149
    outer loop
      vertex 74.6751 14.5 -17.3926
      vertex 74.6134 14.5 -17.4338
      vertex 74.6134 12 -17.4338
    endloop
  endfacet
  facet normal -0.518792 0 0.8549
    outer loop
      vertex 74.6134 12 -17.4338
      vertex 74.6134 14.5 -17.4338
      vertex 74.55 12 -17.4722
    endloop
  endfacet
  facet normal -0.518792 0 0.8549
    outer loop
      vertex 74.6134 14.5 -17.4338
      vertex 74.55 14.5 -17.4722
      vertex 74.55 12 -17.4722
    endloop
  endfacet
  facet normal -0.480981 0 0.876731
    outer loop
      vertex 74.55 12 -17.4722
      vertex 74.55 14.5 -17.4722
      vertex 74.485 12 -17.5079
    endloop
  endfacet
  facet normal -0.480981 0 0.876731
    outer loop
      vertex 74.55 14.5 -17.4722
      vertex 74.485 14.5 -17.5079
      vertex 74.485 12 -17.5079
    endloop
  endfacet
  facet normal -0.442265 0 0.896885
    outer loop
      vertex 74.485 12 -17.5079
      vertex 74.485 14.5 -17.5079
      vertex 74.4184 12 -17.5407
    endloop
  endfacet
  facet normal -0.442265 0 0.896885
    outer loop
      vertex 74.485 14.5 -17.5079
      vertex 74.4184 14.5 -17.5407
      vertex 74.4184 12 -17.5407
    endloop
  endfacet
  facet normal -0.402736 0 0.915316
    outer loop
      vertex 74.4184 12 -17.5407
      vertex 74.4184 14.5 -17.5407
      vertex 74.3506 12 -17.5706
    endloop
  endfacet
  facet normal -0.402736 0 0.915316
    outer loop
      vertex 74.4184 14.5 -17.5407
      vertex 74.3506 14.5 -17.5706
      vertex 74.3506 12 -17.5706
    endloop
  endfacet
  facet normal -0.362458 0 0.932
    outer loop
      vertex 74.3506 12 -17.5706
      vertex 74.3506 14.5 -17.5706
      vertex 74.2814 12 -17.5975
    endloop
  endfacet
  facet normal -0.362458 0 0.932
    outer loop
      vertex 74.3506 14.5 -17.5706
      vertex 74.2814 14.5 -17.5975
      vertex 74.2814 12 -17.5975
    endloop
  endfacet
  facet normal -0.321467 0 0.946921
    outer loop
      vertex 74.2814 12 -17.5975
      vertex 74.2814 14.5 -17.5975
      vertex 74.2112 12 -17.6213
    endloop
  endfacet
  facet normal -0.321467 0 0.946921
    outer loop
      vertex 74.2814 14.5 -17.5975
      vertex 74.2112 14.5 -17.6213
      vertex 74.2112 12 -17.6213
    endloop
  endfacet
  facet normal -0.279792 0 0.960061
    outer loop
      vertex 74.2112 12 -17.6213
      vertex 74.2112 14.5 -17.6213
      vertex 74.14 12 -17.6421
    endloop
  endfacet
  facet normal -0.279792 0 0.960061
    outer loop
      vertex 74.2112 14.5 -17.6213
      vertex 74.14 14.5 -17.6421
      vertex 74.14 12 -17.6421
    endloop
  endfacet
  facet normal -0.237711 0 0.971336
    outer loop
      vertex 74.14 12 -17.6421
      vertex 74.14 14.5 -17.6421
      vertex 74.068 12 -17.6597
    endloop
  endfacet
  facet normal -0.237711 0 0.971336
    outer loop
      vertex 74.14 14.5 -17.6421
      vertex 74.068 14.5 -17.6597
      vertex 74.068 12 -17.6597
    endloop
  endfacet
  facet normal -0.195073 0 0.980789
    outer loop
      vertex 74.068 12 -17.6597
      vertex 74.068 14.5 -17.6597
      vertex 73.9952 12 -17.6742
    endloop
  endfacet
  facet normal -0.195073 0 0.980789
    outer loop
      vertex 74.068 14.5 -17.6597
      vertex 73.9952 14.5 -17.6742
      vertex 73.9952 12 -17.6742
    endloop
  endfacet
  facet normal -0.152136 0 0.98836
    outer loop
      vertex 73.9952 12 -17.6742
      vertex 73.9952 14.5 -17.6742
      vertex 73.9219 12 -17.6855
    endloop
  endfacet
  facet normal -0.152136 0 0.98836
    outer loop
      vertex 73.9952 14.5 -17.6742
      vertex 73.9219 14.5 -17.6855
      vertex 73.9219 12 -17.6855
    endloop
  endfacet
  facet normal -0.108863 0 0.994057
    outer loop
      vertex 73.9219 12 -17.6855
      vertex 73.9219 14.5 -17.6855
      vertex 73.8482 12 -17.6935
    endloop
  endfacet
  facet normal -0.108863 0 0.994057
    outer loop
      vertex 73.9219 14.5 -17.6855
      vertex 73.8482 14.5 -17.6935
      vertex 73.8482 12 -17.6935
    endloop
  endfacet
  facet normal -0.0653923 0 0.99786
    outer loop
      vertex 73.8482 12 -17.6935
      vertex 73.8482 14.5 -17.6935
      vertex 73.7742 12 -17.6984
    endloop
  endfacet
  facet normal -0.0653923 0 0.99786
    outer loop
      vertex 73.8482 14.5 -17.6935
      vertex 73.7742 14.5 -17.6984
      vertex 73.7742 12 -17.6984
    endloop
  endfacet
  facet normal -0.0218246 0 0.999762
    outer loop
      vertex 73.7742 12 -17.6984
      vertex 73.7742 14.5 -17.6984
      vertex 73.7 12 -17.7
    endloop
  endfacet
  facet normal -0.0218246 0 0.999762
    outer loop
      vertex 73.7742 14.5 -17.6984
      vertex 73.7 14.5 -17.7
      vertex 73.7 12 -17.7
    endloop
  endfacet
  facet normal 0.0218224 0 0.999762
    outer loop
      vertex 73.7 12 -17.7
      vertex 73.7 14.5 -17.7
      vertex 73.6258 12 -17.6984
    endloop
  endfacet
  facet normal 0.0218224 0 0.999762
    outer loop
      vertex 73.7 14.5 -17.7
      vertex 73.6258 14.5 -17.6984
      vertex 73.6258 12 -17.6984
    endloop
  endfacet
  facet normal 0.0653923 0 0.99786
    outer loop
      vertex 73.6258 12 -17.6984
      vertex 73.6258 14.5 -17.6984
      vertex 73.5518 12 -17.6935
    endloop
  endfacet
  facet normal 0.0653923 0 0.99786
    outer loop
      vertex 73.6258 14.5 -17.6984
      vertex 73.5518 14.5 -17.6935
      vertex 73.5518 12 -17.6935
    endloop
  endfacet
  facet normal 0.108863 0 0.994057
    outer loop
      vertex 73.5518 12 -17.6935
      vertex 73.5518 14.5 -17.6935
      vertex 73.4781 12 -17.6855
    endloop
  endfacet
  facet normal 0.108863 0 0.994057
    outer loop
      vertex 73.5518 14.5 -17.6935
      vertex 73.4781 14.5 -17.6855
      vertex 73.4781 12 -17.6855
    endloop
  endfacet
  facet normal 0.152136 0 0.98836
    outer loop
      vertex 73.4781 12 -17.6855
      vertex 73.4781 14.5 -17.6855
      vertex 73.4048 12 -17.6742
    endloop
  endfacet
  facet normal 0.152136 0 0.98836
    outer loop
      vertex 73.4781 14.5 -17.6855
      vertex 73.4048 14.5 -17.6742
      vertex 73.4048 12 -17.6742
    endloop
  endfacet
  facet normal 0.195073 0 0.980789
    outer loop
      vertex 73.4048 12 -17.6742
      vertex 73.4048 14.5 -17.6742
      vertex 73.332 12 -17.6597
    endloop
  endfacet
  facet normal 0.195073 0 0.980789
    outer loop
      vertex 73.4048 14.5 -17.6742
      vertex 73.332 14.5 -17.6597
      vertex 73.332 12 -17.6597
    endloop
  endfacet
  facet normal 0.237711 0 0.971336
    outer loop
      vertex 73.332 12 -17.6597
      vertex 73.332 14.5 -17.6597
      vertex 73.26 12 -17.6421
    endloop
  endfacet
  facet normal 0.237711 0 0.971336
    outer loop
      vertex 73.332 14.5 -17.6597
      vertex 73.26 14.5 -17.6421
      vertex 73.26 12 -17.6421
    endloop
  endfacet
  facet normal 0.279792 0 0.960061
    outer loop
      vertex 73.26 12 -17.6421
      vertex 73.26 14.5 -17.6421
      vertex 73.1888 12 -17.6213
    endloop
  endfacet
  facet normal 0.279792 0 0.960061
    outer loop
      vertex 73.26 14.5 -17.6421
      vertex 73.1888 14.5 -17.6213
      vertex 73.1888 12 -17.6213
    endloop
  endfacet
  facet normal 0.321467 0 0.946921
    outer loop
      vertex 73.1888 12 -17.6213
      vertex 73.1888 14.5 -17.6213
      vertex 73.1186 12 -17.5975
    endloop
  endfacet
  facet normal 0.321467 0 0.946921
    outer loop
      vertex 73.1888 14.5 -17.6213
      vertex 73.1186 14.5 -17.5975
      vertex 73.1186 12 -17.5975
    endloop
  endfacet
  facet normal 0.362458 0 0.932
    outer loop
      vertex 73.1186 12 -17.5975
      vertex 73.1186 14.5 -17.5975
      vertex 73.0494 12 -17.5706
    endloop
  endfacet
  facet normal 0.362458 0 0.932
    outer loop
      vertex 73.1186 14.5 -17.5975
      vertex 73.0494 14.5 -17.5706
      vertex 73.0494 12 -17.5706
    endloop
  endfacet
  facet normal 0.402736 0 0.915316
    outer loop
      vertex 73.0494 12 -17.5706
      vertex 73.0494 14.5 -17.5706
      vertex 72.9816 12 -17.5407
    endloop
  endfacet
  facet normal 0.402736 0 0.915316
    outer loop
      vertex 73.0494 14.5 -17.5706
      vertex 72.9816 14.5 -17.5407
      vertex 72.9816 12 -17.5407
    endloop
  endfacet
  facet normal 0.442265 0 0.896885
    outer loop
      vertex 72.9816 12 -17.5407
      vertex 72.9816 14.5 -17.5407
      vertex 72.915 12 -17.5079
    endloop
  endfacet
  facet normal 0.442265 0 0.896885
    outer loop
      vertex 72.9816 14.5 -17.5407
      vertex 72.915 14.5 -17.5079
      vertex 72.915 12 -17.5079
    endloop
  endfacet
  facet normal 0.480981 0 0.876731
    outer loop
      vertex 72.915 12 -17.5079
      vertex 72.915 14.5 -17.5079
      vertex 72.85 12 -17.4722
    endloop
  endfacet
  facet normal 0.480981 0 0.876731
    outer loop
      vertex 72.915 14.5 -17.5079
      vertex 72.85 14.5 -17.4722
      vertex 72.85 12 -17.4722
    endloop
  endfacet
  facet normal 0.518792 0 0.8549
    outer loop
      vertex 72.85 12 -17.4722
      vertex 72.85 14.5 -17.4722
      vertex 72.7866 12 -17.4338
    endloop
  endfacet
  facet normal 0.518792 0 0.8549
    outer loop
      vertex 72.85 14.5 -17.4722
      vertex 72.7866 14.5 -17.4338
      vertex 72.7866 12 -17.4338
    endloop
  endfacet
  facet normal 0.555587 0 0.831459
    outer loop
      vertex 72.7866 12 -17.4338
      vertex 72.7866 14.5 -17.4338
      vertex 72.7249 12 -17.3926
    endloop
  endfacet
  facet normal 0.555587 0 0.831459
    outer loop
      vertex 72.7866 14.5 -17.4338
      vertex 72.7249 14.5 -17.3926
      vertex 72.7249 12 -17.3926
    endloop
  endfacet
  facet normal 0.59127 0 0.806474
    outer loop
      vertex 72.7249 12 -17.3926
      vertex 72.7249 14.5 -17.3926
      vertex 72.6651 12 -17.3487
    endloop
  endfacet
  facet normal 0.59127 0 0.806474
    outer loop
      vertex 72.7249 14.5 -17.3926
      vertex 72.6651 14.5 -17.3487
      vertex 72.6651 12 -17.3487
    endloop
  endfacet
  facet normal 0.625971 0 0.779846
    outer loop
      vertex 72.6651 12 -17.3487
      vertex 72.6651 14.5 -17.3487
      vertex 72.6073 12 -17.3023
    endloop
  endfacet
  facet normal 0.625971 0 0.779846
    outer loop
      vertex 72.6651 14.5 -17.3487
      vertex 72.6073 14.5 -17.3023
      vertex 72.6073 12 -17.3023
    endloop
  endfacet
  facet normal 0.659322 0 0.751861
    outer loop
      vertex 72.6073 12 -17.3023
      vertex 72.6073 14.5 -17.3023
      vertex 72.5515 12 -17.2534
    endloop
  endfacet
  facet normal 0.659322 0 0.751861
    outer loop
      vertex 72.6073 14.5 -17.3023
      vertex 72.5515 14.5 -17.2534
      vertex 72.5515 12 -17.2534
    endloop
  endfacet
  facet normal 0.691519 0 0.722358
    outer loop
      vertex 72.5515 12 -17.2534
      vertex 72.5515 14.5 -17.2534
      vertex 72.4979 12 -17.2021
    endloop
  endfacet
  facet normal 0.691519 0 0.722358
    outer loop
      vertex 72.5515 14.5 -17.2534
      vertex 72.4979 14.5 -17.2021
      vertex 72.4979 12 -17.2021
    endloop
  endfacet
  facet normal 0.722358 0 0.691519
    outer loop
      vertex 72.4979 12 -17.2021
      vertex 72.4979 14.5 -17.2021
      vertex 72.4466 12 -17.1485
    endloop
  endfacet
  facet normal 0.722358 0 0.691519
    outer loop
      vertex 72.4979 14.5 -17.2021
      vertex 72.4466 14.5 -17.1485
      vertex 72.4466 12 -17.1485
    endloop
  endfacet
  facet normal 0.751837 0 0.659349
    outer loop
      vertex 72.4466 12 -17.1485
      vertex 72.4466 14.5 -17.1485
      vertex 72.3977 12 -17.0927
    endloop
  endfacet
  facet normal 0.751837 0 0.659349
    outer loop
      vertex 72.4466 14.5 -17.1485
      vertex 72.3977 14.5 -17.0927
      vertex 72.3977 12 -17.0927
    endloop
  endfacet
  facet normal 0.779888 0 0.625919
    outer loop
      vertex 72.3977 12 -17.0927
      vertex 72.3977 14.5 -17.0927
      vertex 72.3513 12 -17.0349
    endloop
  endfacet
  facet normal 0.779888 0 0.625919
    outer loop
      vertex 72.3977 14.5 -17.0927
      vertex 72.3513 14.5 -17.0349
      vertex 72.3513 12 -17.0349
    endloop
  endfacet
  facet normal 0.806462 0 0.591285
    outer loop
      vertex 72.3513 12 -17.0349
      vertex 72.3513 14.5 -17.0349
      vertex 72.3074 12 -16.9751
    endloop
  endfacet
  facet normal 0.806462 0 0.591285
    outer loop
      vertex 72.3513 14.5 -17.0349
      vertex 72.3074 14.5 -16.9751
      vertex 72.3074 12 -16.9751
    endloop
  endfacet
  facet normal 0.831463 0 0.555581
    outer loop
      vertex 72.3074 12 -16.9751
      vertex 72.3074 14.5 -16.9751
      vertex 72.2662 12 -16.9134
    endloop
  endfacet
  facet normal 0.831463 0 0.555581
    outer loop
      vertex 72.3074 14.5 -16.9751
      vertex 72.2662 14.5 -16.9134
      vertex 72.2662 12 -16.9134
    endloop
  endfacet
  facet normal 0.854881 0 0.518825
    outer loop
      vertex 72.2662 12 -16.9134
      vertex 72.2662 14.5 -16.9134
      vertex 72.2278 12 -16.85
    endloop
  endfacet
  facet normal 0.854881 0 0.518825
    outer loop
      vertex 72.2662 14.5 -16.9134
      vertex 72.2278 14.5 -16.85
      vertex 72.2278 12 -16.85
    endloop
  endfacet
  facet normal 0.876736 0 0.480973
    outer loop
      vertex 72.2278 12 -16.85
      vertex 72.2278 14.5 -16.85
      vertex 72.1921 12 -16.785
    endloop
  endfacet
  facet normal 0.876736 0 0.480973
    outer loop
      vertex 72.2278 14.5 -16.85
      vertex 72.1921 14.5 -16.785
      vertex 72.1921 12 -16.785
    endloop
  endfacet
  facet normal 0.896875 0 0.442285
    outer loop
      vertex 72.1921 12 -16.785
      vertex 72.1921 14.5 -16.785
      vertex 72.1593 12 -16.7185
    endloop
  endfacet
  facet normal 0.896875 0 0.442285
    outer loop
      vertex 72.1921 14.5 -16.785
      vertex 72.1593 14.5 -16.7185
      vertex 72.1593 12 -16.7185
    endloop
  endfacet
  facet normal 0.915325 0 0.402715
    outer loop
      vertex 72.1593 12 -16.7185
      vertex 72.1593 14.5 -16.7185
      vertex 72.1294 12 -16.6506
    endloop
  endfacet
  facet normal 0.915325 0 0.402715
    outer loop
      vertex 72.1593 14.5 -16.7185
      vertex 72.1294 14.5 -16.6506
      vertex 72.1294 12 -16.6506
    endloop
  endfacet
  facet normal 0.932008 0 0.362437
    outer loop
      vertex 72.1294 12 -16.6506
      vertex 72.1294 14.5 -16.6506
      vertex 72.1025 12 -16.5814
    endloop
  endfacet
  facet normal 0.932008 0 0.362437
    outer loop
      vertex 72.1294 14.5 -16.6506
      vertex 72.1025 14.5 -16.5814
      vertex 72.1025 12 -16.5814
    endloop
  endfacet
  facet normal 0.946929 0 0.321444
    outer loop
      vertex 72.1025 12 -16.5814
      vertex 72.1025 14.5 -16.5814
      vertex 72.0787 12 -16.5112
    endloop
  endfacet
  facet normal 0.946929 0 0.321444
    outer loop
      vertex 72.1025 14.5 -16.5814
      vertex 72.0787 14.5 -16.5112
      vertex 72.0787 12 -16.5112
    endloop
  endfacet
  facet normal 0.960041 0 0.279858
    outer loop
      vertex 72.0787 12 -16.5112
      vertex 72.0787 14.5 -16.5112
      vertex 72.0579 12 -16.44
    endloop
  endfacet
  facet normal 0.960041 0 0.279858
    outer loop
      vertex 72.0787 14.5 -16.5112
      vertex 72.0579 14.5 -16.44
      vertex 72.0579 12 -16.44
    endloop
  endfacet
  facet normal 0.971346 0 0.23767
    outer loop
      vertex 72.0579 12 -16.44
      vertex 72.0579 14.5 -16.44
      vertex 72.0403 12 -16.3679
    endloop
  endfacet
  facet normal 0.971346 0 0.23767
    outer loop
      vertex 72.0579 14.5 -16.44
      vertex 72.0403 14.5 -16.3679
      vertex 72.0403 12 -16.3679
    endloop
  endfacet
  facet normal 0.980788 0 0.195078
    outer loop
      vertex 72.0403 12 -16.3679
      vertex 72.0403 14.5 -16.3679
      vertex 72.0258 12 -16.2952
    endloop
  endfacet
  facet normal 0.980788 0 0.195078
    outer loop
      vertex 72.0403 14.5 -16.3679
      vertex 72.0258 14.5 -16.2952
      vertex 72.0258 12 -16.2952
    endloop
  endfacet
  facet normal 0.988353 0 0.152182
    outer loop
      vertex 72.0258 12 -16.2952
      vertex 72.0258 14.5 -16.2952
      vertex 72.0145 12 -16.2219
    endloop
  endfacet
  facet normal 0.988353 0 0.152182
    outer loop
      vertex 72.0258 14.5 -16.2952
      vertex 72.0145 14.5 -16.2219
      vertex 72.0145 12 -16.2219
    endloop
  endfacet
  facet normal 0.994065 0 0.108791
    outer loop
      vertex 72.0145 12 -16.2219
      vertex 72.0145 14.5 -16.2219
      vertex 72.0065 12 -16.1482
    endloop
  endfacet
  facet normal 0.994065 0 0.108791
    outer loop
      vertex 72.0145 14.5 -16.2219
      vertex 72.0065 14.5 -16.1482
      vertex 72.0065 12 -16.1482
    endloop
  endfacet
  facet normal 0.99786 0 0.0653939
    outer loop
      vertex 72.0065 12 -16.1482
      vertex 72.0065 14.5 -16.1482
      vertex 72.0016 12 -16.0742
    endloop
  endfacet
  facet normal 0.99786 0 0.0653939
    outer loop
      vertex 72.0065 14.5 -16.1482
      vertex 72.0016 14.5 -16.0742
      vertex 72.0016 12 -16.0742
    endloop
  endfacet
  facet normal 0.99976 0 0.0218988
    outer loop
      vertex 72.0016 12 -16.0742
      vertex 72.0016 14.5 -16.0742
      vertex 72 12 -16
    endloop
  endfacet
  facet normal 0.99976 0 0.0218988
    outer loop
      vertex 72.0016 14.5 -16.0742
      vertex 72 14.5 -16
      vertex 72 12 -16
    endloop
  endfacet
  facet normal 1 0 0
    outer loop
      vertex 85.9 9.5 -3.5
      vertex 85.9 9.5 -11
      vertex 85.9 14.5 -3.5
    endloop
  endfacet
  facet normal 1 0 0
    outer loop
      vertex 85.9 9.5 -11
      vertex 85.9 14.5 -11
      vertex 85.9 14.5 -3.5
    endloop
  endfacet
endsolid Onshape
